<svg xmlns="http://www.w3.org/2000/svg"
	xmlns:xlink="http://www.w3.org/1999/xlink" viewBox="0 0 1200 982" preserveAspectRatio="none">
	<defs>
		<linearGradient id="b" x1="11.005%" x2="101.751%" y1="12.691%" y2="90.95%">
			<stop offset="0%" stop-color="#FFF" stop-opacity=".5"/>
			<stop offset="100%" stop-color="#F2F2F7"/>
		</linearGradient>
		<path id="a" d="M984.124 874.347c-5.312.353-11.633.75-18.683 1.18l-101.764-45.375 45.27-101.222c9.828 3.048 18.177 4.884 24.031 4.884 1.342 0 2.555-.096 3.624-.297 22.03-4.129 41.666-33.975 53.717-52.679l209.526 157.825c-.633.113-1.261.225-1.9.336-9.943 1.737-20.224 3.53-30.694 6.586-29.051 8.478-132.336 25.381-183.127 28.762Zm-76.806 4.574c-42.114 2.417-89.85 5.16-115.27 7.076-24.602 1.851-53.62 4.337-84.34 6.964-11.505.984-23.298 1.995-35.197 2.998l52.815-115.544 216.471 96.515c-10.857.635-22.532 1.303-34.48 1.99Zm-247.279 18.086c-47.72 3.982-96.091 7.72-133.466 9.333-7.13.308-13.396.845-19.18 1.502-1.798-13.772-6.773-33.258-13.037-56.764-3.133-11.767-5.84-21.925-6.8-27.468-1.977-11.413 28.708-78.84 52.41-125.838l175.395 78.2-55.322 121.035Zm-174.955 14.08c-15.356 2.53-28.615 4.71-49.798 3.783-13.798-.606-23.922-1.486-32.634-2.847l-1.202-29.537c-.002-.09-.041-.172-.048-.262l.03-.002-5.471-61.102a5.449 5.449 0 0 0-.238-1.18l-35.716-111.322 168.242-11.828c-15.36 30.658-54.493 111.066-51.441 128.681 1.043 6.021 3.807 16.4 7.008 28.415 4.058 15.236 10.647 39.972 12.8 55.372a761.35 761.35 0 0 0-11.532 1.829Zm8.853 17.536c-4.173 10.042-8.118 19.587-9.233 26.791-19.346-.34-56.28 8.463-70.623 12.092-.792-8.77-2.516-16.939-4.207-24.897-.89-4.197-1.747-8.286-2.454-12.35 7.632.913 16.38 1.583 27.1 2.052 3.655.163 7.102.235 10.377.235 17.336 0 29.875-2.066 43.025-4.235 2.167-.358 4.362-.714 6.583-1.067l-.568 1.379Zm-134.421-28.66c-4.571-1.568-9.574-3.292-15.192-5.173-12.58-4.216-27.142-5.543-41.224-6.829-16.77-1.53-34.11-3.111-45.824-9.623-14.184-7.887-22.597-23.54-31.508-40.114-2.599-4.838-5.273-9.748-8.112-14.518l81.284-65.93 91.677 126.797 1.03 25.329c-9.872-2.285-19.115-5.463-32.131-9.938Zm-148.508-86.52c-19.964-27.518-43.361-52.142-69.085-72.91 2.145-13.345 5.89-39.503 4.22-50.36-1.532-9.95-3.688-32.486-4.805-44.659 14.025-4.102 35.06-8.796 66.572-13.638l84.628 117.045-80.825 65.559c-.242-.339-.46-.701-.705-1.037Zm-77.516-222.438 56.638-15.082a5.453 5.453 0 0 0 2.287-1.254l17.234-15.846c-.09.433-.177.867-.266 1.295-3.842 18.732-7.79 38.018-9.548 55.328-25.292 4.002-44.463 8.026-58.977 12.043l-7.368-36.484Zm2.531 144.873c-12.368-9.571-25.246-18.241-38.511-25.931 6.988-17.88 12.478-34.73 15.746-50.606.23-.88 2.359-5.47 21.687-11.845 1.15 12.478 3.208 33.794 4.728 43.677 1.39 9.037-1.542 31.042-3.65 44.705ZM85.09 634.163c-.607-3.966 3.454-18.488 9.109-32.695l28.732-7.653 7.438 36.838c-16.739 5.52-25.436 11.014-29.939 16.417-5.358-4.38-12.1-9.957-15.34-12.907Zm30.078-133.889v-26.922c33.114-5.852 83.06-13.879 99.594-.881 3.059 2.405 4.603 5.455 4.86 9.602 1.033 16.56-2.192 37.292-6.316 58.568l-27.281 25.083-54.696 14.564-16.16-80.014Zm13.576-78.293c.159-.52.24-1.059.24-1.6v-41.63l17.938-28.395 21.107-7.688a3.27 3.27 0 0 0 1.281-.851l19.695-21.253 34.21-10.798 146.696-38.828 16.926 161.336c-22.187.282-36.97-.174-37.453-.192-2.343-.113-4.658.805-6.36 2.45a8.728 8.728 0 0 0-2.66 6.275v36.818l-51.534 2.47c-.362.018-.72.07-1.071.16l-50.575 12.76c.125-4.14.098-8.167-.14-12.027-.564-9.082-4.54-16.775-11.495-22.243-21.347-16.784-68.37-10.399-106.933-3.721l10.128-33.043Zm3.12-103.902-4.09 2.05-.012-.03-16.962 6.903-22.891-20.334c12.923-11.012 27.037-22.165 30.303-23.31 4.905-1.72 8.204-6.159 5.967-47.842-.73-13.57-1.865-27.088-2.544-34.638l129.46-64.223 20.04 28.707c.197.28.435.528.707.736l29.003 22c.201.154.424.285.657.387l22.27 9.82a3.285 3.285 0 0 0 1.994.207l35.758-7.528 7.697 73.366-147.829 39.13-35.182 11.103c-.543.17-1.03.48-1.416.897l-19.747 21.307-20.132 7.332-13.051-26.04Zm-45.908-59.433-5.018-37.578 30.224-14.994c2.592 29.586 3.867 60.744 1.77 67.727-1.787.917-4.108 2.423-6.707 4.26l-20.27-19.415Zm218.053-148.24 54.556 74.511-33.115 6.972-20.957-9.24-28.285-21.457-19.182-27.479 46.983-23.308Zm58.628-23.263c11.7-1.711 142.597-20.932 178.045-29.864 7.086 17.205 27.142 47.795 36.672 61.931-24.395 2.966-48.53 7.136-50.287 7.442a5.39 5.39 0 0 0-.811.205l-157.67 53.275-54.292-74.15 48.343-18.84Zm253.117 125.126a.574.574 0 0 1-.007.028l-16.171 56.317a3.23 3.23 0 0 0-.915.247l-8.648 3.882-66.533-8.35-149.528-59.502-1.526-14.538 156.923-53.024c11.994-2.08 35.516-5.782 56.394-8.11 15.589 37.531 30.694 77.859 30.01 83.05Zm6.591-84.679c10.416 1.707 50.633 11.442 90.76 23.775 7.247 21.12 16.95 52.701 16.716 61.622-.227 8.548-11.585 31.116-19.523 44.908-41.225-17.953-83.9-38.887-88.093-44.851.526-10.141-18.768-58.261-29.67-84.54 12.925-1.276 24.12-1.848 29.81-.914Zm173.801 57.041-48.056 73.644c-.801.358-1.545.853-2.226 1.455l-23.162-1.632c6.502-11.784 17.73-33.685 18.024-44.823.286-10.817-9.192-41.104-14.749-57.86 29.04 9.369 56.302 19.81 70.17 29.216Zm8.62 6.756c14.29 11.483 36.867 28.04 59.73 43.922-13.612 18.228-30.676 40.266-49.64 64.286l-55.497-38.623 45.408-69.585Zm74.132 53.812c26.839 18.197 51.624 33.687 60.832 36.76 8.092 2.699 37.876 4.355 72.635 4.96v45.55l-19.621 60.218-162.692-84.112c18.615-23.62 35.382-45.318 48.846-63.376Zm10.242-13.916c13.953-19.252 30.294-43.151 47.876-69.249l6.957 4.166c40.523 31.228 83.302 67.34 85.83 74.569-.675 2.481-1.524 3.598-2.774 5.246-2.335 3.073-5.241 6.898-8.04 19.507a227.383 227.383 0 0 0-2.056 10.376c-36.137-.591-67.291-2.134-73.752-4.29-7.848-2.619-31.577-17.486-57.763-35.223a882.777 882.777 0 0 0 3.722-5.102Zm154.139 55.9c10.034 0 20.077-.083 29.777-.243a3220.675 3220.675 0 0 1 31.163 30.768c-7.77 8.198-33.129 36.085-35.103 52.888-.587 4.973-1.071 11.415-1.634 18.876-.426 5.63-.897 11.865-1.48 18.252l-63.381-10.138 20.384-62.56a5.505 5.505 0 0 0 .269-1.692v-46.263c6.591.072 13.296.112 20.005.112Zm65.56 35.16c41.026 41.241 75.957 78.77 76.98 85.248 0 2.916-.51 9.842-1.492 19.06l-111.84-17.89c.589-6.453 1.073-12.832 1.523-18.798.556-7.387 1.036-13.765 1.603-18.603 1.56-13.255 22.741-37.969 33.225-49.017Zm52.275 209.6c-4.204 7.867-9.477 18.854-15.58 31.574-13.396 27.911-35.007 72.941-46.854 82.853-5.095-3.461-35.433-24.107-66.216-45.657 1.37-5.682 3.2-13.497 3.892-17.503.89-5.168 20.507-107.366 28.259-129.308 2.699-7.633 4.564-17.394 5.956-27.769l111.666 17.864c-3.982 29.833-11.189 69.356-21.123 87.946Zm-134.415 64.729c-24.51-17.22-48.314-34.366-58.833-43.178-6.595-5.53-17.249-13.285-29.55-21.833l57.63-117.733a8.702 8.702 0 0 0 1.949.58l66.194 10.589c-1.344 10.045-3.13 19.507-5.644 26.623-7.877 22.291-27.644 125.179-28.54 130.377-.561 3.254-1.964 9.364-3.206 14.575Zm-242.413 69.637 37.252-71.734L984.76 677.38c-10.832 16.812-30.128 46.095-49.361 49.7-20.581 3.874-111.788-40.388-151.113-60.772Zm-3.013 5.805c17.906 9.254 79.844 40.7 121.416 54.782l-44.99 100.592-127.574-56.88 51.148-98.494Zm-308.753-65.478c103.549-7.409 117.296-8.984 122.587-14.036 5.625-5.373 29.042-32.552 60.792-70.405 9.587 10.808 17.895 19.963 22.514 24.585 14.34 14.341 79.977 99.769 94.198 118.333l-52.47 101.043-180.472-80.465a5.499 5.499 0 0 0-2.605-.46l-111.896 7.865-8.645-82.39c19.407-1.451 38.243-2.8 55.997-4.07Zm-68.193-112.197c24.866-2.479 124.329-12.46 133.785-14.418 9.058-1.876 27.754-13.966 34.82-18.688l4.714 7.033a3.275 3.275 0 0 0 2.116 1.397 3.263 3.263 0 0 0 2.477-.535l17.206-12.033c6.261 7.31 26.06 30.388 44.733 51.697-30.66 36.618-53.598 63.38-60.2 70.163-9.63 2.793-62.005 6.54-112.704 10.169-17.935 1.283-36.965 2.645-56.573 4.113l-10.374-98.898Zm-47.751 203.48-25.737-80.215c25.014-2.265 50.269-4.305 74.801-6.173l8.638 82.333-57.702 4.054Zm1.13 39.238 27.445 85.54 3.648 40.74L308.81 752.81l48.895-15.653ZM240.033 627.376c25.145-3.215 52.165-6.069 79.678-8.646l34.66 108.037-52.285 16.74-82.017-113.434c6.284-.897 12.92-1.796 19.964-2.697Zm74.216-25.668c-26.71 2.534-52.92 5.33-77.382 8.472-6.703.862-13.07 1.724-19.152 2.588 1.861-15.348 5.348-32.458 8.77-49.141 4.107-20.027 8.307-40.52 10.002-59.185l43.07-10.865 34.692 108.131ZM564.22 296.564c2.32 18.363 6.904 47.887 12.78 51.828.79.53 1.664.8 2.545.8.378 0 .76-.05 1.135-.152 4.32-1.179 17.893-9.484 27.384-15.492l25.137 30.458c-20.232 16.2-40.43 30.55-57.93 39.585-42.268 21.82-124.745 27.322-177.486 28.493l-23.062-219.841 148.532 59.108 40.965 25.213Zm56.372-6.455 10.344 24.076-16.99 8.941-.523-.8c-10.305 6.725-27.439 17.422-33.23 19.936-2.952-5.159-7.208-28.149-9.672-48.064a3.272 3.272 0 0 0-1.533-2.385l-30.836-18.98 51.956 6.52c.593.074 1.2-.018 1.747-.262l7.798-3.5 20.939 14.518Zm21.07 67.012-23.695-28.712 18.694-9.84a3.272 3.272 0 0 0 1.482-4.19l-11.911-27.718a3.255 3.255 0 0 0-1.141-1.397l-19.588-13.584 14.812-51.583c5.742 4.48 18.02 11.594 43.75 23.889 18.05 8.621 36.423 16.75 44.312 20.205a5.446 5.446 0 0 0 4.92 4.181l22.532 1.589c-17.099 17.357-54.982 54.834-94.167 87.16Zm64.785 76.679c-8.073-8.452-22.155-24.873-34.604-40.107l-19.039-23.07c43.914-36.165 85.528-78.122 99.956-92.977l51.236 35.66c-30.572 38.486-65.047 80.95-97.55 120.494Zm144.122 40.041c-.016-.591-.02-1.202-.057-1.75-.227-3.472-.301-7.393-.377-11.542-.522-27.572-1.32-68.707-46.44-118.77 5.199-6.507 10.315-12.931 15.329-19.253l167.204 86.444-57 116.437c-31.122-21.25-68.444-45.074-78.66-51.566Zm-.797 12.437c14.686 9.383 47.872 30.74 75.264 49.492l-40.708 83.318-60.212-30.55c3.904-12.377 21.627-69.688 25.656-102.26ZM716.98 448.613c26.243-31.9 53.854-65.825 79.796-98.192 41.215 46.486 41.965 84.662 42.452 110.333.072 3.987.157 7.74.364 11.252l-29.313-7.633a3.274 3.274 0 0 0-.824-.105H749.76l-24.622-4.624-8.158-11.031Zm-68.546 55.192c-22.069-25.202-45.558-52.668-45.947-53.122a3.273 3.273 0 0 0-4.361-.554l-16.903 11.821-4.686-6.996a3.281 3.281 0 0 0-2.108-1.392 3.261 3.261 0 0 0-2.472.521c-7.034 4.862-27.063 17.847-35.175 19.527-9.029 1.87-108.668 11.876-133.14 14.32l-4.02-38.335c54.28-1.23 138.401-7.128 183.652-30.488 18.7-9.654 39.962-24.727 61.063-41.607l19.075 23.117c4.67 5.71 24.356 29.652 36.088 41.626a10891.583 10891.583 0 0 1-51.066 61.562Zm64.257-49.984 7.95 10.75a3.287 3.287 0 0 0 2.03 1.27l26.181 4.917c.197.037.4.056.603.056h59.58l30.548 7.955c-1.787 30.06-24.456 102.032-26.456 108.33l-37.183 71.6c-17.5-22.832-78.646-102.29-92.902-116.55-4.595-4.593-13.089-13.973-22.89-25.032a10098.667 10098.667 0 0 0 52.539-63.296Zm-355.333 28.45h.46v-32.528c7.04.122 17.75.214 30.855.046l15.144 144.371c-25.721 1.962-52.237 4.107-78.445 6.508l-35.199-109.714 67.447-3.234-.262-5.449Zm636.179 182.244c-1.353 1.545-3.053 4.035-5.208 7.339l-98.165-49.803 40.325-82.53c12.742 8.817 23.77 16.806 30.373 22.336 11.317 9.486 36.916 27.88 62.635 45.916-7.411 15.686-24.27 50.237-29.96 56.742ZM1139.068 19.5c5.907 6.584 12 13.349 18.27 19.686a682.895 682.895 0 0 1 28.973 31.18l-47.987 50.239c-8.744 1.903-73.573 15.948-102.685 20.36L1139.07 19.5ZM1200 856.365v-25.78L993.88 675.327c1.902-2.916 3.512-5.279 4.583-6.505 6.74-7.704 24.849-45.386 30.472-57.244 30.017 20.98 58.828 40.57 63.765 43.921 4.567 5.312 40.829 47.525 53.976 63.708 6.216 7.655 28.741 22.16 53.324 36.703v-12.736c-21.753-12.997-40.067-24.951-44.858-30.845-11.954-14.713-42.731-50.621-51.971-61.386 12.244-10.876 28.652-43.725 48.262-84.594 6.072-12.653 11.315-23.577 15.454-31.321 2.044-3.824 3.968-8.441 5.773-13.618 4.592 4.77 12.807 13.216 21.327 21.554a679.675 679.675 0 0 0 6.013 5.8v-9.064c-7.933-7.7-16.717-16.592-25.054-25.358 6.247-20.63 10.879-47.472 13.787-69.307l11.267 1.802v-17.68l-9.185-1.469c1.025-9.658 1.549-16.953 1.549-20.098 0-2.966 0-9.137-59.296-69.916-20.035-20.54-40.245-40.51-50.845-50.916 31.117-.7 57.293-2.276 65.83-4.733 5.418-1.558 24.89-9.626 51.947-21.25v-11.863c-28.778 12.408-49.564 21.074-54.962 22.627-13.606 3.915-71.11 5.105-121.47 4.454a215.18 215.18 0 0 1 1.808-9.054c2.49-11.21 4.815-14.267 6.862-16.966 1.48-1.945 3.006-3.957 4.027-8.044.742-2.97 1.866-7.455-43.904-45.41-15.561-12.906-31.394-25.377-39.328-31.572 15.631-4.13 56.123-14.512 74.926-16.376 23.915-2.37 109.126-20.995 112.74-21.785a3.287 3.287 0 0 0 1.668-.938l48.256-50.52a686.757 686.757 0 0 1 9.377 11.21V56.032l-1.584 1.656c-9.27-10.557-18.812-20.827-28.671-30.787-6.245-6.306-12.454-13.228-18.458-19.923-2.082-2.32-4.18-4.65-6.295-6.979h-23.906c4.627 4.744 9.135 9.667 13.569 14.59l-108.668 127.615c-22.822 2.568-70.809 15.362-79.682 17.76l-5.63-3.369c7.364-10.95 14.92-22.239 22.606-33.72 26.904-40.192 55.65-83.122 83.675-122.876h-21.327c-25.885 37.032-52.141 76.249-76.852 113.166-27.386 40.916-53.256 79.564-73.772 107.873-1.278 1.766-2.62 3.601-3.993 5.47-22.93-15.898-45.853-32.65-60.255-44.302l59.994-91.935a5.52 5.52 0 0 0 .606-1.257L901.023 0h-11.5l-28.294 84.897-59.132 90.615c-16.828-11.178-49.97-23.385-83.338-33.777 2.76-8.785 9.152-26.983 17.404-36.737 12.587-14.877 31.739-45.16 32.92-67.612.326-6.187-.634-20.358-2.16-37.386h-10.945c1.54 16.932 2.52 30.955 2.213 36.812-.978 18.58-18.339 46.935-30.354 61.14-9.57 11.308-16.542 31.09-19.518 40.589-37.93-11.392-73.966-20.04-84.21-21.72-7.012-1.148-20.127-.439-34.499 1.017-6.927-10.15-31.848-47.197-39.091-65.308-.062-.154-.125-.342-.188-.501l64.309-21.255 13.975 10.206a3.269 3.269 0 0 0 4.737-.962L657.333 0h-7.63l-20.123 33.578-12.44-9.083a3.272 3.272 0 0 0-2.957-.464L548.26 45.818C544.93 34.593 541.298 16.954 538.165 0h-11.101c3.083 16.788 6.713 34.63 10.178 46.927-20.952 5.193-79.656 14.73-127.047 22.031l-31.148-41.735L401.164 0h-8.432L375.01 21.813 358.732 0h-8.166l52.298 70.084a6414.496 6414.496 0 0 1-42.417 6.353c-.408.059-.81.166-1.193.314l-51.63 20.122L236.693 0h-13.52l74.293 101.471-216.297 107.3 3.696-49.072 20.503-14.49a5.454 5.454 0 0 0 1.544-7.236L25.19 0H12.51l82.455 139.204-18.491 13.067a5.449 5.449 0 0 0-2.293 4.046l-4.375 58.093L0 249.04v12.179l70.612-35.032 4.783 35.8a5.447 5.447 0 0 0 1.634 3.216l20.363 19.507c-7.217 5.685-14.708 12.042-19.217 15.93L0 281.73v11.225l77.014 18.63 29.077 25.828a5.452 5.452 0 0 0 5.68.973l19.06-7.758 6.925 13.812-18.838 29.815a5.472 5.472 0 0 0-.845 2.916v42.392l-11.52 37.589a.077.077 0 0 0-.021.004c-9.89 1.761-18.432 3.284-24.541 3.996C54.38 464.366 26.832 468.868 0 473.398v17.705c27.53-4.655 55.826-9.33 84.007-12.611 5.443-.633 12.344-1.805 20.251-3.202v25.53c0 .362.037.724.11 1.08l16.398 81.2L0 615.259v11.29l81.148-21.605c-11.1 30.097-5.897 34.965-4.073 36.674 3.63 3.396 12.772 10.913 18.735 15.767-3.49 16.261-9.497 33.865-17.177 52.803L0 716.332v10.944l73.922-5.777c-8.522 19.976-18.61 41.35-29.389 64.153-14.43 30.54-30.129 63.854-44.533 99.414v49.47a814.081 814.081 0 0 1 3.764-10.642c28.603 10.372 49.926 19.005 55.787 23.214-1.497 5.655-5.309 18.866-10.002 34.892h11.365c5.06-17.307 9.111-31.44 9.864-34.824 1.23-5.54-2.443-9.582-28.41-20.26-9.191-3.781-20.862-8.229-34.819-13.276 16.39-43.53 35.514-84.02 52.765-120.527 11.221-23.742 21.71-45.966 30.543-66.839 40.42 23.852 76.997 57.417 106.024 97.423 4.859 6.695 9.063 14.514 13.514 22.794 9.707 18.06 19.745 36.733 38.4 47.105 2.762 1.536 5.67 2.846 8.694 3.974L252.015 982h6.561l5.337-82.335c11.77 3.325 24.838 4.52 37.603 5.684 13.687 1.246 26.614 2.427 37.264 5.995a2025.69 2025.69 0 0 1 15.06 5.13c13.844 4.76 23.988 8.245 35.449 10.767.866 6.532 2.203 12.828 3.512 18.992 2.128 10.028 4.14 19.499 4.27 29.8.024 2.015-.026 3.999-.111 5.967h17.472c.076-2.043.118-4.1.092-6.189-.01-.554-.042-1.093-.057-1.64 13.095-3.329 51.294-12.577 69.897-12.239V982h10.909v-17.615c7.123 3.448 15.67 10.429 23.939 17.615h9.925c-11.605-10.237-23.518-20.683-33.718-24.674.79-5.727 4.905-15.647 8.592-24.515.96-2.314 1.926-4.64 2.862-6.946.048-.12.077-.273.123-.398 6.1-.746 12.726-1.357 20.328-1.687 35.116-1.514 79.712-4.879 124.392-8.565L621.188 982h11.993l31.002-67.821c15.222-1.275 30.35-2.569 45.015-3.824 30.672-2.623 59.649-5.104 84.163-6.952 11.346-.853 27.214-1.877 45.053-2.964 6.774 27.54 19.254 54.938 31.582 81.561h19.232c-.726-1.567-1.45-3.134-2.173-4.692-12.423-26.813-24.24-52.325-30.93-77.93 17.071-1.01 35.098-2.046 52.194-3.028 25.1-1.442 49.034-2.817 66.626-3.92L1135.617 982h22.407l-163.187-90.97c54.836-4.7 148.584-20.306 177.301-28.686 9.225-2.69 18.683-4.377 27.862-5.979Z"/>
	</defs>
	<g fill="none" fill-rule="evenodd">
		<g>
			<use xlink:href="#a" fill="#FFF"/>
			<use xlink:href="#a" fill="url(#b)"/>
		</g>
		<path stroke="#AEAEB2" stroke-dasharray="0,14" stroke-linecap="round" stroke-width="8" d="m314.25 449.743 10.264 33.882-34.34 1.178-7.423 2.186 40.19 122.627 87.344-6.85 176.974-14.523 65.545-74.022 42.844 47.696L807.7 700.881" opacity=".4"/>
		<path fill="#8E8E93" d="m308.75 424.911 4.436-9.094a1.665 1.665 0 0 0-.768-2.229 1.665 1.665 0 0 0-2.228.768l-4.436 9.094-9.094-4.435a1.665 1.665 0 0 0-2.229.767 1.665 1.665 0 0 0 .768 2.228l9.094 4.436-4.435 9.095a1.665 1.665 0 0 0 2.04 2.306c.403-.139.754-.432.955-.845l4.436-9.095 9.094 4.436a1.662 1.662 0 0 0 2.229-.768 1.665 1.665 0 0 0-.768-2.228l-9.094-4.436Z"/>
	</g>
</svg>