<?xml version="1.0" encoding="UTF-8"?>
<svg width="1024px" height="216px" viewBox="0 0 1024 216" version="1.1"
    xmlns="http://www.w3.org/2000/svg"
    xmlns:xlink="http://www.w3.org/1999/xlink">
    <defs>
        <linearGradient x1="50%" y1="0%" x2="50%" y2="82.4704677%" id="linearGradient-1">
            <stop stop-color="#FFFFFF" stop-opacity="0.5" offset="0%"></stop>
            <stop stop-color="#F2F2F7" stop-opacity="0.7" offset="100%"></stop>
        </linearGradient>
        <rect id="path-2" x="0" y="0" width="1024" height="216"></rect>
    </defs>
    <g id="UI-kit" stroke="none" stroke-width="1" fill="none" fill-rule="evenodd">
        <g id="Graphics" transform="translate(-92.000000, -3617.000000)">
            <g id="ProductBG" transform="translate(92.000000, 3617.000000)">
                <mask id="mask-3" fill="white">
                    <use xlink:href="#path-2"></use>
                </mask>
                <g id="Rectangle">
                    <use fill="#FFFFFF" xlink:href="#path-2"></use>
                    <use fill="url(#linearGradient-1)" xlink:href="#path-2"></use>
                </g>
                <g id="Map" opacity="0.5" mask="url(#mask-3)" stroke="#FFFFFF">
                    <g transform="translate(-87.000000, -257.000000)" id="Path">
                        <line x1="682.845267" y1="1236" x2="449.067259" y2="239.224762" stroke-width="7.9191031"></line>
                        <polyline stroke-width="7.9191031" points="50.1898763 284.592674 502.427405 232.366822 850.586269 205.462595"></polyline>
                        <polyline stroke-width="7.9191031" points="793.812635 209.850094 827.340787 222.871212 835.79273 264.018854"></polyline>
                        <line x1="165.022346" y1="271.331528" x2="139.475002" y2="36.124224" stroke-width="7.9191031"></line>
                        <polyline stroke-width="7.9191031" points="213.294972 265.75655 261.515893 490.858416 301.6679 724.555918 357.141032 960.363556 393.066012 1142.36274"></polyline>
                        <polyline stroke-width="15.8382062" points="849.794888 1050.30808 699.226842 221.552378 716.130729 50.6314053 719.991038 12.8392628"></polyline>
                        <polyline stroke-width="15.8382062" points="774.772021 1236 1096.51566 899.433394 1103.91243 854.593016 836.056524 356.073513 839.754908 248.456605 861.945216 199.923489 950.173586 40.080728 971.169312 -0.00345706425"></polyline>
                        <polyline stroke-width="7.9191031" points="835.79273 356.33728 729.884921 390.309933 495.520236 437.287879 34.8687506 539.919065"></polyline>
                        <polyline stroke-width="6.86392614" points="330.724752 558.38275 415.783379 539.919065 403.634106 457.759358"></polyline>
                        <line x1="231.752074" y1="351.918656" x2="269.968892" y2="343.676467" stroke-width="6.86392614"></line>
                        <polyline stroke-width="6.86392614" points="224.560536 318.345874 265.21375 308.859232 293.743016 432.302157 349.216148 427.026818 379.858399 438.105029 385.384345 461.825589"></polyline>
                        <line x1="243.805854" y1="408.187001" x2="184.910265" y2="419.11381" stroke-width="6.86392614"></line>
                        <polyline stroke-width="6.86392614" points="379.450575 246.568561 393.066012 331.015655 381.443271 343.676467 357.669147 352.117009 367.178374 396.957388 449.067259 381.131372 455.935386 370.053161 542.050769 350.006874 560.833921 227.853242"></polyline>
                        <line x1="435.331532" y1="383.785922" x2="446.864055" y2="448.128173" stroke-width="6.86392614"></line>
                        <polyline stroke-width="6.86392614" points="385.384345 283.373016 420.010406 279.84487 435.331532 295.143352 497.144149 284.592674"></polyline>
                        <line x1="516.691774" y1="356.33728" x2="534.640283" y2="429.446088" stroke-width="6.86392614"></line>
                        <polyline stroke-width="6.86392614" points="706.233197 260.124599 634.507748 275.624599 628.69374 315.717172 645.170281 407.291249"></polyline>
                        <line x1="640.411447" y1="380.838063" x2="685.752271" y2="372.69083" stroke-width="6.86392614"></line>
                        <line x1="634.507748" y1="359.502483" x2="585.372518" y2="368.470559" stroke-width="6.86392614"></line>
                        <line x1="628.69374" y1="312.405315" x2="575.863291" y2="321.520045" stroke-width="6.86392614"></line>
                        <line x1="658.338852" y1="270.474286" x2="651.939222" y2="223.398746" stroke-width="6.86392614"></line>
                        <polyline stroke-width="6.86392614" points="758.131928 536.226328 850.586269 511.95977 860.626249 495.60622 877.535411 433.271764"></polyline>
                        <line x1="807.793689" y1="473.977332" x2="793.812635" y2="369.804165" stroke-width="6.86392614"></line>
                        <polyline stroke-width="6.86392614" points="742.879388 461.825589 702.656158 440.742698 602.27746 457.623782 590.655774 440.742698 585.372518 419.277346"></polyline>
                        <polyline stroke-width="6.86392614" points="667.466106 446.661628 683.10906 544.66687 753.905956 539.919065"></polyline>
                        <polyline stroke-width="6.86392614" points="864.324633 400.650125 901.303204 378.493702 934.06108 378.493702 1068.58521 571.184942"></polyline>
                        <polyline stroke-width="6.86392614" points="919.267541 376.911101 909.760424 275.624599 945.156234 184.888774 904.474002 131.08032"></polyline>
                        <path d="M911.870771,275.624599 C909.760424,275.624599 964.703331,306.749097 964.703331,306.749097 L1036.5554,312.551969 L1142.21524,364.250288" stroke-width="6.86392614"></path>
                        <line x1="1064.02685" y1="321.520045" x2="1131.64768" y2="209.682866" stroke-width="6.86392614"></line>
                        <polyline stroke-width="6.86392614" points="964.703331 306.749097 971.044926 356.33728 1142.21524 626.434619"></polyline>
                    </g>
                </g>
            </g>
        </g>
    </g>
</svg>