<?xml version="1.0" encoding="UTF-8"?>
<svg width="24px" height="24px" viewBox="0 0 24 24" version="1.1"
    xmlns="http://www.w3.org/2000/svg"
    xmlns:xlink="http://www.w3.org/1999/xlink">
    <g id="UI-Kit" stroke="none" stroke-width="1" fill-rule="evenodd">
        <g id="Icons" transform="translate(-136.000000, -400.000000)">
            <g id="Row-7" transform="translate(40.000000, 400.000000)">
                <g id="Icon/motorcycle-solid" transform="translate(97.000000, 4.300000)">
                    <path d="M9.625,0.0034375 C9.1678125,0.0034375 8.8,0.37125 8.8,0.8284375 C8.8,1.285625 9.1678125,1.6534375 9.625,1.6534375 L11.6084375,1.6534375 L12.1721875,2.695 L8.8,5.5034375 L7.2428125,3.94625 C6.8303125,3.53375 6.27,3.3034375 5.685625,3.3034375 L2.2,3.3034375 C1.5915625,3.3034375 1.1,3.795 1.1,4.4034375 L1.1,5.5034375 L4.4,5.5034375 C7.43875,5.5034375 9.9,7.9646875 9.9,11.0034375 C9.9,11.3815625 9.8621875,11.749375 9.79,12.1034375 L12.21,12.1034375 C12.1378125,11.749375 12.1,11.3815625 12.1,11.0034375 C12.1,9.2090625 12.959375,7.6140625 14.2896875,6.6103125 L14.8190625,7.5934375 C13.8325,8.40125 13.2,9.6284375 13.2,11.0034375 C13.2,13.43375 15.1696875,15.4034375 17.6,15.4034375 C20.0303125,15.4034375 22,13.43375 22,11.0034375 C22,8.573125 20.0303125,6.6034375 17.6,6.6034375 C17.1359375,6.6034375 16.6890625,6.675625 16.2696875,6.8096875 L14.375625,3.3034375 L16.5,3.3034375 C17.1084375,3.3034375 17.6,2.811875 17.6,2.2034375 L17.6,1.1034375 C17.6,0.495 17.1084375,0.0034375 16.5,0.0034375 L15.79875,0.0034375 C15.5409375,0.0034375 15.2934375,0.0928125 15.0940625,0.2578125 L13.4646875,1.615625 L12.9834375,0.721875 C12.7428125,0.2784375 12.27875,8.8817842e-16 11.7734375,8.8817842e-16 L9.625,8.8817842e-16 L9.625,0.0034375 Z M15.9053125,9.6009375 L16.8746875,11.3953125 C17.09125,11.7975 17.593125,11.9453125 17.991875,11.72875 C18.390625,11.5121875 18.541875,11.0103125 18.3253125,10.6115625 L17.3559375,8.8171875 C17.435,8.806875 17.5175,8.8034375 17.6,8.8034375 C18.8134375,8.8034375 19.8,9.79 19.8,11.0034375 C19.8,12.216875 18.8134375,13.2034375 17.6,13.2034375 C16.3865625,13.2034375 15.4,12.216875 15.4,11.0034375 C15.4,10.470625 15.5890625,9.9825 15.9053125,9.6009375 Z M6.4384375,11.8284375 C6.111875,12.63625 5.32125,13.2034375 4.4,13.2034375 C3.1865625,13.2034375 2.2,12.216875 2.2,11.0034375 C2.2,9.79 3.1865625,8.8034375 4.4,8.8034375 C5.3246875,8.8034375 6.1153125,9.370625 6.4384375,10.1784375 L8.7209375,10.1784375 C8.3359375,8.1434375 6.5484375,6.6034375 4.4,6.6034375 C1.9696875,6.6034375 0,8.573125 0,11.0034375 C0,13.43375 1.9696875,15.4034375 4.4,15.4034375 C6.5484375,15.4034375 8.3359375,13.8634375 8.724375,11.8284375 L6.4384375,11.8284375 Z M4.4,12.1034375 L4.4,12.1034375 C5.00750938,12.1034375 5.5,11.6109469 5.5,11.0034375 C5.5,10.3958938 5.00750938,9.9034375 4.4,9.9034375 L4.4,9.9034375 C3.79245625,9.9034375 3.3,10.3958938 3.3,11.0034375 C3.3,11.6109469 3.79245625,12.1034375 4.4,12.1034375 Z" id="🎨-Icon-Сolor"></path>
                </g>
            </g>
        </g>
    </g>
</svg>