<?xml version="1.0" encoding="UTF-8"?>
<svg width="16px" height="16px" viewBox="0 0 24 24" version="1.1"
	xmlns="http://www.w3.org/2000/svg"
	xmlns:xlink="http://www.w3.org/1999/xlink">
	<g id="UI-Kit" stroke="none" stroke-width="1" fill="none" fill-rule="evenodd">
		<g id="Icons" transform="translate(-88.000000, -224.000000)" fill="#008296">
			<g id="Row-3" transform="translate(40.000000, 224.000000)">
				<g id="Icon/navigation-2-solid" transform="translate(50.000200, 3.999357)">
					<path d="M11.6668003,18.0006433 C11.6458003,18.0006433 11.6258003,17.9996433 11.6058003,17.9986433 C11.1538003,17.9716433 10.7768003,17.6436433 10.6868003,17.1996433 L9.1488003,9.63264325 C9.0688003,9.23864325 8.7618003,8.93164325 8.3678003,8.85164325 L0.800800303,7.31264325 C0.356800303,7.22364325 0.0288003026,6.84664325 0.00180030261,6.39464325 C-0.0251996974,5.94164325 0.253800303,5.52764325 0.683800303,5.38564325 L16.6838003,0.0526432528 C17.0428003,-0.0693567472 17.4388003,0.0246432528 17.7068003,0.293643253 C17.9748003,0.561643253 18.0678003,0.957643253 17.9488003,1.31664325 L12.6148003,17.3166433 C12.4788003,17.7276433 12.0948003,18.0006433 11.6668003,18.0006433" id="🎨-Icon-Сolor"></path>
				</g>
			</g>
		</g>
	</g>
</svg>