<?xml version="1.0" encoding="UTF-8"?>
<svg width="24px" height="24px" viewBox="0 0 24 24" version="1.1"
    xmlns="http://www.w3.org/2000/svg"
    xmlns:xlink="http://www.w3.org/1999/xlink">
    <g id="UI-Kit" stroke="none" stroke-width="1" fill-rule="evenodd">
        <g id="Icons" transform="translate(-232.000000, -272.000000)">
            <g id="Row-4" transform="translate(40.000000, 272.000000)">
                <g id="Icon/geofence-plus-solid" transform="translate(193.000000, 1.000000)">
                    <path d="M5.68476563,16.9382812 C6.24335938,16.8351562 6.6171875,16.2980469 6.5140625,15.7394531 C6.4109375,15.1808594 5.87382813,14.8070312 5.31523438,14.9101562 C3.92304688,15.1636719 2.6984375,15.5203125 1.79179688,15.9757812 C1.340625,16.2035156 0.91953125,16.4785156 0.597265625,16.8179687 C0.275,17.1660156 0,17.6386719 0,18.21875 C0,19.1382812 0.666015625,19.7699219 1.25039063,20.1523437 C1.88203125,20.5648437 2.72421875,20.8957031 3.67382812,21.1578125 C5.59453125,21.6863281 8.18125,22 11,22 C13.81875,22 16.4054688,21.6863281 18.321875,21.1578125 C19.2714844,20.8957031 20.1179687,20.5648437 20.7453125,20.1523437 C21.3339844,19.7699219 21.9957031,19.1382812 21.9957031,18.21875 C21.9957031,17.6386719 21.7207031,17.1660156 21.3941406,16.8179687 C21.071875,16.4785156 20.6507812,16.2035156 20.1996094,15.9757812 C19.2972656,15.5203125 18.0726562,15.1636719 16.6761719,14.9101562 C16.1175781,14.8070312 15.5804687,15.1808594 15.4773437,15.7394531 C15.3742187,16.2980469 15.7480469,16.8351562 16.3066406,16.9382812 C17.6042969,17.1746094 18.6140625,17.4882812 19.2714844,17.8191406 C19.4089844,17.8878906 19.5207031,17.9523437 19.6109375,18.0125 C19.765625,18.115625 19.765625,18.321875 19.6109375,18.425 C19.2328125,18.6699219 18.6183594,18.9320312 17.7632812,19.1683594 C16.0832031,19.6367187 13.6855469,19.9375 11,19.9375 C8.31445312,19.9375 5.91679688,19.6367187 4.22382813,19.1683594 C3.36875,18.9320312 2.75429688,18.6699219 2.37617188,18.425 C2.22148438,18.321875 2.22148438,18.115625 2.37617188,18.0125 C2.46640625,17.9523437 2.58242188,17.8878906 2.715625,17.8191406 C3.37304688,17.4882812 4.3828125,17.1789062 5.68046875,16.9382812 L5.68476563,16.9382812 Z M11.8640625,18.5730651 C13.734375,16.1844617 18,10.3952612 18,7.14348656 C18,3.19968669 14.8645833,0 11,0 C7.13541667,0 4,3.19968669 4,7.14348656 C4,10.3952612 8.265625,16.1844617 10.1359375,18.5730651 C10.584375,19.1423116 11.415625,19.1423116 11.8640625,18.5730651 Z M10.125,10.4175846 L10.125,8.03642238 L7.79166667,8.03642238 C7.30677083,8.03642238 6.91666667,7.63832183 6.91666667,7.14348656 C6.91666667,6.64865129 7.30677083,6.25055074 7.79166667,6.25055074 L10.125,6.25055074 L10.125,3.86938855 C10.125,3.37455329 10.5151042,2.97645273 11,2.97645273 C11.4848958,2.97645273 11.875,3.37455329 11.875,3.86938855 L11.875,6.25055074 L14.2083333,6.25055074 C14.6932292,6.25055074 15.0833333,6.64865129 15.0833333,7.14348656 C15.0833333,7.63832183 14.6932292,8.03642238 14.2083333,8.03642238 L11.875,8.03642238 L11.875,10.4175846 C11.875,10.9124198 11.4848958,11.3105204 11,11.3105204 C10.5151042,11.3105204 10.125,10.9124198 10.125,10.4175846 Z" id="🎨-Icon-Сolor"></path>
                </g>
            </g>
        </g>
    </g>
</svg>