<svg xmlns="http://www.w3.org/2000/svg" width="113" height="20">
	<g fill="none" fill-rule="evenodd">
		<path fill="#ffffff" d="M3.414 9.504c.614 0 1.07-.21 1.368-.628.297-.419.446-1.057.446-1.914 0-.847-.146-1.476-.439-1.885-.293-.41-.746-.614-1.36-.614-.625 0-1.201.183-1.73.55V8.94c.538.375 1.11.563 1.715.563Zm-3.097 4.16c-.212 0-.317-.106-.317-.318V3.654c0-.211.105-.317.317-.317h.792c.211 0 .336.096.375.289l.086.447a3.656 3.656 0 0 1 1.116-.707 3.396 3.396 0 0 1 1.275-.246c.912 0 1.64.342 2.182 1.026.543.683.814 1.603.814 2.758 0 .8-.132 1.498-.396 2.095-.265.597-.632 1.054-1.102 1.372a2.817 2.817 0 0 1-1.613.476 3.32 3.32 0 0 1-1.167-.209c-.375-.14-.7-.334-.98-.585v3.293c0 .212-.105.318-.316.318H.317Zm11.508-4.102c1.21 0 1.815-.852 1.815-2.557 0-1.694-.605-2.542-1.815-2.542s-1.815.848-1.815 2.542c0 1.705.605 2.557 1.815 2.557Zm0 1.343c-1.114 0-1.982-.344-2.607-1.032-.624-.689-.936-1.644-.936-2.868 0-1.222.312-2.176.936-2.86.625-.683 1.493-1.025 2.607-1.025s1.983.342 2.607 1.026c.624.683.936 1.637.936 2.86 0 1.223-.312 2.178-.936 2.867-.624.688-1.493 1.032-2.607 1.032Zm6.87-.216c-.22 0-.36-.101-.417-.304l-2.132-6.557a1.169 1.169 0 0 1-.072-.29c0-.134.091-.201.274-.201h1.167c.201 0 .326.091.374.274l1.368 5.33 1.397-5.315c.03-.116.075-.193.138-.232a.508.508 0 0 1 .266-.057h.95c.125 0 .216.021.274.065.058.043.1.118.13.224l1.397 5.416 1.44-5.431c.048-.183.173-.274.375-.274h1.051c.182 0 .274.067.274.202 0 .048-.024.144-.072.289l-2.175 6.557c-.067.203-.207.304-.418.304h-1.008a.5.5 0 0 1-.274-.065c-.067-.044-.115-.123-.144-.239L21.49 5.171l-1.368 5.214c-.03.116-.077.195-.144.239a.5.5 0 0 1-.274.065h-1.008Zm13.857-4.406v-.115c0-.588-.128-1.035-.382-1.344-.255-.308-.627-.462-1.116-.462-.519 0-.941.173-1.268.52-.326.347-.514.814-.562 1.401h3.328Zm-1.21 4.622c-1.21 0-2.127-.327-2.751-.982-.624-.655-.936-1.608-.936-2.86 0-1.242.304-2.21.914-2.903.61-.693 1.462-1.04 2.557-1.04.94 0 1.663.258 2.168.773.504.515.755 1.244.755 2.188 0 .328-.023.67-.071 1.026-.02.125-.056.21-.108.252a.32.32 0 0 1-.21.065h-4.436c.03.732.233 1.27.613 1.61.379.343.962.514 1.75.514.576 0 1.18-.092 1.815-.275l.172-.043a.42.42 0 0 1 .101-.015c.144 0 .216.097.216.29v.52c0 .144-.021.247-.065.31-.043.063-.141.123-.295.18-.643.26-1.373.39-2.19.39Zm4.68-.216c-.21 0-.316-.106-.316-.318V3.654c0-.211.106-.317.316-.317h.764c.135 0 .228.019.281.057.053.04.089.111.108.217l.173.823c.384-.423.744-.722 1.08-.895.336-.173.701-.26 1.095-.26h.057c.125 0 .228.012.31.036a.28.28 0 0 1 .173.123c.033.057.05.163.05.318v.78c0 .202-.086.303-.26.303-.057 0-.136-.005-.237-.015a3.487 3.487 0 0 0-.324-.014c-.71 0-1.34.183-1.887.549v5.012c0 .212-.105.318-.316.318h-1.067Zm9.766-4.406v-.115c0-.588-.127-1.035-.382-1.344-.254-.308-.626-.462-1.116-.462-.519 0-.941.173-1.267.52-.327.347-.514.814-.562 1.401h3.327Zm-1.21 4.622c-1.21 0-2.127-.327-2.75-.982-.625-.655-.937-1.608-.937-2.86 0-1.242.305-2.21.914-2.903.61-.693 1.462-1.04 2.557-1.04.94 0 1.664.258 2.168.773.504.515.756 1.244.756 2.188 0 .328-.024.67-.072 1.026-.02.125-.056.21-.108.252a.318.318 0 0 1-.209.065h-4.436c.029.732.232 1.27.612 1.61.379.343.962.514 1.75.514.576 0 1.18-.092 1.815-.275l.173-.043a.417.417 0 0 1 .1-.015c.144 0 .217.097.217.29v.52c0 .144-.022.247-.065.31-.044.063-.142.123-.296.18-.643.26-1.373.39-2.189.39Zm7.562-1.4c.566 0 1.118-.184 1.656-.55V4.983a2.754 2.754 0 0 0-1.628-.52c-.643 0-1.116.205-1.418.614-.303.41-.454 1.038-.454 1.885 0 1.695.614 2.542 1.844 2.542Zm-.533 1.342c-.922 0-1.659-.344-2.211-1.032-.553-.688-.828-1.616-.828-2.78 0-.8.131-1.496.396-2.088.264-.592.63-1.045 1.102-1.358.47-.312 1.012-.47 1.627-.47.768 0 1.47.252 2.103.752V.318c0-.212.106-.318.317-.318h1.066c.21 0 .317.106.317.318V10.37c0 .212-.106.318-.317.318h-.835c-.212 0-.337-.097-.375-.29l-.101-.418a3.31 3.31 0 0 1-2.261.866Zm13.15-1.343c.614 0 1.07-.21 1.368-.628.298-.419.447-1.057.447-1.914 0-.847-.147-1.476-.44-1.885-.293-.41-.746-.614-1.361-.614-.624 0-1.2.183-1.728.55V8.94c.537.375 1.109.563 1.714.563Zm.432 1.343c-.432 0-.845-.079-1.239-.238a3.025 3.025 0 0 1-1.023-.671l-.1.462c-.039.192-.164.289-.375.289h-.792c-.211 0-.317-.106-.317-.318V.318c0-.212.106-.318.317-.318h1.066c.21 0 .317.106.317.318v3.669c.681-.578 1.435-.867 2.261-.867.912 0 1.64.342 2.182 1.026.542.683.814 1.603.814 2.758 0 .8-.132 1.498-.396 2.095-.264.597-.63 1.054-1.095 1.372-.466.318-1.006.476-1.62.476Zm5.372 2.99c-.355 0-.657-.038-.907-.115-.125-.039-.207-.09-.245-.152-.038-.062-.057-.166-.057-.31v-.491c0-.193.076-.29.23-.29.048 0 .105.006.173.015.067.01.177.015.331.015.413 0 .72-.075.922-.225.201-.15.398-.486.59-1.008l.188-.508-2.723-6.998a.673.673 0 0 1-.057-.232c0-.134.086-.201.259-.201h1.166c.202 0 .327.091.375.273l1.786 5.54 1.815-5.54c.048-.182.173-.273.375-.273h1.094c.173 0 .26.067.26.201 0 .058-.02.135-.058.232l-3.14 8.082c-.27.705-.586 1.212-.95 1.522-.366.309-.841.463-1.427.463ZM107.962 10.864a7.122 7.122 0 0 1-1.623-.185c-.528-.123-.934-.265-1.217-.426-.172-.098-.28-.196-.322-.295a.73.73 0 0 1-.065-.296v-.537c0-.222.08-.332.24-.332.061 0 .126.012.193.037.068.025.157.061.268.111.356.16.743.284 1.161.369.418.086.836.13 1.254.13.664 0 1.178-.117 1.54-.351a1.12 1.12 0 0 0 .543-1c0-.294-.094-.54-.285-.738-.19-.197-.544-.382-1.06-.555l-1.531-.48c-.774-.247-1.336-.605-1.687-1.074a2.507 2.507 0 0 1-.525-1.534c0-.444.095-.835.286-1.174.19-.339.442-.629.756-.87a3.33 3.33 0 0 1 1.096-.544c.418-.124.861-.185 1.329-.185.233 0 .47.015.709.046a6.742 6.742 0 0 1 1.282.286c.184.062.331.124.442.185.147.087.252.173.313.259a.595.595 0 0 1 .093.351v.5c0 .222-.08.332-.24.332-.086 0-.221-.043-.405-.128-.603-.272-1.28-.408-2.029-.408-.602 0-1.07.1-1.401.297-.332.196-.498.51-.498.942 0 .296.105.545.313.75.209.202.597.396 1.162.582l1.494.48c.762.247 1.306.586 1.631 1.017.326.432.489.925.489 1.48 0 .456-.092.866-.277 1.229-.184.364-.439.675-.765.934a3.426 3.426 0 0 1-1.17.59 5.185 5.185 0 0 1-1.494.205Zm-13.534-.277c-.184 0-.32-.034-.405-.102-.086-.067-.16-.207-.221-.416l-2.47-8.173c-.063-.21-.094-.352-.094-.425 0-.173.086-.26.259-.26h1.033c.196 0 .334.035.414.102.08.068.15.207.212.416l1.77 6.99 1.641-6.99c.05-.209.117-.348.203-.416.085-.067.228-.101.424-.101h.849c.196 0 .337.034.423.101.086.068.154.207.204.416l1.659 7.083 1.825-7.083c.061-.209.132-.348.212-.416.08-.067.219-.101.415-.101h.977c.172 0 .259.086.259.259 0 .05-.007.104-.02.166a2.339 2.339 0 0 1-.073.259l-2.544 8.173c-.062.21-.136.349-.222.416-.086.068-.22.102-.405.102h-.904c-.196 0-.338-.037-.423-.112-.087-.073-.155-.215-.203-.425L97.58 3.245 95.96 10.05c-.05.21-.117.352-.202.425-.087.075-.229.112-.425.112h-.904ZM85.966 9.44c.344 0 .706-.065 1.088-.194.38-.13.712-.355.995-.675.172-.197.292-.422.36-.676.067-.252.1-.557.1-.914v-.444a8.97 8.97 0 0 0-.967-.175 7.798 7.798 0 0 0-.987-.065c-.7 0-1.222.142-1.566.425-.345.283-.517.69-.517 1.22 0 .493.13.867.387 1.12.258.252.627.378 1.107.378Zm4.277-1.609c0 .395.04.709.12.944.08.233.194.487.342.757a.494.494 0 0 1 .073.241c0 .111-.068.216-.203.314l-.664.444a.522.522 0 0 1-.276.092.438.438 0 0 1-.314-.148 2.42 2.42 0 0 1-.378-.49 8.184 8.184 0 0 1-.322-.618c-.824.973-1.856 1.46-3.098 1.46-.885 0-1.586-.253-2.102-.758-.516-.506-.774-1.184-.774-2.034 0-.9.32-1.624.959-2.173.638-.548 1.5-.823 2.58-.823.356 0 .729.028 1.116.084.387.055.79.132 1.207.231v-.777c0-.801-.165-1.365-.496-1.691-.333-.327-.904-.49-1.715-.49a4.87 4.87 0 0 0-1.135.138 8.036 8.036 0 0 0-1.134.36c-.172.075-.295.12-.368.139a.752.752 0 0 1-.167.028c-.147 0-.22-.112-.22-.334V2.21c0-.173.024-.296.073-.37.05-.074.147-.147.295-.221a6.957 6.957 0 0 1 1.328-.482 6.47 6.47 0 0 1 1.64-.202c1.255 0 2.174.286 2.757.86.584.572.876 1.439.876 2.597v3.44Z"/>
		<path fill="#EC912D" d="M81.81 13.536c4.462 2.605 9.981 4.172 15.68 4.172 3.845 0 8.071-.8 11.96-2.454.587-.249 1.079.388.505.813-3.47 2.567-8.498 3.933-12.83 3.933-6.068 0-11.534-2.25-15.67-5.995-.325-.295-.035-.696.355-.469Zm31.069-.255c.38.472-.1 3.744-1.96 5.305-.287.24-.56.112-.433-.205.419-1.049 1.357-3.397.913-3.967-.445-.569-2.933-.269-4.052-.135-.339.04-.391-.256-.086-.471 1.986-1.4 5.24-.995 5.618-.527Z"/>
	</g>
</svg>