<?xml version="1.0" encoding="UTF-8"?>
<svg width="24px" height="24px" viewBox="0 0 24 24" version="1.1"
    xmlns="http://www.w3.org/2000/svg"
    xmlns:xlink="http://www.w3.org/1999/xlink">
    <g id="UI-Kit" stroke="none" stroke-width="1" fill-rule="evenodd">
        <g id="Icons" transform="translate(-232.000000, -112.000000)">
            <g id="Row-1" transform="translate(40.000000, 112.000000)">
                <g id="Icon/close" transform="translate(197.999850, 5.999750)">
                    <path d="M7.41425,6.00025 L11.70725,1.70725 C12.09825,1.31625 12.09825,0.68425 11.70725,0.29325 C11.31625,-0.09775 10.68425,-0.09775 10.29325,0.29325 L6.00025,4.58625 L1.70725,0.29325 C1.31625,-0.09775 0.68425,-0.09775 0.29325,0.29325 C-0.09775,0.68425 -0.09775,1.31625 0.29325,1.70725 L4.58625,6.00025 L0.29325,10.29325 C-0.09775,10.68425 -0.09775,11.31625 0.29325,11.70725 C0.48825,11.90225 0.74425,12.00025 1.00025,12.00025 C1.25625,12.00025 1.51225,11.90225 1.70725,11.70725 L6.00025,7.41425 L10.29325,11.70725 C10.48825,11.90225 10.74425,12.00025 11.00025,12.00025 C11.25625,12.00025 11.51225,11.90225 11.70725,11.70725 C12.09825,11.31625 12.09825,10.68425 11.70725,10.29325 L7.41425,6.00025 Z" id="🎨-Icon-Сolor"></path>
                </g>
            </g>
        </g>
    </g>
</svg>