<?xml version="1.0" encoding="UTF-8"?>
<svg width="24px" height="24px" viewBox="0 0 24 24" version="1.1"
    xmlns="http://www.w3.org/2000/svg"
    xmlns:xlink="http://www.w3.org/1999/xlink">
    <g id="UI-kit" stroke="none" stroke-width="1" fill="none" fill-rule="evenodd">
        <g id="Icons" transform="translate(-88.000000, -361.000000)" fill="#fff">
            <g id="Group-3" transform="translate(40.000000, 361.000000)">
                <g id="Icon/youtube" transform="translate(51.000000, 5.500000)">
                    <path d="M17.6238725,2.0340599 C17.4168574,1.23340885 16.8069192,0.602841146 16.0324829,0.388848958 C14.6287614,0 9,0 9,0 C9,0 3.37127152,0 1.96751713,0.388848958 C1.19308082,0.602875 0.583142599,1.23340885 0.376127471,2.0340599 C0,3.48528646 0,6.51313542 0,6.51313542 C0,6.51313542 0,9.54098438 0.376127471,10.9922109 C0.583142599,11.792862 1.19308082,12.3971589 1.96751713,12.611151 C3.37127152,13 9,13 9,13 C9,13 14.6287285,13 16.0324829,12.611151 C16.8069192,12.3971589 17.4168574,11.792862 17.6238725,10.9922109 C18,9.54098437 18,6.51313542 18,6.51313542 C18,6.51313542 18,3.48528646 17.6238725,2.0340599 Z M7.15907817,9.26219531 L7.15907817,3.76407552 L11.8636049,6.51320312 L7.15907817,9.26219531 Z" id="🎨-Icon-Сolor"></path>
                </g>
            </g>
        </g>
    </g>
</svg>