<?xml version="1.0" encoding="UTF-8"?>
<svg width="24px" height="24px" viewBox="0 0 24 24" version="1.1"
    xmlns="http://www.w3.org/2000/svg"
    xmlns:xlink="http://www.w3.org/1999/xlink">
    <g id="UI-Kit" stroke="none" stroke-width="1" fill-rule="evenodd">
        <g id="Icons" transform="translate(-184.000000, -112.000000)">
            <g id="Row-1" transform="translate(40.000000, 112.000000)">
                <g id="Icon/shuffle" transform="translate(146.000000, 3.000000)">
                    <path d="M15.2674529,10.2034225 C14.9004026,10.5671268 14.9005983,11.1562307 15.2674529,11.5201289 L16.8303515,13.0342248 L12.9915846,13.0342248 L10.7215859,10.0338103 L9.58286916,11.5852271 L11.8063017,14.5239573 C11.9467826,14.7567281 12.2246138,14.8963905 12.5220107,14.8963905 L16.8303515,14.8963905 L15.3030623,16.410564 C14.9362076,16.7742682 14.9362076,17.3633721 15.3030623,17.7272703 C15.4842396,17.9107712 15.7229396,18 15.9655528,18 C16.208166,18 16.4456922,17.9078616 16.6292173,17.7260289 L19.7244922,14.6231953 C20.0913468,14.259491 20.0913468,13.6688353 19.7244922,13.3053251 L16.5955645,10.2021811 C16.2287099,9.83851566 15.6345032,9.83971831 15.2674529,10.2034225 Z M0.939186996,4.96487885 L4.53925381,4.96487885 L6.80925246,7.96529334 L7.94796925,6.41387654 L5.76014604,3.47514628 C5.58405581,3.24237557 5.30622457,3.10271314 5.00882774,3.10271314 L0.939186996,3.10271314 C0.420699112,3.10271314 3.91311611e-05,3.52170043 3.91311611e-05,4.033796 C3.91311611e-05,4.54589157 0.420699112,4.96487885 0.939186996,4.96487885 Z M15.3030623,6.47905234 C14.9362076,6.84275658 14.9362076,7.43186046 15.3030623,7.79575867 C15.4842396,7.97925959 15.7229396,8.06848836 15.9655528,8.06848836 C16.208166,8.06848836 16.4460835,7.97879405 16.6296086,7.79692253 L19.7248835,4.69408892 C20.0917381,4.33038468 20.091699,3.739729 19.7248052,3.37621873 L16.6295304,0.273385123 C16.2626757,-0.0903191162 15.6684691,-0.0915217649 15.3018101,0.27214368 C14.9351511,0.635836281 14.9349554,1.2249518 15.3018101,1.58885001 L16.8303124,3.10267435 L12.5219715,3.10267435 C12.2260617,3.10267435 11.9483087,3.24086256 11.7710446,3.47487472 L4.53921468,13.0342248 L0.939147865,13.0342248 C0.420659981,13.0342248 0,13.4532121 0,13.9653076 C0,14.4774032 0.420659981,14.8963905 0.939147865,14.8963905 L5.00878861,14.8963905 C5.30469845,14.8963905 5.58245143,14.7582023 5.75971559,14.5241901 L12.9915455,4.96484005 L16.8303124,4.96484005 L15.3030623,6.47905234 Z" id="🎨-Icon-Сolor"></path>
                </g>
            </g>
        </g>
    </g>
</svg>