<?xml version="1.0" encoding="UTF-8"?>
<svg width="24px" height="24px" viewBox="0 0 24 24" version="1.1" xmlns="http://www.w3.org/2000/svg" xmlns:xlink="http://www.w3.org/1999/xlink">
    <g id="UI-Kit" stroke="none" stroke-width="1" fill="none" fill-rule="evenodd">
        <g id="Icons" transform="translate(-40, -304)" fill="#1D1D1F">
            <g id="Row-5" transform="translate(40, 304)">
                <g id="Icon/edit" transform="translate(3.9997, 4.022)">
                    <path d="M12.018896,6.65670201 L9.32389602,3.96170201 L11.271896,2.01270201 L13.965896,4.70670201 L12.018896,6.65670201 Z M5.07989602,13.602702 L2.10289602,13.873702 L2.36689602,10.917702 L7.98389602,5.30070201 L10.679896,7.99670201 L5.07989602,13.602702 Z M15.403896,3.31570201 L15.402896,3.31470201 L12.664896,0.576702006 C11.923896,-0.162297994 10.650896,-0.197297994 9.94889602,0.507702006 L0.952896021,9.50370201 C0.626896021,9.82870201 0.424896021,10.260702 0.382896021,10.717702 L0.00389602103,14.887702 C-0.022103979,15.182702 0.082896021,15.474702 0.292896021,15.684702 C0.481896021,15.873702 0.736896021,15.977702 0.999896021,15.977702 C1.03089602,15.977702 1.06089602,15.976702 1.09089602,15.973702 L5.26089602,15.594702 C5.71889602,15.552702 6.14989602,15.351702 6.47489602,15.026702 L15.471896,6.02970201 C16.199896,5.29970201 16.168896,4.08170201 15.403896,3.31570201 L15.403896,3.31570201 Z" id="🎨-Icon-Сolor"></path>
                </g>
            </g>
        </g>
    </g>
</svg>