<?xml version="1.0" encoding="UTF-8"?>
<svg width="24px" height="24px" viewBox="0 0 24 24" version="1.1"
    xmlns="http://www.w3.org/2000/svg"
    xmlns:xlink="http://www.w3.org/1999/xlink">
    <g id="UI-Kit" stroke="none" stroke-width="1" fill-rule="evenodd">
        <g id="Icons" transform="translate(-40.000000, -112.000000)">
            <g id="Row-1" transform="translate(40.000000, 112.000000)">
                <g id="Icon/people-arrows" transform="translate(1.000000, 2.220000)">
                    <path d="M4.27777778,13.1045139 L4.27777778,18.6388889 C4.27777778,19.146875 4.69027778,19.5555556 5.19444444,19.5555556 C5.69861111,19.5555556 6.11111111,19.146875 6.11111111,18.6388889 L6.11111111,14.9412847 L4.2934375,13.1236111 C4.28923611,13.1159722 4.28541667,13.1121528 4.27777778,13.1045139 Z M1.83333333,8.55555556 C1.83333333,8.21860417 2.10749306,7.94444444 2.44444444,7.94444444 L4.88888889,7.94444444 C5.22584028,7.94444444 5.5,8.21860417 5.5,8.55555556 L5.5,8.892125 L6.73788194,7.65424306 C6.83000694,7.56196528 6.93080208,7.48198611 7.03568403,7.4091875 C6.62291667,6.64201389 5.82083333,6.11111111 4.88888889,6.11111111 L2.44444444,6.11111111 C1.09427083,6.11111111 0,7.20729167 0,8.55555556 L0,12.2222222 C0,12.8971181 0.547326389,13.4444444 1.18784722,13.4444444 L1.22222222,18.6388889 C1.22222222,19.146875 1.6328125,19.5555556 2.13888889,19.5555556 C2.64496528,19.5555556 3.05555556,19.1449653 3.05555556,18.6388889 L3.05555556,11.6111111 L1.83333333,11.6111111 L1.83333333,8.55555556 Z M3.66666667,4.88888889 C5.01798611,4.88888889 6.11111111,3.79576389 6.11111111,2.44444444 C6.11111111,1.093125 5.01875,0 3.66666667,0 C2.31458333,0 1.22222222,1.093125 1.22222222,2.44444444 C1.22222222,3.79576389 2.31572917,4.88888889 3.66666667,4.88888889 Z M18.3333333,4.88888889 C19.6846528,4.88888889 20.7777778,3.79576389 20.7777778,2.44444444 C20.7777778,1.093125 19.6846528,0 18.3333333,0 C16.9820139,0 15.8888889,1.093125 15.8888889,2.44444444 C15.8888889,3.79576389 16.98125,4.88888889 18.3333333,4.88888889 Z M15.8888889,14.9416667 L15.8888889,18.6388889 C15.8888889,19.1449653 16.2994792,19.5555556 16.8055556,19.5555556 C17.3116319,19.5555556 17.7222222,19.1449653 17.7222222,18.6388889 L17.7222222,13.1045139 C17.7164549,13.1103958 17.7125208,13.1175382 17.7066771,13.1233819 L15.8888507,14.9416285 L15.8888889,14.9416667 Z M19.5555556,6.11111111 L17.1111111,6.11111111 C16.1776389,6.11111111 15.3763194,6.64048611 14.9645833,7.40934028 C15.0694653,7.48213889 15.1702604,7.56211806 15.2623854,7.65439583 L16.5,8.89166667 L16.5,8.55555556 C16.5,8.21860417 16.7741597,7.94444444 17.1111111,7.94444444 L19.5555556,7.94444444 C19.8925069,7.94444444 20.1666667,8.21860417 20.1666667,8.55555556 L20.1666667,11.6111111 L18.9444444,11.6111111 L18.9444444,18.6388889 C18.9444444,19.1449653 19.3550347,19.5555556 19.8611111,19.5555556 C20.3671875,19.5555556 20.7777778,19.146875 20.7777778,18.6388889 L20.7777778,13.4444444 C21.4526736,13.4444444 22,12.8971181 22,12.2222222 L22,8.55555556 C22,7.20729167 20.9038194,6.11111111 19.5555556,6.11111111 Z M16.809375,10.9618056 L14.3649306,8.51736111 C14.0068576,8.15928819 13.426875,8.15928819 13.0686111,8.51736111 C12.7103472,8.87543403 12.7105382,9.45541667 13.0686111,9.81368056 L13.9829861,10.6944444 L8.01701389,10.6944444 L8.89663194,9.81482639 C9.25470486,9.45675347 9.25470486,8.87677083 8.89663194,8.51850694 C8.53855903,8.16024306 7.95857639,8.16043403 7.6003125,8.51850694 L5.15586806,10.9629514 C4.79779514,11.3210243 4.79779514,11.9010069 5.15586806,12.2592708 L7.6003125,14.7037153 C7.78020833,14.884375 8.01319444,14.9722222 8.25,14.9722222 C8.48680556,14.9722222 8.71902778,14.8826944 8.89815972,14.7036771 C9.25623264,14.3456042 9.25623264,13.7656215 8.89815972,13.4073576 L8.01701389,12.5277778 L13.9791667,12.5277778 L13.0995486,13.4073958 C12.7414757,13.7654688 12.7414757,14.3454514 13.0995486,14.7037153 C13.2802083,14.884375 13.5131944,14.9722222 13.75,14.9722222 C13.9868056,14.9722222 14.2190278,14.8826944 14.3981597,14.7036771 L16.8426042,12.2592326 C17.1989583,11.9013889 17.1989583,11.3208333 16.809375,10.9618056 Z" id="🎨-Icon-Сolor"></path>
                </g>
            </g>
        </g>
    </g>
</svg>