<?xml version="1.0" encoding="UTF-8"?>
<svg width="40px" height="40px" viewBox="0 0 40 40" version="1.1"
    xmlns="http://www.w3.org/2000/svg"
    xmlns:xlink="http://www.w3.org/1999/xlink">
    <defs>
        <linearGradient x1="9.02056208e-15%" y1="100%" x2="100%" y2="7.2858386e-15%" id="linearGradient-1">
            <stop stop-color="#005276" offset="0%"></stop>
            <stop stop-color="#007FAA" offset="49.6546329%"></stop>
            <stop stop-color="#007FAA" offset="100%"></stop>
        </linearGradient>
        <linearGradient x1="100%" y1="7.2858386e-15%" x2="9.02056208e-15%" y2="100%" id="linearGradient-2">
            <stop stop-color="#7CE8F4" stop-opacity="0.367105551" offset="0%"></stop>
            <stop stop-color="#7CE8F4" stop-opacity="0" offset="100%"></stop>
        </linearGradient>
        <linearGradient x1="100%" y1="7.2858386e-15%" x2="9.02056208e-15%" y2="100%" id="linearGradient-3">
            <stop stop-color="#38EF7D" stop-opacity="0.549524694" offset="0%"></stop>
            <stop stop-color="#38EF7D" stop-opacity="0" offset="100%"></stop>
        </linearGradient>
        <path d="M14.2500742,8.3125 C17.530543,8.3125 20.1875742,10.9695313 20.1875742,14.25 C20.1875742,17.5304687 17.530543,20.1875 14.2500742,20.1875 C10.9696055,20.1875 8.31257422,17.5304687 8.31257422,14.25 C8.31257422,10.9695313 10.9696055,8.3125 14.2500742,8.3125 Z M14.2500742,9.5 C11.6301523,9.5 9.50007422,11.6300781 9.50007422,14.25 C9.50007422,16.8699219 11.6301523,19 14.2500742,19 C16.8699961,19 19.0000742,16.8699219 19.0000742,14.25 C19.0000742,11.6300781 16.8699961,9.5 14.2500742,9.5 Z" id="path-4"></path>
    </defs>
    <g id="UI-kit" stroke="none" stroke-width="1" fill="none" fill-rule="evenodd">
        <g id="Icons" transform="translate(-168.000000, -112.000000)">
            <g id="Group" transform="translate(173.750000, 113.000000)">
                <path d="M28.5000742,14.25 C28.5000742,20.7367187 19.8164805,32.2851562 16.0090586,37.05 C15.096168,38.1855469 13.4039805,38.1855469 12.4910898,37.05 C8.61687109,32.2851562 0,20.7367187 0,14.25 C0,6.37984375 6.37991797,0 14.2500742,0 C22.1172617,0 28.5000742,6.37984375 28.5000742,14.25 L28.5000742,14.25 Z M14.2500742,1.1875 C7.03601172,1.1875 1.18757422,7.0359375 1.18757422,14.25 C1.18757422,15.6378906 1.66034766,17.4042969 2.51015234,19.415625 C3.35179297,21.4121094 4.52222266,23.5570313 5.82773047,25.6722656 C8.43874609,29.8433594 11.5262461,33.9402344 13.4188242,36.3078125 C13.8567148,36.8496094 14.6434336,36.8496094 15.0813242,36.3078125 C16.9739023,33.9402344 20.0614023,29.8433594 22.6739023,25.6722656 C23.9801523,23.5570313 25.1453867,21.4121094 25.9914805,19.415625 C26.8375742,17.4042969 27.3125742,15.6378906 27.3125742,14.25 C27.3125742,7.0359375 21.4641367,1.1875 14.2500742,1.1875 L14.2500742,1.1875 Z" id="Shape" fill="#232F3E"></path>
                <g id="Combined-Shape">
                    <use fill="url(#linearGradient-1)" xlink:href="#path-4"></use>
                    <use fill="url(#linearGradient-2)" xlink:href="#path-4"></use>
                    <use fill="url(#linearGradient-3)" xlink:href="#path-4"></use>
                </g>
            </g>
        </g>
    </g>
</svg>