<?xml version="1.0" encoding="UTF-8"?>
<svg width="40px" height="40px" viewBox="0 0 40 40" version="1.1"
    xmlns="http://www.w3.org/2000/svg"
    xmlns:xlink="http://www.w3.org/1999/xlink">
    <defs>
        <linearGradient x1="21.8583506%" y1="100%" x2="78.1416494%" y2="7.2858386e-15%" id="linearGradient-1">
            <stop stop-color="#005276" offset="0%"></stop>
            <stop stop-color="#007FAA" offset="49.6546329%"></stop>
            <stop stop-color="#007FAA" offset="100%"></stop>
        </linearGradient>
        <linearGradient x1="78.1416494%" y1="7.2858386e-15%" x2="21.8583506%" y2="100%" id="linearGradient-2">
            <stop stop-color="#7CE8F4" stop-opacity="0.367105551" offset="0%"></stop>
            <stop stop-color="#7CE8F4" stop-opacity="0" offset="100%"></stop>
        </linearGradient>
        <linearGradient x1="78.1416494%" y1="7.2858386e-15%" x2="21.8583506%" y2="100%" id="linearGradient-3">
            <stop stop-color="#38EF7D" stop-opacity="0.549524694" offset="0%"></stop>
            <stop stop-color="#38EF7D" stop-opacity="0" offset="100%"></stop>
        </linearGradient>
        <path d="M7.125,19 C11.0585938,19 14.25,22.1246094 14.25,26.125 C14.25,29.8730469 9.81171875,35.0980469 7.94140625,37.1390625 C7.55889423,37.5558293 7.28178162,37.8408469 7.17425395,37.9501988 L7.13060103,37.9943787 L7.10298369,37.9776905 C7.02314904,37.8965329 6.7311268,37.597506 6.30785156,37.1390625 C4.43605469,35.0980469 0,29.8730469 0,26.125 C0,22.1246094 3.18992188,19 7.125,19 Z M7.125,20.1875 C3.84601562,20.1875 1.1875,22.8445313 1.1875,26.125 C1.1875,27.0453125 1.54078125,28.1882813 2.17535156,29.45 C2.80027344,30.7042969 3.64636719,31.9734375 4.5125,33.13125 C5.37640625,34.2816406 6.24253906,35.2910156 6.89417969,36.0183594 C6.97507813,36.1074219 7.05152344,36.1890625 7.125,36.2707031 C7.19847656,36.1890625 7.27492187,36.1074219 7.35582031,36.0183594 C8.00820313,35.2910156 8.8765625,34.2816406 9.7375,33.13125 C10.6058594,31.9734375 11.4519531,30.7042969 12.0753906,29.45 C12.70625,28.1882813 13.0625,27.0453125 13.0625,26.125 C13.0625,22.8445313 10.4054687,20.1875 7.125,20.1875 Z M7.125,23.75 C8.43867188,23.75 9.5,24.8113281 9.5,26.125 C9.5,27.4386719 8.43867188,28.5 7.125,28.5 C5.81355469,28.5 4.75,27.4386719 4.75,26.125 C4.75,24.8113281 5.81355469,23.75 7.125,23.75 Z M7.125,24.9375 C6.46890625,24.9375 5.9375,25.471875 5.9375,26.125 C5.9375,26.778125 6.46890625,27.3125 7.125,27.3125 C7.778125,27.3125 8.3125,26.778125 8.3125,26.125 C8.3125,25.471875 7.778125,24.9375 7.125,24.9375 Z" id="path-4"></path>
    </defs>
    <g id="UI-kit" stroke="none" stroke-width="1" fill="none" fill-rule="evenodd">
        <g id="Icons" transform="translate(-232.000000, -112.000000)">
            <g id="Icon/Route" transform="translate(233.000000, 113.000000)">
                <path d="M28.5,7.125 C28.5,5.81355469 29.5613281,4.75 30.875,4.75 C32.1886719,4.75 33.25,5.81355469 33.25,7.125 C33.25,8.43867188 32.1886719,9.5 30.875,9.5 C29.5613281,9.5 28.5,8.43867188 28.5,7.125 Z M30.875,8.3125 C31.528125,8.3125 32.0625,7.778125 32.0625,7.125 C32.0625,6.46890625 31.528125,5.9375 30.875,5.9375 C30.221875,5.9375 29.6875,6.46890625 29.6875,7.125 C29.6875,7.778125 30.221875,8.3125 30.875,8.3125 Z M30.875,19 L24.34375,19 C22.0503906,19 20.1875,20.8628906 20.1875,23.15625 C20.1875,25.4496094 22.0503906,27.3125 24.34375,27.3125 L32.65625,27.3125 C35.6101563,27.3125 38,29.7023438 38,32.65625 C38,35.6101563 35.6101563,38 32.65625,38 L11.875,38 C11.5484375,38 11.28125,37.7328125 11.28125,37.40625 C11.28125,37.0796875 11.5484375,36.8125 11.875,36.8125 L32.65625,36.8125 C34.9496094,36.8125 36.8125,34.9496094 36.8125,32.65625 C36.8125,30.3628906 34.9496094,28.5 32.65625,28.5 L24.34375,28.5 C21.3898437,28.5 19,26.1101562 19,23.15625 C19,20.2023438 21.3898437,17.8125 24.34375,17.8125 L29.6949219,17.8125 C27.7578125,15.5859375 23.75,10.6875 23.75,7.125 C23.75,3.18992187 26.8746094,0 30.875,0 C34.8085938,0 38,3.18992187 38,7.125 C38,10.8730469 33.5617187,16.0980469 31.6914062,18.1390625 C31.1941406,18.6808594 30.875,19 30.875,19 Z M35.8253906,10.45 C36.45625,9.18828125 36.8125,8.0453125 36.8125,7.125 C36.8125,3.84601563 34.1554687,1.1875 30.875,1.1875 C27.5945312,1.1875 24.9375,3.84601563 24.9375,7.125 C24.9375,8.0453125 25.29375,9.18828125 25.9246094,10.45 C26.5480469,11.7042969 27.3941406,12.9734375 28.2625,14.13125 C29.1234375,15.2816406 29.9917969,16.2910156 30.6449219,17.0183594 C30.6597656,17.1074219 30.8007813,17.1890625 30.875,17.2707031 C30.8824219,17.1890625 31.0234375,17.1074219 31.1050781,17.0183594 C31.7582031,16.2910156 32.6265625,15.2816406 33.4875,14.13125 C34.3558594,12.9734375 35.2019531,11.7042969 35.8253906,10.45 L35.8253906,10.45 L35.8253906,10.45 Z" id="Shape" fill="#232F3E"></path>
                <g id="Combined-Shape">
                    <use fill="url(#linearGradient-1)" xlink:href="#path-4"></use>
                    <use fill="url(#linearGradient-2)" xlink:href="#path-4"></use>
                    <use fill="url(#linearGradient-3)" xlink:href="#path-4"></use>
                </g>
            </g>
        </g>
    </g>
</svg>