<?xml version="1.0" encoding="UTF-8"?>
<svg width="24px" height="24px" viewBox="0 0 24 24" version="1.1"
    xmlns="http://www.w3.org/2000/svg"
    xmlns:xlink="http://www.w3.org/1999/xlink">
    <g id="UI-Kit" stroke="none" stroke-width="1" fill-rule="evenodd">
        <g id="Icons" transform="translate(-88.000000, -112.000000)">
            <g id="Row-1" transform="translate(40.000000, 112.000000)">
                <g id="Icon/map" transform="translate(49.000000, 3.445000)">
                    <path d="M21.6027778,0.161994435 C21.8510417,0.333105546 22,0.61536249 22,0.916716657 L22,13.75005 C22,14.0976194 21.7631944,14.471925 21.4079861,14.6056055 L14.9913194,17.05005 C14.7965278,17.1264389 14.5788194,17.1302583 14.3763889,17.0653278 L7.35243056,14.7240083 L1.24284722,17.05005 C0.961354167,17.1569944 0.644722222,17.1188 0.396458333,16.9507444 C0.148270833,16.7788694 0,16.4962305 0,16.1944944 L0,3.3611611 C0,2.97921666 0.234895833,2.6392861 0.590486111,2.50445971 L7.00868056,0.0600152681 C7.20347222,-0.0152277875 7.42118056,-0.0198111208 7.62361111,0.047029157 L14.6475694,2.38796666 L20.7586806,0.0600152681 C21.0375,-0.0473111208 21.3545139,-0.00911667636 21.6027778,0.161994435 L21.6027778,0.161994435 Z M1.83333333,14.8653278 L6.41666667,13.1198417 L6.41666667,2.24702916 L1.83333333,3.99136943 L1.83333333,14.8653278 Z M13.75,4.02192499 L8.25,2.18859166 L8.25,13.0892861 L13.75,14.9226194 L13.75,4.02192499 Z M15.5833333,14.8653278 L20.1666667,13.1198417 L20.1666667,2.24702916 L15.5833333,3.99136943 L15.5833333,14.8653278 Z" id="🎨-Icon-Сolor"></path>
                </g>
            </g>
        </g>
    </g>
</svg>