<?xml version="1.0" encoding="UTF-8"?>
<svg width="24px" height="24px" viewBox="0 0 24 24" version="1.1"
    xmlns="http://www.w3.org/2000/svg"
    xmlns:xlink="http://www.w3.org/1999/xlink">
    <g id="UI-kit" stroke="none" stroke-width="1" fill="none" fill-rule="evenodd">
        <g id="Icons" transform="translate(-184.000000, -265.000000)" fill="#1D1D1F">
            <g id="Group" transform="translate(40.000000, 265.000000)">
                <g id="Icon/book-open" transform="translate(147.000000, 3.999342)">
                    <path d="M16,12.402958 L10,13.750958 L10,3.59795802 L16,2.25095802 L16,12.402958 Z M2,2.25095802 L8,3.59795802 L8,13.750958 L2,12.402958 L2,2.25095802 Z M17.625,0.218958016 C17.387,0.0299580158 17.077,-0.0420419842 16.78,0.0249580158 L9,1.77295802 L1.22,0.0249580158 C0.922,-0.0430419842 0.613,0.0299580158 0.375,0.218958016 C0.138,0.409958016 0,0.696958016 0,1.00095802 L0,13.202958 C0,13.670958 0.324,14.075958 0.78,14.177958 L8.78,15.975958 C8.854,15.992958 8.927,16.000958 9,16.000958 C9.073,16.000958 9.146,15.992958 9.22,15.975958 L17.22,14.177958 C17.676,14.075958 18,13.670958 18,13.202958 L18,1.00095802 C18,0.696958016 17.862,0.409958016 17.625,0.218958016 L17.625,0.218958016 Z" id="🎨-Icon-Сolor"></path>
                </g>
            </g>
        </g>
    </g>
</svg>