<?xml version="1.0" encoding="UTF-8"?>
<svg width="24px" height="24px" viewBox="0 0 24 24" version="1.1"
    xmlns="http://www.w3.org/2000/svg"
    xmlns:xlink="http://www.w3.org/1999/xlink">
    <g id="UI-Kit" stroke="none" stroke-width="1" fill-rule="evenodd">
        <g id="Icons" transform="translate(-472.000000, -320.000000)">
            <g id="Row-5" transform="translate(40.000000, 320.000000)">
                <g id="Icon/drone-solid" transform="translate(434.000000, 2.000000)">
                    <path d="M8.7109375,4.96875 L6.703125,3.46484375 C6.33984375,2.53515625 5.43359375,1.875 4.375,1.875 C2.99609375,1.875 1.875,2.99609375 1.875,4.375 C1.875,5.43359375 2.53515625,6.33984375 3.46484375,6.703125 L4.96875,8.7109375 C4.7734375,8.73828125 4.57421875,8.75 4.375,8.75 C1.95703125,8.75 0,6.79296875 0,4.375 C0,1.95703125 1.95703125,8.8817842e-16 4.375,8.8817842e-16 C6.79296875,8.8817842e-16 8.75,1.95703125 8.75,4.375 C8.75,4.578125 8.73828125,4.7734375 8.7109375,4.96875 Z M6.7734375,5.078125 L8.328125,6.24609375 L8.33203125,6.25 L11.6640625,6.25 L11.6679687,6.24609375 L13.2226562,5.078125 L14.3828125,4.20703125 C14.4648438,3.59765625 14.9921875,3.125 15.625,3.125 C16.3164062,3.125 16.875,3.68359375 16.875,4.375 C16.875,5.0078125 16.4023438,5.53515625 15.7890625,5.61328125 L14.9179687,6.7734375 L13.75,8.328125 L13.7460937,8.33203125 L13.7460937,11.6640625 L13.75,11.6679688 L14.9179687,13.2226563 L15.7890625,14.3828125 C16.4023438,14.4648438 16.875,14.9882813 16.875,15.6210938 C16.875,16.3125 16.3164062,16.8710938 15.625,16.8710938 C14.9921875,16.8710938 14.4648438,16.3984375 14.3867188,15.7851562 L13.2265625,14.9140625 L11.671875,13.7460938 L11.6679687,13.7421875 L8.33203125,13.7421875 L8.328125,13.7460938 L6.7734375,14.9140625 L5.61328125,15.7851562 C5.53515625,16.4023438 5.0078125,16.875 4.375,16.875 C3.68359375,16.875 3.125,16.3164062 3.125,15.625 C3.125,14.9921875 3.59765625,14.4648438 4.2109375,14.3867188 L5.08203125,13.2265625 L6.25,11.671875 L6.25390625,11.6679687 L6.25390625,8.33203125 L6.25,8.328125 L5.08203125,6.7734375 L4.2109375,5.61328125 C3.59765625,5.53515625 3.125,5.0078125 3.125,4.375 C3.125,3.68359375 3.68359375,3.125 4.375,3.125 C5.0078125,3.125 5.53515625,3.59765625 5.61328125,4.2109375 L6.7734375,5.08203125 L6.7734375,5.078125 Z M8.75,15.625 C8.75,18.0429688 6.79296875,20 4.375,20 C1.95703125,20 0,18.0429688 0,15.625 C0,13.2070312 1.95703125,11.25 4.375,11.25 C4.578125,11.25 4.7734375,11.2617188 4.96875,11.2890625 L3.46484375,13.296875 C2.53515625,13.6601562 1.875,14.5664062 1.875,15.625 C1.875,17.0039062 2.99609375,18.125 4.375,18.125 C5.43359375,18.125 6.33984375,17.4648438 6.703125,16.5351562 L8.7109375,15.03125 C8.73828125,15.2265625 8.75,15.4257812 8.75,15.625 Z M11.2890625,4.96875 C11.2617188,4.7734375 11.25,4.57421875 11.25,4.375 C11.25,1.95703125 13.2070312,0 15.625,0 C18.0429688,0 20,1.95703125 20,4.375 C20,6.79296875 18.0429688,8.75 15.625,8.75 C15.421875,8.75 15.2265625,8.73828125 15.03125,8.7109375 L16.5351562,6.70703125 C17.4648438,6.34375 18.125,5.4375 18.125,4.37890625 C18.125,3 17.0039062,1.87890625 15.625,1.87890625 C14.5664062,1.87890625 13.6601562,2.5390625 13.296875,3.46875 L11.2890625,4.96875 Z M11.25,15.625 C11.25,15.421875 11.2617188,15.2265625 11.2890625,15.03125 L13.2929688,16.5351562 C13.65625,17.4648438 14.5625,18.125 15.6210938,18.125 C17,18.125 18.1210938,17.0039062 18.1210938,15.625 C18.1210938,14.5664062 17.4609375,13.6601562 16.53125,13.296875 L15.03125,11.2890625 C15.2265625,11.2617188 15.4257812,11.25 15.625,11.25 C18.0429688,11.25 20,13.2070312 20,15.625 C20,18.0429688 18.0429688,20 15.625,20 C13.2070312,20 11.25,18.0429688 11.25,15.625 Z" id="🎨-Icon-Сolor"></path>
                </g>
            </g>
        </g>
    </g>
</svg>