<?xml version="1.0" encoding="UTF-8"?>
<svg width="24px" height="24px" viewBox="0 0 24 24" version="1.1"
    xmlns="http://www.w3.org/2000/svg"
    xmlns:xlink="http://www.w3.org/1999/xlink">
    <g id="UI-Kit" stroke="none" stroke-width="1" fill="none" fill-rule="evenodd">
        <g id="Icons" transform="translate(-376.000000, -112.000000)" fill="#8E8E93">
            <g id="Row-1" transform="translate(40.000000, 112.000000)">
                <g id="Icon/compass" transform="translate(338.000000, 2.000000)">
                    <path d="M6.34375,14.8671875 C5.55078125,15.1601562 4.83984375,14.4140625 5.1328125,13.65625 L7.30078125,8.01953125 C7.42578125,7.6875 7.6875,7.42578125 8.01953125,7.30078125 L13.65625,5.1328125 C14.4140625,4.83984375 15.1601562,5.55078125 14.8671875,6.34375 L12.6992188,11.9804688 C12.5742188,12.3125 12.3125,12.5742188 11.9804688,12.6992188 L6.34375,14.8671875 Z M8.71484375,10 C8.71484375,10.6914062 9.30859375,11.25 9.96484375,11.25 C10.6914062,11.25 11.25,10.6914062 11.25,10 C11.25,9.30859375 10.6914062,8.75 9.96484375,8.75 C9.30859375,8.75 8.71484375,9.30859375 8.71484375,10 Z M20,10 C20,15.5234375 15.5234375,20 10,20 C4.4765625,20 0,15.5234375 0,10 C0,4.4765625 4.4765625,0 10,0 C15.5234375,0 20,4.4765625 20,10 Z M10,1.875 C5.51171875,1.875 1.875,5.51171875 1.875,10 C1.875,14.4882812 5.51171875,18.125 10,18.125 C14.4882812,18.125 18.125,14.4882812 18.125,10 C18.125,5.51171875 14.4882812,1.875 10,1.875 Z" id="🎨-Icon-Сolor"></path>
                </g>
            </g>
        </g>
    </g>
</svg>
