<?xml version="1.0" encoding="UTF-8"?>
<svg width="24px" height="24px" viewBox="0 0 24 24" version="1.1"
    xmlns="http://www.w3.org/2000/svg"
    xmlns:xlink="http://www.w3.org/1999/xlink">
    <g id="UI-Kit" stroke="none" stroke-width="1" fill-rule="evenodd">
        <g id="Icons" transform="translate(-472, -256)">
            <g id="Row-4" transform="translate(40, 256)">
                <g id="Icon/language" transform="translate(433, 6)">
                    <path d="M2.2,0 C0.9865625,0 0,0.971614583 0,2.16666667 L0,10.8333333 C0,12.0283854 0.9865625,13 2.2,13 L9.35,13 L10.45,13 L11,13 L19.8,13 C21.0134375,13 22,12.0283854 22,10.8333333 L22,2.16666667 C22,0.971614583 21.0134375,0 19.8,0 L11,0 L10.45,0 L9.35,0 L2.2,0 Z M19.8,1.625 C20.1025,1.625 20.35,1.86875 20.35,2.16666667 L20.35,10.8333333 C20.35,11.13125 20.1025,11.375 19.8,11.375 L11,11.375 L11,1.625 L19.8,1.625 Z M6.1290625,3.78828125 L8.3290625,8.66328125 C8.48375,9.00520833 8.325625,9.4046875 7.9784375,9.55703125 C7.63125,9.709375 7.225625,9.55364583 7.0709375,9.21171875 L6.765,8.53125 L4.235,8.53125 L3.9290625,9.21171875 C3.774375,9.55364583 3.36875,9.70598958 3.0215625,9.55703125 C2.674375,9.40807292 2.5196875,9.00520833 2.6709375,8.66328125 L4.8709375,3.78828125 C4.9809375,3.54453125 5.2284375,3.38541667 5.5,3.38541667 C5.7715625,3.38541667 6.0190625,3.54453125 6.1290625,3.78828125 Z M6.153125,7.17708333 L5.5,5.728125 L4.846875,7.17708333 L6.153125,7.17708333 Z M15.675,3.38541667 C15.296875,3.38541667 14.9875,3.69010417 14.9875,4.0625 L14.9875,4.19791667 L13.2,4.19791667 C12.821875,4.19791667 12.5125,4.50260417 12.5125,4.875 C12.5125,5.24739583 12.821875,5.55208333 13.2,5.55208333 L15.675,5.55208333 L16.8815625,5.55208333 C16.630625,6.11744792 16.2834375,6.63203125 15.8571875,7.07552083 L15.84,7.05859375 L15.338125,6.56432292 C15.07,6.30026042 14.6334375,6.30026042 14.3653125,6.56432292 C14.0971875,6.82838542 14.0971875,7.25833333 14.3653125,7.52239583 L14.78125,7.93203125 C14.5784375,8.05390625 14.3653125,8.165625 14.1453125,8.26380208 L14.0215625,8.31796875 C13.674375,8.4703125 13.5196875,8.86979167 13.6709375,9.21171875 C13.8221875,9.55364583 14.23125,9.70598958 14.5784375,9.55703125 L14.7021875,9.50286458 C15.1146875,9.3234375 15.5065625,9.10338542 15.8709375,8.84609375 C16.01875,8.94765625 16.1665625,9.04244792 16.32125,9.13385417 L16.9709375,9.51640625 C17.2975,9.709375 17.7203125,9.60442708 17.9128125,9.2828125 C18.1053125,8.96119792 18.0021875,8.54479167 17.675625,8.35520833 L17.0259375,7.97265625 C16.995,7.95572917 16.9640625,7.93541667 16.933125,7.91848958 C17.524375,7.28203125 17.9884375,6.53385417 18.294375,5.70442708 L18.35625,5.55208333 L18.425,5.55208333 C18.803125,5.55208333 19.1125,5.24739583 19.1125,4.875 C19.1125,4.50260417 18.803125,4.19791667 18.425,4.19791667 L17.875,4.19791667 L16.3625,4.19791667 L16.3625,4.0625 C16.3625,3.69010417 16.053125,3.38541667 15.675,3.38541667 Z" id="🎨-Icon-Сolor"></path>
                </g>
            </g>
        </g>
    </g>
</svg>