<?xml version="1.0" encoding="UTF-8"?>
<svg width="24px" height="24px" viewBox="0 0 24 24" version="1.1"
    xmlns="http://www.w3.org/2000/svg"
    xmlns:xlink="http://www.w3.org/1999/xlink">
    <g id="UI-Kit" stroke="none" stroke-width="1" fill-rule="evenodd">
        <g id="Icons" transform="translate(-40.000000, -272.000000)">
            <g id="Row-4" transform="translate(40.000000, 272.000000)">
                <g id="Icon/map-solid" transform="translate(2.000000, 4.500000)">
                    <path d="M13.3333333,14.9952906 L6.66666667,13.1257247 L6.66666667,0.00470939457 L13.3333333,1.87427529 L13.3333333,14.9952906 Z M14.4444444,14.9544258 L14.4444444,1.79254564 L18.8576389,0.0591958324 C19.40625,-0.155344517 20,0.239682158 20,0.81860056 L20,12.2198877 C20,12.5536171 19.7916667,12.8532925 19.4756944,12.9792924 L14.4444444,14.9510204 L14.4444444,14.9544258 Z M0.524305556,2.02070759 L5.55555556,0.0489796253 L5.55555556,13.2074544 L1.14236111,14.9408042 C0.59375,15.1553445 0,14.7603178 0,14.1813994 L0,2.78011232 C0,2.44638289 0.208333333,2.14670748 0.524305556,2.02070759 Z" id="🎨-Icon-Сolor"></path>
                </g>
            </g>
        </g>
    </g>
</svg>