<?xml version="1.0" encoding="UTF-8"?>
<svg width="24px" height="24px" viewBox="0 0 24 24" version="1.1" xmlns="http://www.w3.org/2000/svg" xmlns:xlink="http://www.w3.org/1999/xlink">
    <g id="UI-Kit" stroke="none" stroke-width="1" fill="none" fill-rule="evenodd">
        <g id="Icons" transform="translate(-328, -256)" fill="#1D1D1F">
            <g id="Row-4" transform="translate(40, 256)">
                <g id="Icon/bell" transform="translate(292, 2)">
                    <path d="M8,0 C7.36779403,0 6.85702876,0.530664063 6.85702876,1.1875 L6.85702876,1.85175781 C4.26748454,2.27851563 2.28514379,4.60898437 2.28514379,7.421875 L2.28514379,8.66132813 C2.28514379,10.3460938 1.7315171,11.9826172 0.720701905,13.2962891 L0.18850592,13.9902344 C-0.0186576174,14.2574219 -0.0579472538,14.6248047 0.0849241514,14.9328125 C0.227795557,15.2408203 0.527825508,15.4375 0.85642974,15.4375 L15.1435703,15.4375 C15.4721745,15.4375 15.7722044,15.2408203 15.9150758,14.9328125 C16.0579473,14.6248047 16.0186576,14.2574219 15.8114941,13.9902344 L15.2792981,13.3 C14.2684829,11.9826172 13.7148562,10.3460937 13.7148562,8.66132812 L13.7148562,7.421875 C13.7148562,4.60898437 11.7325155,2.27851563 9.14297124,1.85175781 L9.14297124,1.1875 C9.14297124,0.530664063 8.63220597,0 8,0 Z M8,3.5625 L8.28574281,3.5625 C10.3359475,3.5625 12.0003993,5.29179687 12.0003993,7.421875 L12.0003993,8.66132813 C12.0003993,10.4388672 12.4968775,12.171875 13.418398,13.65625 L2.58160196,13.65625 C3.50312252,12.171875 3.99960065,10.4388672 3.99960065,8.66132813 L3.99960065,7.421875 C3.99960065,5.29179687 5.66405252,3.5625 7.71425719,3.5625 L8,3.5625 Z M10.2859425,16.625 L8,16.625 L5.71405752,16.625 C5.71405752,17.2558594 5.95336712,17.8607422 6.38198134,18.3060547 C6.81059555,18.7513672 7.39279653,19 8,19 C8.60720347,19 9.18940445,18.7513672 9.61801866,18.3060547 C10.0466329,17.8607422 10.2859425,17.2558594 10.2859425,16.625 Z" id="🎨-Icon-Сolor"></path>
                </g>
            </g>
        </g>
    </g>
</svg>