<?xml version="1.0" encoding="UTF-8"?>
<svg width="24px" height="24px" viewBox="0 0 24 24" version="1.1"
    xmlns="http://www.w3.org/2000/svg"
    xmlns:xlink="http://www.w3.org/1999/xlink">
    <g id="UI-Kit" stroke="none" stroke-width="1" fill-rule="evenodd">
        <g id="Icons" transform="translate(-280.000000, -224.000000)">
            <g id="Row-3" transform="translate(40.000000, 224.000000)">
                <g id="Icon/diamond-turn-right-solid" transform="translate(241.000000, 1.000000)">
                    <path d="M9.78398437,0.502734375 C10.4542969,-0.167578125 11.5414062,-0.167578125 12.2160156,0.502734375 L21.4972656,9.78398437 C22.1675781,10.4542969 22.1675781,11.5414062 21.4972656,12.2160156 L12.2160156,21.4972656 C11.5457031,22.1675781 10.4585937,22.1675781 9.78398437,21.4972656 L0.502734375,12.2160156 C-0.167578125,11.5457031 -0.167578125,10.4585938 0.502734375,9.78398438 L9.78398437,0.502734375 Z M13.5480469,6.38945313 C13.3503906,6.19179688 13.0539062,6.1359375 12.8003906,6.2390625 C12.546875,6.3421875 12.375,6.59570313 12.375,6.875 L12.375,9.28125 L9.625,9.28125 C8.10820312,9.28125 6.875,10.5144531 6.875,12.03125 L6.875,14.09375 C6.875,14.6652344 7.33476562,15.125 7.90625,15.125 C8.47773437,15.125 8.9375,14.6652344 8.9375,14.09375 L8.9375,12.03125 C8.9375,11.653125 9.246875,11.34375 9.625,11.34375 L12.375,11.34375 L12.375,13.75 C12.375,14.0292969 12.5425781,14.2785156 12.8003906,14.3859375 C13.0582031,14.4933594 13.3546875,14.4332031 13.5480469,14.2355469 L16.9855469,10.7980469 C17.2519531,10.5316406 17.2519531,10.0933594 16.9855469,9.82695313 L13.5480469,6.38945313 Z" id="🎨-Icon-Сolor"></path>
                </g>
            </g>
        </g>
    </g>
</svg>