<?xml version="1.0" encoding="UTF-8"?>
<svg width="24px" height="24px" viewBox="0 0 24 24" version="1.1" xmlns="http://www.w3.org/2000/svg" xmlns:xlink="http://www.w3.org/1999/xlink">
    <defs>
        <path d="M9.5999094,1.18748738 L9.5999094,1.89997981 C12.3373861,2.45030599 14.3998686,4.84643287 14.3998686,7.71866797 L14.3998686,8.4163168 C14.3998686,10.1641498 15.0486131,11.8451866 16.2186031,13.1514227 L16.4961008,13.4594273 C16.8110981,13.8119626 16.8898474,14.3092229 16.6948491,14.7359762 C16.4998507,15.1627295 16.0723544,15.4373359 15.5998584,15.4373359 L1.19998082,15.4373359 C0.727484837,15.4373359 0.298900981,15.1627295 0.105327627,14.7359762 C-0.0882457273,14.3092229 -0.0108201356,13.8119626 0.303138445,13.4594273 L0.581236081,13.1514227 C1.75272612,11.8451866 2.39997062,10.1641498 2.39997062,8.4163168 L2.39997062,7.71866797 C2.39997062,4.84643287 4.42870337,2.45030599 7.19992981,1.89997981 L7.19992981,1.18748738 C7.19992981,0.531771692 7.73617525,0 8.3999196,0 C9.06366396,0 9.5999094,0.531771692 9.5999094,1.18748738 L9.5999094,1.18748738 Z M8.3999196,18.9997981 C7.76242502,18.9997981 7.15118022,18.7511679 6.70118405,18.3058601 C6.25118787,17.8605524 5.99994001,17.2222779 5.99994001,16.6248233 L10.7998992,16.6248233 C10.7998992,17.2222779 10.5486513,17.8605524 10.0986552,18.3058601 C9.64865899,18.7511679 9.00366447,18.9997981 8.3999196,18.9997981 Z" id="icon-bell-solid"></path>
    </defs>
    <g id="UI-Kit" stroke="none" stroke-width="1" fill="none" fill-rule="evenodd">
        <g id="Icons" transform="translate(-280, -400)">
            <g id="Row-7" transform="translate(40, 400)">
                <g id="Icon/bell-solid" transform="translate(243.6, 3)">
                    <mask id="mask-2" fill="white">
                        <use xlink:href="#icon-bell-solid"></use>
                    </mask>
                    <use id="🎨-Icon-Сolor" fill="#1D1D1F" xlink:href="#icon-bell-solid"></use>
                </g>
            </g>
        </g>
    </g>
</svg>