<?xml version="1.0" encoding="UTF-8"?>
<svg width="24px" height="24px" viewBox="0 0 24 24" version="1.1"
    xmlns="http://www.w3.org/2000/svg"
    xmlns:xlink="http://www.w3.org/1999/xlink">
    <g id="UI-Kit" stroke="none" stroke-width="1" fill-rule="evenodd">
        <g id="Icons" transform="translate(-88.000000, -208.000000)">
            <g id="Row-3" transform="translate(40.000000, 208.000000)">
                <g id="Icon/map-pin" transform="translate(53.815000, 1.000000)">
                    <path d="M7.21875,20.96875 C7.21875,21.5402344 6.75898437,22 6.1875,22 C5.61601562,22 5.15625,21.5402344 5.15625,20.96875 L5.15625,12.2890625 C2.23007813,11.7992188 0,9.25546875 0,6.1875 C0,2.77019531 2.77019531,0 6.1875,0 C9.60351562,0 12.375,2.77019531 12.375,6.1875 C12.375,9.25546875 10.1449219,11.7992188 7.21875,12.2890625 L7.21875,20.96875 Z M6.1875,2.0625 C3.87148437,2.0625 2.0625,3.90929687 2.0625,6.1875 C2.0625,8.46484375 3.87148437,10.3125 6.1875,10.3125 C8.46484375,10.3125 10.3125,8.46484375 10.3125,6.1875 C10.3125,3.90929687 8.46484375,2.0625 6.1875,2.0625 Z" id="🎨-Icon-Сolor"></path>
                </g>
            </g>
        </g>
    </g>
</svg>