<?xml version="1.0" encoding="UTF-8"?>
<svg width="24px" height="24px" viewBox="0 0 24 24" version="1.1"
    xmlns="http://www.w3.org/2000/svg"
    xmlns:xlink="http://www.w3.org/1999/xlink">
    <g id="UI-Kit" stroke="none" stroke-width="1" fill-rule="evenodd">
        <g id="Icons" transform="translate(-424.000000, -272.000000)">
            <g id="Row-4" transform="translate(40.000000, 272.000000)">
                <g id="Icon/plus-circle-fill" transform="translate(386.000000, 2.000000)">
                    <path d="M10,7 C9.448,7 9,6.552 9,6 C9,5.448 9.448,5 10,5 C10.552,5 11,5.448 11,6 C11,6.552 10.552,7 10,7 L10,7 Z M11,14 C11,14.552 10.552,15 10,15 C9.448,15 9,14.552 9,14 L9,9 C9,8.448 9.448,8 10,8 C10.552,8 11,8.448 11,9 L11,14 Z M10,0 C4.477,0 0,4.477 0,10 C0,15.523 4.477,20 10,20 C15.522,20 20,15.523 20,10 C20,4.477 15.522,0 10,0 L10,0 Z" id="🎨-Icon-Сolor"></path>
                </g>
            </g>
        </g>
    </g>
</svg>