<?xml version="1.0" encoding="UTF-8"?>
<svg width="44px" height="44px" viewBox="0 0 44 44" version="1.1"
    xmlns="http://www.w3.org/2000/svg"
    xmlns:xlink="http://www.w3.org/1999/xlink">
    <defs>
        <circle id="path-icon-bus-inactive" cx="12" cy="12" r="12"></circle>
        <filter x="-62.5%" y="-62.5%" width="225.0%" height="225.0%" filterUnits="objectBoundingBox" id="filter-icon-bus-inactive">
            <feOffset dx="0" dy="0" in="SourceAlpha" result="shadowOffsetOuter1"></feOffset>
            <feGaussianBlur stdDeviation="5" in="shadowOffsetOuter1" result="shadowBlurOuter1"></feGaussianBlur>
            <feColorMatrix values="0 0 0 0 0   0 0 0 0 0   0 0 0 0 0  0 0 0 0.202633304 0" type="matrix" in="shadowBlurOuter1"></feColorMatrix>
        </filter>
    </defs>
    <g id="UI-Kit" stroke="none" stroke-width="1" fill="none" fill-rule="evenodd">
        <g id="Map-markers" transform="translate(-102, -230)">
            <g id="Map/Blip/Simulation-Regular" transform="translate(112, 240)">
                <g id="Oval">
                    <use fill="black" fill-opacity="1" filter="url(#filter-icon-bus-inactive)" xlink:href="#path-icon-bus-inactive"></use>
                    <use fill="#8E8E93" fill-rule="evenodd" xlink:href="#path-icon-bus-inactive"></use>
                </g>
                <circle id="Oval" fill="#FFFFFF" cx="12" cy="12" r="10"></circle>
                <g id="Icon" transform="translate(6.8958, 6.1667)" fill="#8E8E93">
                    <path d="M5.10416667,-8.8817842e-16 C7.94791667,-8.8817842e-16 10.2083333,0.802083333 10.2083333,1.82291667 L10.2083333,2.1875 L10.2083333,9.47916667 C10.2083333,9.88248698 9.88248698,10.2083333 9.47916667,10.2083333 L9.47916667,10.9375 C9.47916667,11.3408203 9.15332031,11.6666667 8.75,11.6666667 L8.02083333,11.6666667 C7.61751302,11.6666667 7.29166667,11.3408203 7.29166667,10.9375 L7.29166667,10.2083333 L2.91666667,10.2083333 L2.91666667,10.9375 C2.91666667,11.3408203 2.59082031,11.6666667 2.1875,11.6666667 L1.45833333,11.6666667 C1.05501302,11.6666667 0.729166667,11.3408203 0.729166667,10.9375 L0.729166667,10.2083333 C0.325846354,10.2083333 0,9.88248698 0,9.47916667 L0,2.1875 L0,1.82291667 C0,0.802083333 2.26041667,-8.8817842e-16 5.10416667,-8.8817842e-16 Z M1.45833333,2.91666667 L1.45833333,5.83333333 C1.45833333,6.23665365 1.78417969,6.5625 2.1875,6.5625 L8.02083333,6.5625 C8.42415365,6.5625 8.75,6.23665365 8.75,5.83333333 L8.75,2.91666667 C8.75,2.51334635 8.42415365,2.1875 8.02083333,2.1875 L2.1875,2.1875 C1.78417969,2.1875 1.45833333,2.51334635 1.45833333,2.91666667 Z M1.82291667,9.11458333 C2.22623698,9.11458333 2.55208333,8.78873698 2.55208333,8.38541667 C2.55208333,7.98209635 2.22623698,7.65625 1.82291667,7.65625 C1.41959635,7.65625 1.09375,7.98209635 1.09375,8.38541667 C1.09375,8.78873698 1.41959635,9.11458333 1.82291667,9.11458333 Z M8.38541667,9.11458333 C8.78873698,9.11458333 9.11458333,8.78873698 9.11458333,8.38541667 C9.11458333,7.98209635 8.78873698,7.65625 8.38541667,7.65625 C7.98209635,7.65625 7.65625,7.98209635 7.65625,8.38541667 C7.65625,8.78873698 7.98209635,9.11458333 8.38541667,9.11458333 Z" id="🎨-Icon-Сolor"></path>
                </g>
            </g>
        </g>
    </g>
</svg>