<?xml version="1.0" encoding="UTF-8"?>
<svg width="24px" height="24px" viewBox="0 0 24 24" version="1.1"
    xmlns="http://www.w3.org/2000/svg"
    xmlns:xlink="http://www.w3.org/1999/xlink">
    <g id="UI-kit" stroke="none" stroke-width="1" fill="none" fill-rule="evenodd">
        <g id="Icons" transform="translate(-136.000000, -313.000000)" fill="#8E8E93">
            <g id="Group-2" transform="translate(40.000000, 313.000000)">
                <g id="Icon/code-solid" transform="translate(97.000000, 3.200000)">
                    <path d="M13.5016406,0.0431105816 C12.9172656,-0.125326918 12.3088281,0.214985582 12.1403906,0.799360582 L7.74039063,16.1993606 C7.57195312,16.7837356 7.91226563,17.3921731 8.49664063,17.5606106 C9.08101563,17.7290481 9.68945312,17.3887356 9.85789063,16.8043606 L14.2578906,1.40436058 C14.4263281,0.819985582 14.0860156,0.211548082 13.5016406,0.0431105816 Z M16.2722656,4.17154808 C15.8425781,4.60123558 15.8425781,5.29904808 16.2722656,5.72873558 L19.3419531,8.80186058 L16.2688281,11.8749856 C15.8391406,12.3046731 15.8391406,13.0024856 16.2688281,13.4321731 C16.6985156,13.8618606 17.3963281,13.8618606 17.8260156,13.4321731 L21.6760156,9.58217308 C22.1057031,9.15248558 22.1057031,8.45467308 21.6760156,8.02498558 L17.8260156,4.17498558 C17.3963281,3.74529808 16.6985156,3.74529808 16.2688281,4.17498558 L16.2722656,4.17154808 Z M5.72945313,4.17154808 C5.29976563,3.74186058 4.60195313,3.74186058 4.17226563,4.17154808 L0.322265625,8.02154808 C-0.107421875,8.45123558 -0.107421875,9.14904808 0.322265625,9.57873558 L4.17226563,13.4287356 C4.60195313,13.8584231 5.29976563,13.8584231 5.72945313,13.4287356 C6.15914063,12.9990481 6.15914063,12.3012356 5.72945313,11.8715481 L2.65632813,8.80186058 L5.72945313,5.72873558 C6.15914063,5.29904808 6.15914063,4.60123558 5.72945313,4.17154808 Z" id="🎨-Icon-Сolor"></path>
                </g>
            </g>
        </g>
    </g>
</svg>