<?xml version="1.0" encoding="UTF-8"?>
<svg width="40px" height="40px" viewBox="0 0 40 40" version="1.1"
    xmlns="http://www.w3.org/2000/svg"
    xmlns:xlink="http://www.w3.org/1999/xlink">
    <defs>
        <linearGradient x1="42.5534553%" y1="100%" x2="57.4465447%" y2="7.2858386e-15%" id="linearGradient-1">
            <stop stop-color="#005276" offset="0%"></stop>
            <stop stop-color="#007FAA" offset="49.6546329%"></stop>
            <stop stop-color="#007FAA" offset="100%"></stop>
        </linearGradient>
        <linearGradient x1="57.4465447%" y1="7.2858386e-15%" x2="42.5534553%" y2="100%" id="linearGradient-2">
            <stop stop-color="#7CE8F4" stop-opacity="0.367105551" offset="0%"></stop>
            <stop stop-color="#7CE8F4" stop-opacity="0" offset="100%"></stop>
        </linearGradient>
        <linearGradient x1="57.4465447%" y1="7.2858386e-15%" x2="42.5534553%" y2="100%" id="linearGradient-3">
            <stop stop-color="#38EF7D" stop-opacity="0.549524694" offset="0%"></stop>
            <stop stop-color="#38EF7D" stop-opacity="0" offset="100%"></stop>
        </linearGradient>
        <path d="M24.7908394,0.0395062144 C25.1456778,0.166605476 25.3324768,0.559063124 25.2037556,0.914534257 L14.4869128,30.9455117 C14.3649244,31.3007258 13.9685878,31.4871131 13.6123042,31.3605742 C13.2297224,31.2306816 13.0050267,30.8121336 13.1959316,30.4863551 L23.9127821,0.4583031 C24.0339008,0.100116157 24.4292314,-0.086940056 24.7908394,0.0395062144 Z" id="path-4"></path>
    </defs>
    <g id="UI-kit" stroke="none" stroke-width="1" fill="none" fill-rule="evenodd">
        <g id="Icons" transform="translate(-424.000000, -112.000000)">
            <g id="Icon/Code" transform="translate(424.800000, 116.800210)">
                <path d="M29.904453,7.4549944 L38.1841277,15.2031546 C38.3220459,15.3317154 38.4,15.511811 38.4,15.7006424 C38.4,15.8894737 38.3220459,16.0695693 38.1844131,16.1978636 L29.904453,23.9462903 C29.6303762,24.2102878 29.1920134,24.1969993 28.9343145,23.9236492 C28.6681394,23.650455 28.6815649,23.2126094 28.9591556,22.9538531 L36.707,15.6997898 L28.959462,8.44771789 C28.7093546,8.21457957 28.6734692,7.83661084 28.8611824,7.56591392 L28.9320477,7.48000047 C29.1920134,7.20428537 29.6303762,7.19099688 29.904453,7.4549944 Z M9.46568553,7.4776355 C9.73186064,7.75082976 9.71843511,8.18867531 9.44053799,8.44771789 L1.69,15.6997898 L9.44053799,22.9535668 C9.6906454,23.1867052 9.72653082,23.5646739 9.53881763,23.8353708 L9.46795227,23.9212843 C9.2079866,24.1969993 8.7696238,24.2102878 8.49762747,23.9482657 L0.217499967,16.198511 C0.0787468172,16.0698953 0,15.8896121 0,15.7006424 C0,15.5116726 0.0787468172,15.3313894 0.216794136,15.2034312 L8.49554699,7.4549944 C8.7696238,7.19099688 9.2079866,7.20428537 9.46568553,7.4776355 Z" id="Shape" fill="#232F3E"></path>
                <g id="Path">
                    <use fill="url(#linearGradient-1)" xlink:href="#path-4"></use>
                    <use fill="url(#linearGradient-2)" xlink:href="#path-4"></use>
                    <use fill="url(#linearGradient-3)" xlink:href="#path-4"></use>
                </g>
            </g>
        </g>
    </g>
</svg>