<?xml version="1.0" encoding="UTF-8"?>
<svg width="24px" height="24px" viewBox="0 0 24 24" version="1.1"
    xmlns="http://www.w3.org/2000/svg"
    xmlns:xlink="http://www.w3.org/1999/xlink">
    <g id="UI-Kit" stroke="none" stroke-width="1" fill-rule="evenodd">
        <g id="Icons" transform="translate(-280.000000, -112.000000)">
            <g id="Row-1" transform="translate(40.000000, 112.000000)">
                <g id="Icon/arrow-down-arrow-up" transform="translate(242.720000, 2.375000)">
                    <path d="M6.18708958,15.5961577 L6.18708958,9.03490772 C6.18708958,8.46514209 5.72732396,8.00279834 5.15583958,8.00279834 C4.58435521,8.00279834 4.12458958,8.46514209 4.12458958,9.03490772 L4.12458958,15.5970171 L1.78837865,13.0640093 C1.58560911,12.8437944 1.3088474,12.7323335 1.03126927,12.7323335 C0.781534895,12.7323335 0.530253645,12.8223101 0.33173802,13.0062593 C-0.0872072924,13.3919897 -0.112558855,14.0452437 0.27398802,14.4646187 L4.36031615,18.9376655 C4.74969896,19.3596187 5.48566771,19.3596187 5.87496458,18.9376655 L9.96129271,14.4646187 C10.3480115,14.0453296 10.322488,13.3921187 9.90354271,13.0062593 C9.56013646,12.6141265 8.90701146,12.6442046 8.52458958,13.0266265 L6.18708958,15.5961577 Z M14.2007615,0.316470215 C13.8113786,-0.10548291 13.0754099,-0.10548291 12.686113,0.316427246 L8.52458958,4.78947412 C8.13787083,5.20876318 8.16339427,5.86197412 8.58233958,6.2478335 C8.78098411,6.43178272 9.0322224,6.52175928 9.28187083,6.52175928 C9.55983568,6.52175928 9.8365974,6.41029834 10.0389802,6.1900835 L12.3745896,3.659396 L12.3745896,10.2215054 C12.3745896,10.7886929 12.8386521,11.2527554 13.4058396,11.2527554 C13.9730271,11.2527554 14.4370896,10.7904116 14.4370896,10.220646 L14.4370896,3.659396 L16.7733005,6.19240381 C17.1573552,6.61169287 17.8097068,6.6397085 18.2299411,6.25015381 C18.6480271,5.86369287 18.6738083,5.21056787 18.2870896,4.78947412 L14.2007615,0.316470215 Z" id="🎨-Icon-Сolor"></path>
                </g>
            </g>
        </g>
    </g>
</svg>