<?xml version="1.0" encoding="UTF-8"?>
<svg width="24px" height="24px" viewBox="0 0 24 24" version="1.1"
    xmlns="http://www.w3.org/2000/svg"
    xmlns:xlink="http://www.w3.org/1999/xlink">
    <g id="UI-kit" stroke="none" stroke-width="1" fill="none" fill-rule="evenodd">
        <g id="Icons" transform="translate(-328, -521)" fill="#8e8e93">
            <g id="Group-4" transform="translate(40, 377)">
                <g id="4" transform="translate(0, 144)">
                    <g id="Icon/dollar-solid" transform="translate(294, 1)">
                        <path d="M6.00625216,0 C6.74400761,0 7.34004731,0.614453125 7.34004731,1.375 L7.34004731,2.90898438 C7.40673707,2.91757813 7.46925872,2.92617188 7.53594848,2.9390625 C7.97776812,3.0078125 9.29072272,3.22695313 9.832577,3.36875 C10.5453238,3.55351563 10.9788072,4.30117188 10.7995785,5.04023438 C10.6203498,5.77929688 9.89509864,6.221875 9.17818375,6.03710938 C8.79054954,5.93398437 7.61097445,5.73632812 7.13997804,5.66328125 C5.80201478,5.45703125 4.65578458,5.56015625 3.86801182,5.87382813 C3.10524772,6.17460938 2.78847137,6.6 2.70510917,7.07695313 C2.62591509,7.53671875 2.68426862,7.79882813 2.7592946,7.96210938 C2.83848869,8.13398438 2.99270875,8.32734375 3.29698077,8.53789063 C3.97221456,9.00195313 5.01007391,9.30703125 6.35220528,9.68515625 L6.46891236,9.71953125 C7.65265555,10.0503906 9.10315777,10.4585938 10.1785301,11.1933594 C10.7662336,11.5972656 11.3164241,12.1429688 11.6582091,12.8992187 C12.0041622,13.6640625 12.0791882,14.5234375 11.9208,15.4386719 C11.6332004,17.0714844 10.5411557,18.1628906 9.18651997,18.734375 C8.61548892,18.975 7.99444056,19.1296875 7.3358792,19.2070312 L7.3358792,20.625 C7.3358792,21.3855469 6.7398395,22 6.00208405,22 C5.26432861,22 4.66828891,21.3855469 4.66828891,20.625 L4.66828891,19.1253906 C4.65161647,19.1210938 4.63077592,19.1210938 4.61410348,19.1167969 L4.60576726,19.1167969 L4.60576726,19.1167969 C3.58874846,18.9535156 1.91733641,18.5023438 0.791946757,17.9867188 C0.116712963,17.6773438 -0.183390945,16.8652344 0.116712963,16.1734375 C0.416816872,15.4816406 1.20458963,15.1679688 1.87565532,15.4773438 C2.74679027,15.8769531 4.18062006,16.2679688 5.01007391,16.4054688 C6.33970095,16.6074219 7.43591384,16.4914063 8.17783739,16.1777344 C8.88224795,15.88125 9.20319241,15.4515625 9.29489083,14.9359375 C9.37408491,14.4761719 9.31573138,14.2140625 9.2407054,14.0507813 C9.16151131,13.8789063 9.00729125,13.6855469 8.70301923,13.475 C8.02778544,13.0109375 6.98992609,12.7058594 5.64779472,12.3277344 L5.53108764,12.2933594 C4.34734445,11.9625 2.89684223,11.5542969 1.82146989,10.8195313 C1.2337664,10.415625 0.683575901,9.86992188 0.341790895,9.11367188 C-0.00416222183,8.34882813 -0.0791881989,7.48945313 0.0791999749,6.57421875 C0.379303883,4.90273437 1.54637464,3.83710937 2.92185088,3.29570313 C3.46370516,3.08085938 4.05557676,2.94335938 4.67245702,2.86601563 L4.67245702,1.375 C4.67245702,0.614453125 5.26849672,0 6.00625216,0 Z" id="🎨-Icon-Сolor"></path>
                    </g>
                </g>
            </g>
        </g>
    </g>
</svg>