<svg xmlns="http://www.w3.org/2000/svg" width="24" height="24">
	<path fill="#FFFFFF" fill-rule="evenodd" d="M19.944 8.048c.013.178.013.356.013.533 0 5.419-4.125 11.663-11.663 11.663-2.322 0-4.48-.673-6.294-1.84.33.038.647.05.99.05 1.916 0 3.68-.647 5.089-1.751a4.106 4.106 0 0 1-3.833-2.843c.254.038.508.064.774.064.368 0 .736-.051 1.079-.14a4.1 4.1 0 0 1-3.287-4.023v-.05c.546.304 1.18.495 1.853.52a4.096 4.096 0 0 1-1.827-3.414c0-.761.203-1.46.558-2.068a11.651 11.651 0 0 0 8.452 4.289 4.627 4.627 0 0 1-.102-.939A4.097 4.097 0 0 1 15.846 4a4.09 4.09 0 0 1 2.994 1.294 8.07 8.07 0 0 0 2.602-.99 4.088 4.088 0 0 1-1.802 2.26A8.217 8.217 0 0 0 22 5.928a8.811 8.811 0 0 1-2.056 2.12Z"/>
</svg>