<?xml version="1.0" encoding="UTF-8"?>
<svg width="40px" height="40px" viewBox="0 0 40 40" version="1.1"
    xmlns="http://www.w3.org/2000/svg"
    xmlns:xlink="http://www.w3.org/1999/xlink">
    <defs>
        <linearGradient x1="9.02056208e-15%" y1="71.9635699%" x2="100%" y2="28.0364301%" id="linearGradient-1">
            <stop stop-color="#005276" offset="0%"></stop>
            <stop stop-color="#007FAA" offset="49.6546329%"></stop>
            <stop stop-color="#007FAA" offset="100%"></stop>
        </linearGradient>
        <linearGradient x1="100%" y1="28.0364301%" x2="9.02056208e-15%" y2="71.9635699%" id="linearGradient-2">
            <stop stop-color="#7CE8F4" stop-opacity="0.367105551" offset="0%"></stop>
            <stop stop-color="#7CE8F4" stop-opacity="0" offset="100%"></stop>
        </linearGradient>
        <linearGradient x1="100%" y1="28.0364301%" x2="9.02056208e-15%" y2="71.9635699%" id="linearGradient-3">
            <stop stop-color="#38EF7D" stop-opacity="0.549524694" offset="0%"></stop>
            <stop stop-color="#38EF7D" stop-opacity="0" offset="100%"></stop>
        </linearGradient>
        <path d="M35.5260417,9.71111111 L27.7809028,12.528125 C27.8798611,12.3104167 27.9788194,12.0861111 28.0777778,11.8618056 C28.1635417,11.6506944 28.2559028,11.4263889 28.3416667,11.2020833 L35.1697917,8.72152778 C36.5420139,8.22013889 38,9.24270833 38,10.7072917 L38,27.9194444 C38,28.8034722 37.4458333,29.6017361 36.6079861,29.9052083 L26.0392361,33.7447917 C25.9336806,33.784375 25.8149306,33.7909722 25.7027778,33.7513889 L12.1520833,29.5819444 L2.83284722,32.9729167 C1.45600694,33.4743056 0,32.4517361 0,30.9871528 L0,13.775 C0,12.8909722 0.555354167,12.0927083 1.389375,11.7892361 L9.05798611,9.00520833 C9.11736111,9.34826389 9.18993056,9.69791667 9.28229167,10.0409722 L1.75024306,12.7854167 C1.33329861,12.9371528 1.05555556,13.3329861 1.05555556,13.775 L1.05555556,30.9871528 C1.05555556,31.7194444 1.78322917,32.2340278 2.47197917,31.9833333 L11.6111111,28.6583333 L11.6111111,19.4684028 C11.6111111,19.2375 11.8486111,18.940625 12.1388889,18.940625 C12.4291667,18.940625 12.6666667,19.2375 12.6666667,19.4684028 L12.6666667,28.6385417 L25.3333333,32.5375 L25.3333333,19.4684028 C25.3333333,19.2375 25.5708333,18.940625 25.8611111,18.940625 C26.1513889,18.940625 26.3888889,19.2375 26.3888889,19.4684028 L26.3888889,32.4979167 L36.2517361,28.9090278 C36.6673611,28.7572917 36.9444444,28.3614583 36.9444444,27.9194444 L36.9444444,10.7072917 C36.9444444,9.975 36.159375,9.46041667 35.5260417,9.71111111 L35.5260417,9.71111111 Z" id="path-4"></path>
    </defs>
    <g id="UI-kit" stroke="none" stroke-width="1" fill="none" fill-rule="evenodd">
        <g id="Icons" transform="translate(-104.000000, -112.000000)">
            <g id="Icon/Map" transform="translate(105.000000, 115.000000)">
                <g id="Shape">
                    <use fill="url(#linearGradient-1)" xlink:href="#path-4"></use>
                    <use fill="url(#linearGradient-2)" xlink:href="#path-4"></use>
                    <use fill="url(#linearGradient-3)" xlink:href="#path-4"></use>
                </g>
                <path d="M19,1.42108547e-14 C23.3739583,1.42108547e-14 26.9166667,3.5446875 26.9166667,7.91666667 C26.9166667,11.51875 22.0940972,17.9378472 19.9763889,20.5239583 C19.4684028,21.2166667 18.5315972,21.2166667 18.0236111,20.5239583 C15.9059028,17.9378472 11.0833333,11.51875 11.0833333,7.91666667 C11.0833333,3.5446875 14.6260417,1.42108547e-14 19,1.42108547e-14 Z M19,1.05555556 C15.2131944,1.05555556 12.1388889,4.12722222 12.1388889,7.91666667 C12.1388889,8.609375 12.3763889,9.53298611 12.8447917,10.6347222 C13.3,11.7166667 13.9399306,12.8909722 14.6590278,14.0586806 C16.0378472,16.3875 17.7993056,18.6173611 18.8482639,19.8642361 C18.9274306,20.0291667 19.0725694,20.0291667 19.1517361,19.8642361 C20.2006944,18.6173611 21.9027778,16.3875 23.3409722,14.0586806 C24.0600694,12.8909722 24.7,11.7166667 25.1552083,10.6347222 C25.6236111,9.53298611 25.8611111,8.609375 25.8611111,7.91666667 C25.8611111,4.12722222 22.7868056,1.05555556 19,1.05555556 Z" id="Combined-Shape" fill="#232F3E"></path>
            </g>
        </g>
    </g>
</svg>