<svg width="24px" height="24px" viewBox="0 0 24 24" version="1.1"
    xmlns="http://www.w3.org/2000/svg">
    <g id="UI-kit" stroke="none" stroke-width="1" fill-rule="evenodd" transform="matrix(-1, 0, 0, -1, 24, 23)">
        <g id="Icons" transform="translate(-136.000000, -418.000000)">
            <g id="Group-3" transform="translate(40.000000, 418.000000)">
                <g id="Icon/arrow-ios-up" transform="translate(99.500000, 7.000000)">
                    <path d="M0.292219854,7.40685703 L7.82809582,0.328592301 C8.04458959,0.119839545 8.2811948,-8.8817842e-16 8.51780001,-8.8817842e-16 C8.75440522,-8.8817842e-16 8.9898274,0.0857819194 9.17201342,0.258544154 L16.7078894,7.33680889 C17.0862211,7.69060615 17.0985246,8.2777426 16.7362031,8.6473123 C16.376366,9.01939475 15.7747973,9.03149468 15.3989894,8.67506868 L8.51776057,2.24598636 L1.60100158,8.74051654 C1.22637666,9.09690388 0.623822057,9.08480395 0.263787795,8.71272149 C-0.0985336516,8.34616712 -0.0862301807,7.75856677 0.29218042,7.40677972 L0.292219854,7.40685703 Z" id="🎨-Icon-Сolor"></path>
                </g>
            </g>
        </g>
    </g>
</svg>