<?xml version="1.0" encoding="UTF-8"?>
<svg width="24px" height="24px" viewBox="0 0 24 24" version="1.1"
    xmlns="http://www.w3.org/2000/svg"
    xmlns:xlink="http://www.w3.org/1999/xlink">
    <g id="UI-Kit" stroke="none" stroke-width="1" fill-rule="evenodd">
        <g id="Icons" transform="translate(-376.000000, -208.000000)">
            <g id="Row-3" transform="translate(40.000000, 208.000000)">
                <g id="Icon/pause" transform="translate(342.500000, 3.750000)">
                    <path d="M1.03125,0 C0.461914062,0 0,0.461914062 0,1.03125 L0,15.46875 C0,16.0402344 0.461914062,16.5 1.03125,16.5 C1.60058594,16.5 2.0625,16.0380859 2.0625,15.46875 L2.0625,1.03125 C2.0625,0.461914062 1.60058594,0 1.03125,0 Z M9.96875,0 C9.39941406,0 8.9375,0.461914062 8.9375,1.03125 L8.9375,15.46875 C8.9375,16.0380859 9.39941406,16.5 9.96875,16.5 C10.5380859,16.5 11,16.0402344 11,15.46875 L11,1.03125 C11,0.461914062 10.5402344,0 9.96875,0 Z" id="🎨-Icon-Сolor"></path>
                </g>
            </g>
        </g>
    </g>
</svg>