<?xml version="1.0" encoding="UTF-8"?>
<svg width="113px" height="20px" viewBox="0 0 113 20" version="1.1"
    xmlns="http://www.w3.org/2000/svg"
    xmlns:xlink="http://www.w3.org/1999/xlink">
    <g id="UI-Kit" stroke="none" stroke-width="1" fill="none" fill-rule="evenodd">
        <g id="Logo" transform="translate(-80.000000, -280.000000)">
            <g id="PoweredAWS-Copy" transform="translate(80.000000, 280.000000)">
                <path d="M3.41353693,9.50410199 C4.028209,9.50410199 4.48421045,9.29493006 4.78201212,8.87587794 C5.07934295,8.45706191 5.2283615,7.81939444 5.2283615,6.96193118 C5.2283615,6.11485569 5.08193253,5.48639556 4.78907461,5.07725905 C4.49621668,4.66788644 4.04256939,4.46320014 3.42813274,4.46320014 C2.80380861,4.46320014 2.22750941,4.64616656 1.69970598,5.01209939 L1.69970598,8.9410376 C2.23716148,9.31641386 2.80875235,9.50410199 3.41353693,9.50410199 Z M0.316870394,13.6644042 C0.10546652,13.6644042 -1.42108547e-14,13.5581656 -1.42108547e-14,13.3463967 L-1.42108547e-14,3.65437054 C-1.42108547e-14,3.44260166 0.10546652,3.33659919 0.316870394,3.33659919 L1.10904638,3.33659919 C1.32021484,3.33659919 1.44522091,3.43315824 1.48359378,3.62556808 L1.56999157,4.07318657 C1.90593069,3.76509473 2.27788851,3.5294812 2.68610044,3.36563773 C3.09431237,3.20203034 3.51923887,3.11987251 3.96087992,3.11987251 C4.87288282,3.11987251 5.60031931,3.46196069 6.14318939,4.14566488 C6.68558864,4.82936906 6.95678827,5.74892286 6.95678827,6.90432627 C6.95678827,7.70371245 6.8247197,8.40181786 6.56081798,8.99887859 C6.29644543,9.59593933 5.92943136,10.0530012 5.45906951,10.3710087 C4.98847225,10.6885439 4.45078133,10.8474296 3.84576133,10.8474296 C3.44225772,10.8474296 3.05358535,10.7775483 2.67903795,10.6382577 C2.30449055,10.498731 1.97820351,10.3037243 1.69970598,10.0530012 L1.69970598,13.3463967 C1.69970598,13.5581656 1.59400404,13.6644042 1.38283558,13.6644042 L0.316870394,13.6644042 Z M11.8254336,9.56217907 C13.0350028,9.56217907 13.6402582,8.7099097 13.6402582,7.00537095 C13.6402582,5.3107478 13.0350028,4.46320014 11.8254336,4.46320014 C10.6153936,4.46320014 10.0103736,5.3107478 10.0103736,7.00537095 C10.0103736,8.7099097 10.6153936,9.56217907 11.8254336,9.56217907 Z M11.8254336,10.9052706 C10.7112081,10.9052706 9.84252176,10.5610577 9.21819763,9.87263177 C8.59387349,9.18420587 8.28218226,8.22853096 8.28218226,7.00537095 C8.28218226,5.78268311 8.59387349,4.82936906 9.21819763,4.14566488 C9.84252176,3.46196069 10.7112081,3.11987251 11.8254336,3.11987251 C12.9389529,3.11987251 13.80811,3.46196069 14.4321987,4.14566488 C15.0562874,4.82936906 15.3684495,5.78268311 15.3684495,7.00537095 C15.3684495,8.22853096 15.0562874,9.18420587 14.4321987,9.87263177 C13.80811,10.5610577 12.9389529,10.9052706 11.8254336,10.9052706 Z M18.6955886,10.6885439 C18.4747681,10.6885439 18.3356371,10.5877353 18.2779601,10.3851738 L16.1462651,3.82765744 C16.0980048,3.68340908 16.0742277,3.58708611 16.0742277,3.53868854 C16.0742277,3.4041197 16.1653338,3.33659919 16.3480169,3.33659919 L17.5147403,3.33659919 C17.7162567,3.33659919 17.8407919,3.42843652 17.8890523,3.61093077 L19.257292,8.9410376 L20.654488,3.62556808 C20.6832088,3.50988609 20.7286442,3.43315824 20.7915003,3.39444018 C20.8536502,3.35595821 20.9424022,3.33659919 21.0577562,3.33659919 L22.0086028,3.33659919 C22.133138,3.33659919 22.2244796,3.35831907 22.2821566,3.40152275 C22.3398336,3.44496252 22.3829148,3.5195656 22.411871,3.62556808 L23.8088316,9.04208228 L25.2493441,3.61093077 C25.2971337,3.42843652 25.4221397,3.33659919 25.6236561,3.33659919 L26.6750255,3.33659919 C26.8574732,3.33659919 26.9488147,3.4041197 26.9488147,3.53868854 C26.9488147,3.58708611 26.9248022,3.68340908 26.8770127,3.82765744 L24.7017657,10.3851738 C24.6346721,10.5877353 24.4953056,10.6885439 24.2843726,10.6885439 L23.2760844,10.6885439 C23.1609658,10.6885439 23.0693888,10.6670601 23.0022952,10.6236204 C22.9352015,10.5804167 22.8871766,10.5010919 22.8582204,10.3851738 L21.490216,5.17098507 L20.1217408,10.3851738 C20.0927846,10.5010919 20.0447597,10.5804167 19.977666,10.6236204 C19.9101015,10.6670601 19.8192308,10.6885439 19.7038768,10.6885439 L18.6955886,10.6885439 Z M32.5517236,6.2831848 L32.5517236,6.16773889 C32.5517236,5.58035767 32.4241279,5.13273918 32.1698783,4.82441126 C31.9153932,4.51608334 31.5434354,4.36215546 31.0537694,4.36215546 C30.5351472,4.36215546 30.1125749,4.53544237 29.7862878,4.88201617 C29.45953,5.22858998 29.272374,5.69580358 29.224349,6.2831848 L32.5517236,6.2831848 Z M31.341919,10.9052706 C30.131879,10.9052706 29.2149324,10.5780558 28.5908437,9.92291802 C27.9665195,9.26848846 27.6545929,8.31517441 27.6545929,7.06321195 C27.6545929,5.820929 27.9589862,4.85321372 28.5691854,4.15983002 C29.1786783,3.46668241 30.0311208,3.11987251 31.1258068,3.11987251 C32.0667659,3.11987251 32.7892587,3.3776781 33.2935205,3.89281709 C33.7975469,4.40795609 34.0494423,5.13722481 34.0494423,6.08085935 C34.0494423,6.4085463 34.0256653,6.75039839 33.9776404,7.10665171 C33.9583362,7.23177714 33.9220821,7.31605973 33.8695843,7.35926341 C33.8166156,7.4024671 33.7469324,7.42418698 33.66077,7.42418698 L29.224349,7.42418698 C29.2530698,8.15628873 29.4574112,8.69314761 29.8366669,9.03476362 C30.2156872,9.3768518 30.7992844,9.54754176 31.586752,9.54754176 C32.1628158,9.54754176 32.7676004,9.45617659 33.4015766,9.27297409 C33.4780869,9.25408723 33.5359993,9.23944992 33.5743722,9.23000649 C33.6125096,9.22032698 33.6464096,9.21536918 33.6751304,9.21536918 C33.8192052,9.21536918 33.8912426,9.31169214 33.8912426,9.50410199 L33.8912426,10.0241988 C33.8912426,10.1686832 33.8695843,10.2723249 33.8262677,10.3346515 C33.7834219,10.3976864 33.684547,10.4576521 33.5310556,10.515257 C32.8876627,10.7754235 32.1576366,10.9052706 31.341919,10.9052706 Z M36.0224667,10.6885439 C35.8115337,10.6885439 35.7058317,10.5827775 35.7058317,10.3710087 L35.7058317,3.65437054 C35.7058317,3.44260166 35.8115337,3.33659919 36.0224667,3.33659919 L36.7859219,3.33659919 C36.92058,3.33659919 37.0138049,3.35595821 37.067009,3.39444018 C37.1195068,3.43315824 37.1555255,3.50516437 37.1750651,3.61093077 L37.3478607,4.43439769 C37.7318247,4.01085994 38.0917763,3.71221153 38.4279509,3.53868854 C38.7641254,3.36563773 39.1290207,3.27875819 39.5226368,3.27875819 L39.5803138,3.27875819 C39.7050845,3.27875819 39.8081969,3.29103465 39.8898863,3.31511539 C39.9713404,3.33919613 40.0292528,3.37980287 40.0626819,3.43764386 C40.0963465,3.49548486 40.1132964,3.60148734 40.1132964,3.7556513 L40.1132964,4.53544237 C40.1132964,4.73776781 40.0266632,4.83881249 39.8538676,4.83881249 C39.796426,4.83881249 39.7170907,4.83409077 39.6163325,4.82441126 C39.5153389,4.81496783 39.4072828,4.81001003 39.2921642,4.81001003 C38.5814423,4.81001003 37.9528807,4.99297645 37.4053023,5.3586732 L37.4053023,10.3710087 C37.4053023,10.5827775 37.2996003,10.6885439 37.0886673,10.6885439 L36.0224667,10.6885439 Z M45.7880073,6.2831848 L45.7880073,6.16773889 C45.7880073,5.58035767 45.6606471,5.13273918 45.406162,4.82441126 C45.1516769,4.51608334 44.7797191,4.36215546 44.2898177,4.36215546 C43.7714309,4.36215546 43.3486232,4.53544237 43.0225716,4.88201617 C42.6960491,5.22858998 42.5086577,5.69580358 42.4606328,6.2831848 L45.7880073,6.2831848 Z M44.5779673,10.9052706 C43.3679273,10.9052706 42.4512161,10.5780558 41.8271274,9.92291802 C41.2028033,9.26848846 40.8908766,8.31517441 40.8908766,7.06321195 C40.8908766,5.820929 41.1955054,4.85321372 41.8054691,4.15983002 C42.4151974,3.46668241 43.2674046,3.11987251 44.3620905,3.11987251 C45.3028142,3.11987251 46.0255424,3.3776781 46.5298042,3.89281709 C47.0338306,4.40795609 47.2859615,5.13722481 47.2859615,6.08085935 C47.2859615,6.4085463 47.261949,6.75039839 47.2136887,7.10665171 C47.1943845,7.23177714 47.1583658,7.31605973 47.1056326,7.35926341 C47.0531347,7.4024671 46.9834515,7.42418698 46.8970537,7.42418698 L42.4606328,7.42418698 C42.489589,8.15628873 42.6934595,8.69314761 43.0729507,9.03476362 C43.451971,9.3768518 44.0353327,9.54754176 44.8230357,9.54754176 C45.3988641,9.54754176 46.0038841,9.45617659 46.6376249,9.27297409 C46.7143706,9.25408723 46.7720476,9.23944992 46.8106559,9.23000649 C46.8487933,9.22032698 46.8824579,9.21536918 46.9111787,9.21536918 C47.0554889,9.21536918 47.1275263,9.31169214 47.1275263,9.50410199 L47.1275263,10.0241988 C47.1275263,10.1686832 47.1056326,10.2723249 47.0625514,10.3346515 C47.0194702,10.3976864 46.9208307,10.4576521 46.7673393,10.515257 C46.1241818,10.7754235 45.3941558,10.9052706 44.5779673,10.9052706 Z M52.1395402,9.50410199 C52.7059519,9.50410199 53.2580032,9.32137166 53.7959295,8.95543882 L53.7959295,4.98329694 C53.3062636,4.63672313 52.7636289,4.46320014 52.168261,4.46320014 C51.5251035,4.46320014 51.0521521,4.66788644 50.7496421,5.07725905 C50.4471321,5.48639556 50.2957594,6.11485569 50.2957594,6.96193118 C50.2957594,8.6570265 50.9104315,9.50410199 52.1395402,9.50410199 Z M51.606793,10.8474296 C50.6849026,10.8474296 49.9480495,10.5032167 49.3957627,9.81479077 C48.843476,9.12660096 48.567568,8.19949242 48.567568,7.0341734 C48.567568,6.2352594 48.6994012,5.53927876 48.9637737,4.94717582 C49.2276755,4.35483681 49.5949249,3.90249661 50.0657576,3.58944697 C50.5358841,3.27663342 51.0782833,3.11987251 51.6929554,3.11987251 C52.4611189,3.11987251 53.1621888,3.37059553 53.7959295,3.87109721 L53.7959295,0.317771351 C53.7959295,0.106002479 53.9016315,0 54.1127999,0 L55.1785297,0 C55.3899336,0 55.4956355,0.106002479 55.4956355,0.317771351 L55.4956355,10.3710087 C55.4956355,10.5827775 55.3899336,10.6885439 55.1785297,10.6885439 L54.3435079,10.6885439 C54.1318687,10.6885439 54.007098,10.5924571 53.9687251,10.3998111 L53.8679669,9.9809951 C53.2151574,10.5586968 52.4611189,10.8474296 51.606793,10.8474296 Z M64.7566789,9.50410199 C65.3711156,9.50410199 65.8273524,9.29493006 66.1249187,8.87587794 C66.4227204,8.45706191 66.5715035,7.81939444 66.5715035,6.96193118 C66.5715035,6.11485569 66.4250745,5.48639556 66.1322166,5.07725905 C65.8393587,4.66788644 65.3857114,4.46320014 64.7710393,4.46320014 C64.1469506,4.46320014 63.5706514,4.64616656 63.042848,5.01209939 L63.042848,8.9410376 C63.5803035,9.31641386 64.1518943,9.50410199 64.7566789,9.50410199 Z M65.1889033,10.8474296 C64.7566789,10.8474296 64.3437587,10.7681048 63.9501425,10.6094552 C63.556291,10.4505696 63.2154081,10.2262881 62.927494,9.93755533 L62.8267358,10.3998111 C62.7883629,10.5924571 62.6631214,10.6885439 62.4521884,10.6885439 L61.6600124,10.6885439 C61.4488439,10.6885439 61.343142,10.5827775 61.343142,10.3710087 L61.343142,0.317771351 C61.343142,0.106002479 61.4488439,0 61.6600124,0 L62.7259776,0 C62.9369106,0 63.042848,0.106002479 63.042848,0.317771351 L63.042848,3.9867792 C63.7243783,3.40884141 64.4781814,3.11987251 65.3040219,3.11987251 C66.2162602,3.11987251 66.9434613,3.46196069 67.4863314,4.14566488 C68.0284952,4.82936906 68.2999303,5.74892286 68.2999303,6.90432627 C68.2999303,7.70371245 68.1678617,8.40181786 67.90396,8.99887859 C67.6398228,9.59593933 67.2746921,10.0530012 66.809274,10.3710087 C66.343385,10.6885439 65.80334,10.8474296 65.1889033,10.8474296 Z M70.5611042,13.837455 C70.2058609,13.837455 69.9035864,13.798973 69.6538096,13.7220091 C69.5288035,13.683291 69.4473495,13.6327687 69.409212,13.570206 C69.3706038,13.5076433 69.351535,13.4042377 69.351535,13.2597533 L69.351535,12.768695 C69.351535,12.5760491 69.4282808,12.4797261 69.5820076,12.4797261 C69.6297972,12.4797261 69.6872387,12.4846839 69.7545678,12.4943635 C69.8218969,12.5038069 69.9323072,12.5085286 70.086034,12.5085286 C70.4987189,12.5085286 70.8061726,12.4336894 71.0079244,12.283775 C71.2092054,12.1340967 71.4060134,11.7981467 71.5981132,11.2759252 L71.7855046,10.7681048 L69.06315,3.76958036 C69.0250126,3.67325739 69.0057084,3.59629345 69.0057084,3.53845246 C69.0057084,3.4041197 69.0923417,3.33659919 69.2649018,3.33659919 L70.4313898,3.33659919 C70.633377,3.33659919 70.7579123,3.42820044 70.8061726,3.6104586 L72.592041,9.15044561 L74.4068655,3.6104586 C74.4548905,3.42820044 74.5798965,3.33659919 74.7816483,3.33659919 L75.8760989,3.33659919 C76.0491299,3.33659919 76.1352923,3.4041197 76.1352923,3.53845246 C76.1352923,3.59629345 76.1159882,3.67325739 76.0778507,3.76958036 L72.9378676,11.8515021 C72.6687867,12.5571622 72.3521517,13.0642743 71.9872564,13.3737827 C71.6221256,13.6828189 71.1468201,13.837455 70.5611042,13.837455 Z" id="Combined-Shape" fill="#222932"></path>
                <path d="M107.961934,10.8637195 C107.408705,10.8637195 106.868189,10.8018651 106.339444,10.6786283 C105.810699,10.5556277 105.405077,10.4139763 105.122342,10.2532019 C104.950252,10.1547542 104.842432,10.0565425 104.800057,9.95809479 C104.75674,9.85988314 104.735082,9.76096323 104.735082,9.66157115 L104.735082,9.12518444 C104.735082,8.90326388 104.814888,8.79324795 104.975442,8.79324795 C105.036179,8.79324795 105.100683,8.80505223 105.168483,8.83007732 C105.235577,8.85486632 105.325035,8.8914596 105.435916,8.9410376 C105.792337,9.10086761 106.179126,9.22457652 106.59746,9.31003954 C107.015324,9.39644691 107.433188,9.43965059 107.851052,9.43965059 C108.515397,9.43965059 109.028605,9.32349643 109.391146,9.08859116 C109.753452,8.85486632 109.934487,8.52198548 109.934487,8.08994865 C109.934487,7.79460544 109.839614,7.54836806 109.648692,7.35076433 C109.45824,7.15363277 109.105115,6.96877767 108.588612,6.79596293 L107.057935,6.31505637 C106.283886,6.06905507 105.721947,5.71114915 105.371177,5.24228295 C105.021113,4.77436109 104.846198,4.2625273 104.846198,3.7077259 C104.846198,3.26388479 104.941071,2.87269079 105.131523,2.53390781 C105.321975,2.19536092 105.574106,1.90544768 105.88768,1.66464026 C106.200784,1.42406894 106.566856,1.24299121 106.984485,1.11951839 C107.402349,0.995809479 107.845402,0.934663283 108.312704,0.934663283 C108.545531,0.934663283 108.78283,0.950008853 109.021778,0.98093608 C109.261667,1.01139113 109.489079,1.05199788 109.70425,1.10086761 C109.919185,1.15091778 110.118818,1.20545358 110.303855,1.26707195 C110.487951,1.32939857 110.635322,1.39078085 110.745732,1.45239922 C110.893338,1.53904267 110.998334,1.62545004 111.059306,1.71091306 C111.12075,1.79732043 111.15159,1.91418285 111.15159,2.06244467 L111.15159,2.56129375 C111.15159,2.78368648 111.071548,2.89441067 110.911936,2.89441067 C110.825538,2.89441067 110.690644,2.85120699 110.506549,2.76574397 C109.904354,2.49400933 109.227767,2.35802396 108.478437,2.35802396 C107.875771,2.35802396 107.408705,2.45741604 107.076533,2.6545476 C106.744831,2.85120699 106.579098,3.16567314 106.579098,3.59747388 C106.579098,3.89258101 106.683858,4.14212359 106.892202,4.34610163 C107.101016,4.54889925 107.488747,4.74343387 108.054452,4.92876114 L109.547698,5.40895945 C110.309741,5.65566901 110.853552,5.99492416 111.179369,6.42578056 C111.504714,6.85805347 111.667858,7.35076433 111.667858,7.90509355 C111.667858,8.36168329 111.576281,8.77152806 111.391479,9.13486396 C111.206912,9.4989081 110.951956,9.80983297 110.62614,10.0685829 C110.300089,10.3275689 109.910004,10.5249366 109.45565,10.6597415 C109.000355,10.796199 108.502449,10.8637195 107.961934,10.8637195 Z M94.428319,10.5865549 C94.2442234,10.5865549 94.1086236,10.5525586 94.0229321,10.4852742 C93.9365343,10.4177536 93.8633198,10.278227 93.8016407,10.0685829 L91.3311816,1.89576816 C91.2690317,1.68612406 91.2381922,1.54423656 91.2381922,1.47104999 C91.2381922,1.29799917 91.3243546,1.21159181 91.4969147,1.21159181 L92.5296862,1.21159181 C92.725788,1.21159181 92.8639774,1.24558815 92.9442544,1.31310866 C93.0240605,1.38086525 93.0949209,1.5203919 93.1558937,1.72932775 L94.9257537,8.71840878 L96.5673119,1.72932775 C96.6162785,1.5203919 96.683843,1.38086525 96.7700053,1.31310866 C96.8554615,1.24558815 96.9976529,1.21159181 97.1942256,1.21159181 L98.0426661,1.21159181 C98.2394741,1.21159181 98.3804885,1.24558815 98.4659447,1.31310866 C98.5518716,1.38086525 98.6196715,1.5203919 98.6695798,1.72932775 L100.328559,8.81166263 L102.154212,1.72932775 C102.215421,1.5203919 102.28581,1.38086525 102.366323,1.31310866 C102.445422,1.24558815 102.584554,1.21159181 102.780655,1.21159181 L103.757869,1.21159181 C103.930193,1.21159181 104.016827,1.29799917 104.016827,1.47104999 C104.016827,1.5203919 104.009999,1.57539987 103.997522,1.63725432 C103.985281,1.69863661 103.960562,1.7845718 103.923602,1.89576816 L101.379693,10.0685829 C101.318249,10.278227 101.244093,10.4177536 101.158401,10.4852742 C101.072239,10.5525586 100.93711,10.5865549 100.753014,10.5865549 L99.8490156,10.5865549 C99.6529138,10.5865549 99.5107224,10.5497256 99.4257371,10.4753586 C99.3391039,10.4019359 99.2710685,10.2598123 99.2228082,10.0501682 L97.58125,3.24547011 L95.9592315,10.0501682 C95.909794,10.2598123 95.8415233,10.4019359 95.756538,10.4753586 C95.6701402,10.5497256 95.5284196,10.5865549 95.3323177,10.5865549 L94.428319,10.5865549 Z M85.9655724,9.43965059 C86.3095157,9.43965059 86.6718214,9.37496311 87.0536667,9.24629641 C87.4345704,9.11644927 87.7655657,8.8914596 88.0487716,8.57132739 C88.2208609,8.37372366 88.3406879,8.14873399 88.4082524,7.89541404 C88.4760523,7.64327451 88.509246,7.33848787 88.509246,6.98058195 L88.509246,6.53744909 C88.2024985,6.46331818 87.8797427,6.40500502 87.5423911,6.36180133 C87.2040978,6.31859765 86.8745149,6.29687777 86.5552903,6.29687777 C85.8544559,6.29687777 85.3325379,6.43852919 84.9885946,6.72159594 C84.6441805,7.00537095 84.4716203,7.41214661 84.4716203,7.942159 C84.4716203,8.43534203 84.6010993,8.80859352 84.859351,9.0614413 C85.1173673,9.31358083 85.4855585,9.43965059 85.9655724,9.43965059 Z M90.2428519,7.83143481 C90.2428519,8.22640619 90.2828727,8.53992799 90.3626788,8.77459718 C90.4424849,9.00832202 90.5566619,9.26164198 90.7045033,9.53219619 C90.7532345,9.61836747 90.7777178,9.69863661 90.7777178,9.77323969 C90.7777178,9.88396388 90.7099179,9.98854984 90.5750243,10.0867615 L89.9109149,10.5308387 C89.8127462,10.5926931 89.7209339,10.6231482 89.6345361,10.6231482 C89.523655,10.6231482 89.4191301,10.5742785 89.3209615,10.4753586 C89.1735909,10.3275689 89.0478786,10.1646698 88.9431183,9.98548073 C88.8390643,9.80676386 88.7312436,9.60042495 88.6208333,9.36670011 C87.7968761,10.3396093 86.7645755,10.8268902 85.5229897,10.8268902 C84.6380597,10.8268902 83.9369898,10.5742785 83.4209572,10.0685829 C82.9046892,9.56312341 82.6469083,8.88532137 82.6469083,8.03494068 C82.6469083,7.134982 82.9661328,6.41067107 83.6055236,5.86200791 C84.2442081,5.31381692 85.1051257,5.03948533 86.1866284,5.03948533 C86.5423424,5.03948533 86.9150065,5.06710736 87.3017956,5.12282358 C87.6890554,5.17783155 88.0916174,5.25503158 88.509246,5.35395148 L88.509246,4.57722953 C88.509246,3.77571859 88.3435129,3.21194594 88.0125175,2.8856755 C87.680345,2.55869681 87.1085187,2.39556159 86.2975094,2.39556159 C85.9290829,2.39556159 85.5500626,2.44136221 85.1632735,2.53390781 C84.7760136,2.62621732 84.3984058,2.74614885 84.029273,2.89441067 C83.8574191,2.96854158 83.7340609,3.01434221 83.660611,3.03275689 C83.5871611,3.05140766 83.5313675,3.06108717 83.4944071,3.06108717 C83.3470365,3.06108717 83.2735866,2.94941864 83.2735866,2.72749808 L83.2735866,2.21023432 C83.2735866,2.0371835 83.2983053,1.91418285 83.3470365,1.84052411 C83.3964739,1.76592103 83.4944071,1.69297055 83.6422485,1.61860355 C84.011146,1.43398454 84.4537287,1.27391843 84.9695259,1.1374609 C85.4855585,1.00265596 86.0326661,0.934663283 86.6106132,0.934663283 C87.864676,0.934663283 88.783506,1.22127132 89.3671031,1.79425131 C89.9507002,2.3672313 90.2428519,3.23366582 90.2428519,4.39237443 L90.2428519,7.83143481 Z" id="Fill-1" fill="#222932"></path>
                <path d="M81.8102386,13.5364457 C86.2723199,16.1411792 91.7911852,17.7083161 97.4906148,17.7083161 C101.335199,17.7083161 105.561393,16.9086939 109.450706,15.2542053 C110.036893,15.0051349 110.528678,15.641858 109.954733,16.0672844 C106.485402,18.6342442 101.456674,20 97.125484,20 C91.0566862,20 85.5907896,17.7501033 81.4552308,14.0048398 C81.1301208,13.7104409 81.4201537,13.3088591 81.8102386,13.5364457 Z M112.878839,13.2812371 C113.259743,13.7531724 112.778787,17.0246119 110.918057,18.5860827 C110.631555,18.8257097 110.359649,18.6982235 110.485832,18.3809243 C110.904638,17.3324677 111.842537,14.9841232 111.398541,14.4142124 C110.954311,13.8450097 108.46596,14.1450747 107.346791,14.2786992 C107.008262,14.3188337 106.955764,14.0225462 107.261335,13.8077082 C109.247071,12.4086643 112.500761,12.8128431 112.878839,13.2812371 Z" id="Combined-Shape" fill="#EC912D"></path>
            </g>
        </g>
    </g>
</svg>