<?xml version="1.0" encoding="UTF-8"?>
<svg width="24px" height="24px" viewBox="0 0 24 24" version="1.1"
    xmlns="http://www.w3.org/2000/svg"
    xmlns:xlink="http://www.w3.org/1999/xlink">
    <title>icon-twitch</title>
    <g id="UI-kit" stroke="none" stroke-width="1" fill="none" fill-rule="evenodd">
        <g id="Icons" transform="translate(-40.000000, -361.000000)" fill="#fff">
            <g id="Group-3" transform="translate(40.000000, 361.000000)">
                <g id="Icon/twitch" transform="translate(2.950000, 2.500000)">
                    <path d="M14.3304688,4.04179688 L12.8214844,4.04179688 L12.8214844,8.32695313 L14.3304688,8.32695313 L14.3304688,4.04179688 Z M10.1832031,4.0234375 L8.67421875,4.0234375 L8.67421875,8.31054688 L10.1832031,8.31054688 L10.1832031,4.0234375 Z M3.7703125,0 L0,3.57109375 L0,16.4289063 L4.52460937,16.4289063 L4.52460937,20 L8.2953125,16.4289063 L11.3128906,16.4289063 L18.1007813,10 L18.1007813,0 L3.7703125,0 Z M16.5921875,9.28710938 L13.5757813,12.1433594 L10.5585938,12.1433594 L7.91796875,14.6433594 L7.91796875,12.1433594 L4.52460938,12.1433594 L4.52460938,1.42890625 L16.5921875,1.42890625 L16.5921875,9.28710938 Z" id="🎨-Icon-Сolor"></path>
                </g>
            </g>
        </g>
    </g>
</svg>