<?xml version="1.0" encoding="UTF-8"?>
<svg width="40px" height="40px" viewBox="0 0 40 40" version="1.1"
    xmlns="http://www.w3.org/2000/svg"
    xmlns:xlink="http://www.w3.org/1999/xlink">
    <defs>
        <linearGradient x1="9.02056208e-15%" y1="100%" x2="100%" y2="7.2858386e-15%" id="linearGradient-1">
            <stop stop-color="#005276" offset="0%"></stop>
            <stop stop-color="#007FAA" offset="49.6546329%"></stop>
            <stop stop-color="#007FAA" offset="100%"></stop>
        </linearGradient>
        <linearGradient x1="100%" y1="7.2858386e-15%" x2="9.02056208e-15%" y2="100%" id="linearGradient-2">
            <stop stop-color="#7CE8F4" stop-opacity="0.367105551" offset="0%"></stop>
            <stop stop-color="#7CE8F4" stop-opacity="0" offset="100%"></stop>
        </linearGradient>
        <linearGradient x1="100%" y1="7.2858386e-15%" x2="9.02056208e-15%" y2="100%" id="linearGradient-3">
            <stop stop-color="#38EF7D" stop-opacity="0.549524694" offset="0%"></stop>
            <stop stop-color="#38EF7D" stop-opacity="0" offset="100%"></stop>
        </linearGradient>
        <path d="M19,27.90625 C20.6402344,27.90625 21.96875,29.2347656 21.96875,30.875 C21.96875,32.5152344 20.6402344,33.84375 19,33.84375 C17.3597656,33.84375 16.03125,32.5152344 16.03125,30.875 C16.03125,29.2347656 17.3597656,27.90625 19,27.90625 Z M19,29.09375 C18.0128906,29.09375 17.21875,29.8878906 17.21875,30.875 C17.21875,31.8621094 18.0128906,32.65625 19,32.65625 C19.9871094,32.65625 20.78125,31.8621094 20.78125,30.875 C20.78125,29.8878906 19.9871094,29.09375 19,29.09375 Z M30.28125,18.40625 C30.6078125,18.40625 30.875,18.6734375 30.875,19 C30.875,23.7722656 28.0621094,27.8839844 24.0023438,29.7765625 C23.7054688,29.9101562 23.3492187,29.7839844 23.2082031,29.4871094 C23.0746094,29.1902344 23.2007812,28.8339844 23.4976562,28.7003906 C27.1566406,27.0007812 29.6875,23.2972656 29.6875,19 C29.6875,18.6734375 29.9546875,18.40625 30.28125,18.40625 Z M9.29960938,23.4976562 C10.3683594,25.7835938 12.2164063,27.6316406 14.5023438,28.7003906 C14.7992188,28.8339844 14.9253906,29.1902344 14.7917969,29.4871094 C14.6507813,29.7839844 14.2945313,29.9101562 13.9976563,29.7765625 C11.459375,28.5964844 9.40351563,26.540625 8.2234375,24.0023438 C8.02304688,23.7054688 8.21601563,23.3492187 8.51289063,23.2082031 C8.80976563,23.0746094 9.16601563,23.2007812 9.29960938,23.4976562 Z M7.125,16.03125 C8.76523437,16.03125 10.09375,17.3597656 10.09375,19 C10.09375,20.6402344 8.76523437,21.96875 7.125,21.96875 C5.48550781,21.96875 4.15625,20.6402344 4.15625,19 C4.15625,17.3597656 5.48550781,16.03125 7.125,16.03125 Z M7.125,17.21875 C6.14160156,17.21875 5.34375,18.0128906 5.34375,19 C5.34375,19.9871094 6.14160156,20.78125 7.125,20.78125 C8.11210937,20.78125 8.90625,19.9871094 8.90625,19 C8.90625,18.0128906 8.11210937,17.21875 7.125,17.21875 Z M19,7.12492578 C22.0652344,7.12492578 24.7964844,8.29016016 26.9636719,10.1901602 L26.125,11.0362539 C24.2324219,9.34406641 21.7386719,8.31242578 19,8.31242578 C14.7027344,8.31242578 10.9992187,10.8432852 9.29960937,14.5022695 C9.16601562,14.7991445 8.80976562,14.9253164 8.51289062,14.7917227 C8.21601562,14.650707 8.02304687,14.294457 8.2234375,13.997582 C10.1160156,9.93781641 14.2277344,7.12492578 19,7.12492578 Z" id="path-4"></path>
    </defs>
    <g id="UI-kit" stroke="none" stroke-width="1" fill="none" fill-rule="evenodd">
        <g id="Icons" transform="translate(-296.000000, -112.000000)">
            <g id="Icon/Trackers" transform="translate(297.000000, 113.000000)">
                <path d="M1.1875,19 C1.1875,28.8339844 9.16601562,36.8125 19,36.8125 C28.8339844,36.8125 36.8125,28.8339844 36.8125,19 C36.8125,18.6734375 37.0796875,18.40625 37.40625,18.40625 C37.7328125,18.40625 38,18.6734375 38,19 C38,29.4945312 29.4945312,38 19,38 C8.50546875,38 0,29.4945312 0,19 C0,8.50546875 8.50546875,0 19,0 C24.0320312,0 28.6113281,1.95789062 32.0105469,5.15152344 L35.2019531,1.95492187 C35.4394531,1.72335937 35.8105469,1.72335937 36.0480469,1.95484766 C36.278125,2.18715234 36.278125,2.56269922 36.0480469,2.79500391 L19.4230469,19.4229727 C19.1855469,19.6530508 18.8144531,19.6530508 18.5769531,19.4229727 C18.346875,19.1854727 18.346875,18.8143789 18.5769531,18.5768789 L21.0632812,16.0979727 C20.4175781,15.6823477 19.771875,15.4374258 19,15.4374258 C17.0332031,15.4374258 15.4375,17.0331289 15.4375,18.9999258 C15.4375,20.9667227 17.0332031,22.5624258 19,22.5624258 C20.9667969,22.5624258 22.5625,20.9667227 22.5625,18.9999258 C22.5625,18.6733633 22.8296875,18.4061758 23.15625,18.4061758 C23.4828125,18.4061758 23.75,18.6733633 23.75,18.9999258 C23.75,21.6198477 21.6199219,23.7499258 19,23.7499258 C16.3800781,23.7499258 14.25,21.6198477 14.25,18.9999258 C14.25,16.3800039 16.3800781,14.2499258 19,14.2499258 C20.0984375,14.2499258 21.1078125,14.6210195 21.909375,15.244457 L26.125,11.0362539 L26.9636719,10.1901602 L31.1050781,5.99160547 C27.9804687,3.01098047 23.7054687,1.18742578 19,1.18742578 C9.16601562,1.1875 1.1875,9.16601562 1.1875,19 Z" id="Shape" fill="#232F3E"></path>
                <g id="Combined-Shape">
                    <use fill="url(#linearGradient-1)" xlink:href="#path-4"></use>
                    <use fill="url(#linearGradient-2)" xlink:href="#path-4"></use>
                    <use fill="url(#linearGradient-3)" xlink:href="#path-4"></use>
                </g>
            </g>
        </g>
    </g>
</svg>