<?xml version="1.0" encoding="UTF-8"?>
<svg width="24px" height="24px" viewBox="0 0 24 24" version="1.1"
    xmlns="http://www.w3.org/2000/svg"
    xmlns:xlink="http://www.w3.org/1999/xlink">
    <g id="UI-Kit" stroke="none" stroke-width="1" fill-rule="evenodd">
        <g id="Icons" transform="translate(-328.000000, -320.000000)">
            <g id="Row-5" transform="translate(40.000000, 320.000000)">
                <g id="Icon/meter-solid" transform="translate(290.000000, 2.000000)">
                    <path d="M10,20 C15.5234375,20 20,15.5234375 20,10 C20,4.4765625 15.5234375,0 10,0 C4.4765625,0 0,4.4765625 0,10 C0,15.5234375 4.4765625,20 10,20 Z M7.5,6.25 L7.5,7.5 C7.5,8.19140625 6.94140625,8.75 6.25,8.75 C5.55859375,8.75 5,8.19140625 5,7.5 L5,6.25 C5,5.55859375 5.55859375,5 6.25,5 C6.94140625,5 7.5,5.55859375 7.5,6.25 Z M11.25,6.25 L11.25,7.5 C11.25,8.19140625 10.6914062,8.75 10,8.75 C9.30859375,8.75 8.75,8.19140625 8.75,7.5 L8.75,6.25 C8.75,5.55859375 9.30859375,5 10,5 C10.6914062,5 11.25,5.55859375 11.25,6.25 Z M15,6.25 L15,7.5 C15,8.19140625 14.4414062,8.75 13.75,8.75 C13.0585938,8.75 12.5,8.19140625 12.5,7.5 L12.5,6.25 C12.5,5.55859375 13.0585938,5 13.75,5 C14.4414062,5 15,5.55859375 15,6.25 Z" id="🎨-Icon-Сolor"></path>
                </g>
            </g>
        </g>
    </g>
</svg>