<?xml version="1.0" encoding="UTF-8"?>
<svg width="24px" height="24px" viewBox="0 0 24 24" version="1.1"
    xmlns="http://www.w3.org/2000/svg"
    xmlns:xlink="http://www.w3.org/1999/xlink">
    <g id="UI-kit" stroke="none" stroke-width="1" fill="none" fill-rule="evenodd">
        <g id="Icons" transform="translate(-40.000000, -265.000000)" fill="#8E8E93">
            <g id="Group" transform="translate(40.000000, 265.000000)">
                <g id="Icon/compass" transform="translate(2.000000, 2.000000)">
                    <path d="M8.7969,11.2129 L9.5109,9.4709 L11.2029,8.7869 L10.4889,10.5289 L8.7969,11.2129 Z M13.6829,6.3179 C13.4089,6.0279 12.9789,5.9159 12.5839,6.0719 L8.3709,7.7739 C8.1209,7.8749 7.9219,8.0719 7.8199,8.3219 L6.0749,12.5799 C5.9269,12.9409 6.0139,13.3309 6.2529,13.6079 C6.2609,13.6179 6.2669,13.6309 6.2759,13.6419 C6.2919,13.6589 6.3109,13.6729 6.3289,13.6899 C6.5169,13.8829 6.7719,13.9999 7.0419,13.9999 C7.1669,13.9999 7.2939,13.9769 7.4159,13.9279 L11.6289,12.2269 C11.8789,12.1249 12.0779,11.9279 12.1799,11.6779 L13.9249,7.4199 C14.0869,7.0259 13.9749,6.5939 13.6829,6.3179 L13.6829,6.3179 Z M10,18 C5.589,18 2,14.411 2,10 C2,5.589 5.589,2 10,2 C14.411,2 18,5.589 18,10 C18,14.411 14.411,18 10,18 M10,4.4408921e-16 C4.486,4.4408921e-16 4.4408921e-16,4.486 4.4408921e-16,10 C4.4408921e-16,15.514 4.486,20 10,20 C15.514,20 20,15.514 20,10 C20,4.486 15.514,4.4408921e-16 10,4.4408921e-16" id="🎨-Icon-Сolor"></path>
                </g>
            </g>
        </g>
    </g>
</svg>