<svg xmlns="http://www.w3.org/2000/svg" viewBox="0 0 32 32">
	<path fill="#008296" fill-rule="evenodd" d="M16.417 23.792a.92.92 0 0 1-.917.916.92.92 0 0 1-.917-.916v-4.584a.92.92 0 0 1 .917-.916.92.92 0 0 1 .917.916v4.584ZM15.5 1.333a7.333 7.333 0 0 1 7.333 7.334v3.666h.917a4.582 4.582 0 0 1 4.583 4.584v9.166a4.582 4.582 0 0 1-4.583 4.584H7.25a4.583 4.583 0 0 1-4.583-4.584v-9.166a4.583 4.583 0 0 1 4.583-4.584h.917V8.667A7.333 7.333 0 0 1 15.5 1.333Zm0 1.834a5.468 5.468 0 0 0-5.5 5.5v3.666h11V8.667a5.5 5.5 0 0 0-5.5-5.5Zm-8.25 11a2.75 2.75 0 0 0-2.75 2.75v9.166a2.75 2.75 0 0 0 2.75 2.75h16.5a2.75 2.75 0 0 0 2.75-2.75v-9.166a2.75 2.75 0 0 0-2.75-2.75H7.25Z"/>
</svg>