<?xml version="1.0" encoding="UTF-8"?>
<svg width="24px" height="24px" viewBox="0 0 24 24" version="1.1"
    xmlns="http://www.w3.org/2000/svg"
    xmlns:xlink="http://www.w3.org/1999/xlink">
    <g id="UI-Kit" stroke="none" stroke-width="1" fill-rule="evenodd">
        <g id="Icons" transform="translate(-136.000000, -112.000000)">
            <g id="Row-1" transform="translate(40.000000, 112.000000)">
                <g id="Icon/paintroller" transform="translate(98.000000, 2.000000)">
                    <path d="M13.75,0 C15.1289063,0 16.25,1.11914062 16.25,2.5 L16.25,5 C16.25,6.37890625 15.1289063,7.5 13.75,7.5 L2.5,7.5 C1.11914062,7.5 0,6.37890625 0,5 L0,2.5 C0,1.11914062 1.11914062,0 2.5,0 L13.75,0 Z M13.75,1.875 L2.5,1.875 C2.1546875,1.875 1.875,2.1546875 1.875,2.5 L1.875,5 C1.875,5.34375 2.1546875,5.625 2.5,5.625 L13.75,5.625 C14.09375,5.625 14.375,5.34375 14.375,5 L14.375,2.5 C14.375,2.1546875 14.09375,1.875 13.75,1.875 Z M6.25,13.75 C6.25,13.0585938 6.80859375,12.5 7.5,12.5 L7.8125,12.5 L7.8125,11.875 C7.8125,10.3203125 9.0703125,9.0625 10.625,9.0625 L16.5625,9.0625 C17.4257812,9.0625 18.125,8.36328125 18.125,7.5 L18.125,5.625 C18.125,5.21875 17.8632812,4.87109375 17.5,4.7421875 L17.5,2.8296875 C18.90625,2.98515625 20,4.17578125 20,5.625 L20,7.5 C20,9.3984375 18.4609375,10.9375 16.5625,10.9375 L10.625,10.9375 C10.1054688,10.9375 9.6875,11.3554688 9.6875,11.875 L9.6875,12.5 L10,12.5 C10.6914062,12.5 11.25,13.0585938 11.25,13.75 L11.25,18.75 C11.25,19.4414062 10.6914062,20 10,20 L7.5,20 C6.80859375,20 6.25,19.4414062 6.25,18.75 L6.25,13.75 Z" id="🎨-Icon-Сolor"></path>
                </g>
            </g>
        </g>
    </g>
</svg>