<?xml version="1.0" encoding="UTF-8"?>
<svg width="24px" height="24px" viewBox="0 0 24 24" version="1.1"
    xmlns="http://www.w3.org/2000/svg"
    xmlns:xlink="http://www.w3.org/1999/xlink">
    <g id="UI-kit" stroke="none" stroke-width="1" fill="none" fill-rule="evenodd">
        <g id="Icons" transform="translate(-232, -521)" fill="#008296">
            <g id="Group-4" transform="translate(40, 377)">
                <g id="4" transform="translate(0, 144)">
                    <g id="Icon/brand/android" transform="translate(192, 5)">
                        <path d="M17.5230833,9.7186384 L17.5230833,9.7186384 C16.9707917,9.7186384 16.5230833,9.28896056 16.5230833,8.75900057 C16.5230833,8.2290006 16.9707917,7.79936274 17.5230833,7.79936274 C18.0753333,7.79936274 18.5230833,8.2290006 18.5230833,8.75900057 L18.5230833,8.75900057 C18.5230833,9.28896056 18.0753333,9.7186384 17.5230833,9.7186384 M6.47725,9.7186384 L6.47725,9.7186384 C5.92495833,9.7186384 5.47725,9.28896056 5.47725,8.75900057 C5.47725,8.2290006 5.92495833,7.79936274 6.47725,7.79936274 C7.0295,7.79936274 7.47725,8.2290006 7.47725,8.75900057 L7.47725,8.75900057 C7.47725,9.28896056 7.0295,9.7186384 6.47725,9.7186384 M17.8814167,3.94161868 L19.8789167,0.622871186 L19.8789167,0.622831201 C20.007125,0.439420421 19.9561667,0.191034163 19.7650833,0.0680005965 C19.5739583,-0.055072955 19.315125,-0.00617141065 19.1869167,0.177199384 C19.1766667,0.191833861 19.1674167,0.207108097 19.1592917,0.222902136 L19.1592917,0.222902136 L17.1367917,3.58443348 L17.1367917,3.58443348 C13.869125,2.17800427 10.1310833,2.17800427 6.86345833,3.58443348 L4.84095833,0.222902136 L4.84091667,0.222902136 C4.739,0.024896864 4.489125,-0.0563524721 4.28279167,0.0414106317 C4.07645833,0.139173735 3.99179167,0.378963238 4.09366667,0.57696851 C4.10179167,0.592762549 4.111,0.608036784 4.12125,0.622671261 L4.12125,0.622671261 L6.11875,3.94141875 C2.68875,5.73154315 0.343333333,9.06348566 0,13 L24,13 C23.6566667,9.06348566 21.3108333,5.73154315 17.88125,3.94141875" id="🎨-Icon-Сolor"></path>
                    </g>
                </g>
            </g>
        </g>
    </g>
</svg>