<?xml version="1.0" encoding="UTF-8"?>
<svg width="24px" height="24px" viewBox="0 0 24 24" version="1.1"
    xmlns="http://www.w3.org/2000/svg"
    xmlns:xlink="http://www.w3.org/1999/xlink">
    <g id="UI-Kit" stroke="none" stroke-width="1" fill-rule="evenodd">
        <g id="Icons" transform="translate(-136.000000, -272.000000)">
            <g id="Row-4" transform="translate(40.000000, 272.000000)">
                <g id="Icon/person-walking-solid" transform="translate(101.000000, 1.000000)">
                    <path d="M11.0032227,2.0625 C11.0032227,3.20117188 10.0793945,4.125 8.94072266,4.125 C7.80205078,4.125 6.87822266,3.20117188 6.87822266,2.0625 C6.87822266,0.923828125 7.80205078,0 8.94072266,0 C10.0793945,0 11.0032227,0.923828125 11.0032227,2.0625 Z M5.43876953,8.56367187 C5.39580078,8.58085937 5.35712891,8.59804687 5.31416016,8.61523438 L4.97041016,8.765625 C4.26572266,9.07929687 3.72431641,9.6765625 3.47939453,10.4070312 L3.36767578,10.7421875 C3.12705078,11.4640625 2.34931641,11.8507812 1.62744141,11.6101562 C0.905566406,11.3695312 0.518847656,10.5917969 0.759472656,9.86992187 L0.871191406,9.53476562 C1.36103516,8.06953125 2.44384766,6.875 3.85322266,6.24765625 L4.19697266,6.09726562 C5.09072266,5.70195312 6.05751953,5.49570312 7.03720703,5.49570312 C8.95361328,5.49570312 10.680957,6.64726562 11.4157227,8.41328125 L12.0774414,9.99882812 L12.9969727,10.4585937 C13.6758789,10.7980469 13.9508789,11.6230469 13.6114258,12.3019531 C13.2719727,12.9808594 12.4469727,13.2558594 11.7680664,12.9164062 L10.6165039,12.3449219 C10.1739258,12.1214844 9.82587891,11.7519531 9.63681641,11.2921875 L9.22431641,10.3039063 L8.39501953,13.1183594 L10.5219727,15.4386719 C10.7540039,15.6921875 10.9172852,15.9972656 11.0032227,16.3324219 L11.9915039,20.2898437 C12.1762695,21.0246094 11.7293945,21.7722656 10.990332,21.9570312 C10.2512695,22.1417969 9.50791016,21.6949219 9.32314453,20.9558594 L8.37783203,17.1703125 L5.33994141,13.8574219 C4.70400391,13.165625 4.46767578,12.1988281 4.70830078,11.2921875 L5.43447266,8.56367187 L5.43876953,8.56367187 Z M2.95517578,17.1015625 L4.02939453,14.4203125 C4.11962891,14.5492188 4.22275391,14.6695313 4.33017578,14.7898438 L6.07900391,16.6976563 L5.45595703,18.253125 C5.35283203,18.5109375 5.19814453,18.7472656 5.00048828,18.9449219 L2.34931641,21.5960938 C1.81220703,22.1332031 0.939941406,22.1332031 0.402832031,21.5960938 C-0.134277344,21.0589844 -0.134277344,20.1867188 0.402832031,19.6496094 L2.95517578,17.1015625 Z" id="🎨-Icon-Сolor"></path>
                </g>
            </g>
        </g>
    </g>
</svg>