<svg xmlns="http://www.w3.org/2000/svg" width="24" height="24" viewBox="0 0 24 24"><path fill="#1D1D1F" fill-rule="evenodd" d="M6.87722857,13.457 L8.90322857,14.99 L8.90322857,10.437 C8.90322857,10.271 8.94522857,10.108 9.02322857,9.962 L13.3232286,2 L2.64322857,2 L6.76522857,9.978 C6.83922857,10.12 6.87722857,10.278 6.87722857,10.437 L6.87722857,13.457 Z M9.90322857,18 C9.69022857,18 9.47722857,17.932 9.30022857,17.797 L5.27422857,14.752 C5.02422857,14.563 4.87722857,14.268 4.87722857,13.955 L4.87722857,10.681 L0.112228571,1.459 C-0.048771429,1.149 -0.035771429,0.778 0.146228571,0.48 C0.327228571,0.182 0.651228571,0 1.00022857,0 L15.0002286,0 C15.3522286,0 15.6782286,0.185 15.8592286,0.488 C16.0392286,0.79 16.0472286,1.165 15.8802286,1.475 L10.9032286,10.69 L10.9032286,17 C10.9032286,17.379 10.6892286,17.726 10.3492286,17.895 C10.2082286,17.965 10.0552286,18 9.90322857,18 L9.90322857,18 Z" transform="translate(4 4)"/></svg>