<?xml version="1.0" encoding="UTF-8"?>
<svg width="24px" height="24px" viewBox="0 0 24 24" version="1.1"
    xmlns="http://www.w3.org/2000/svg"
    xmlns:xlink="http://www.w3.org/1999/xlink">
    <g id="UI-Kit" stroke="none" stroke-width="1" fill-rule="evenodd">
        <g id="Icons" transform="translate(-424, -208)">
            <g id="Row-3" transform="translate(40, 208)">
                <g id="Icon/radar" transform="translate(386, 2)">
                    <path d="M12.359375,6.31640625 C11.6445312,5.87890625 10.8671875,5.625 10,5.625 C7.58203125,5.625 5.625,7.58203125 5.625,10 C5.625,12.4179688 7.58203125,14.375 10,14.375 C12.4179688,14.375 14.375,12.4179688 14.375,10 L16.25,10 C16.25,13.0546875 14.0585938,15.5976562 11.1601562,16.140625 C10.875,15.8242187 10.4609375,15.625 10,15.625 C9.5390625,15.625 9.125,15.8242188 8.83984375,16.140625 C6.31640625,15.6679687 4.33203125,13.6835938 3.8578125,11.1601562 C4.17578125,10.875 4.375,10.4609375 4.375,10 C4.375,9.5390625 4.17578125,9.125 3.8578125,8.83984375 C4.40234375,5.94140625 6.9453125,3.75 10,3.75 C11.3867188,3.75 12.6679688,4.203125 13.7070312,4.96875 L15.0429687,3.63007813 C13.6601562,2.53125 11.90625,1.875 10,1.875 C5.96484375,1.875 2.61445313,4.8203125 1.98242188,8.67578125 C1.54257813,8.953125 1.25,9.44140625 1.25,10 C1.25,10.5585938 1.54257813,11.046875 1.98242188,11.3242188 C2.54375,14.75 5.25,17.4570312 8.67578125,18.0195312 C8.953125,18.4570312 9.44140625,18.75 10,18.75 C10.5585938,18.75 11.046875,18.4570312 11.3242188,18.0195312 C15.1796875,17.3867188 18.125,14.0351562 18.125,10 L20,10 C20,15.5234375 15.5234375,20 10,20 C4.4765625,20 0,15.5234375 0,10 C0,4.4765625 4.4765625,0 10,0 C12.4257812,0 14.6445312,0.8625 16.3789062,2.296875 L18.0859375,0.587109375 C18.453125,0.220976563 19.046875,0.220976563 19.3789062,0.587070312 C19.7773438,0.953085938 19.7773438,1.54683594 19.3789062,1.91285156 L12.3007813,9.02339844 C12.4296875,9.32417969 12.5,9.65230469 12.5,9.99996094 C12.5,11.3788672 11.3789063,12.4999609 10,12.4999609 C8.62109375,12.4999609 7.5,11.3788672 7.5,9.99996094 C7.5,8.62105469 8.62109375,7.49996094 10,7.49996094 C10.3476563,7.49996094 10.6757813,7.57027344 10.9414063,7.69917969 L12.359375,6.31636719 L12.359375,6.31640625 Z" id="🎨-Icon-Сolor"></path>
                </g>
            </g>
        </g>
    </g>
</svg>