<svg width="15" height="13" viewBox="0 0 15 13" fill="none" xmlns="http://www.w3.org/2000/svg">
<path d="M11.25 1.625V5H13.875C14.4844 5 15 5.51562 15 6.125V11.375C15 12.0078 14.4844 12.5 13.875 12.5H10.125H7.875H7.125H1.125C0.492188 12.5 0 12.0078 0 11.375V6.125V3.875C0 3.26562 0.492188 2.75 1.125 2.75H1.5V1.0625C1.5 0.757812 1.73438 0.5 2.0625 0.5C2.36719 0.5 2.625 0.757812 2.625 1.0625V2.75H4.125V1.0625C4.125 0.757812 4.35938 0.5 4.6875 0.5C4.99219 0.5 5.25 0.757812 5.25 1.0625V2.75H6.75V1.625C6.75 1.01562 7.24219 0.5 7.875 0.5H10.125C10.7344 0.5 11.25 1.01562 11.25 1.625ZM13.5 9.125C13.5 8.9375 13.3125 8.75 13.125 8.75H12.375C12.1641 8.75 12 8.9375 12 9.125V9.875C12 10.0859 12.1641 10.25 12.375 10.25H13.125C13.3125 10.25 13.5 10.0859 13.5 9.875V9.125ZM5.625 10.25C5.8125 10.25 6 10.0859 6 9.875V9.125C6 8.9375 5.8125 8.75 5.625 8.75H4.875C4.66406 8.75 4.5 8.9375 4.5 9.125V9.875C4.5 10.0859 4.66406 10.25 4.875 10.25H5.625ZM3 9.875V9.125C3 8.9375 2.8125 8.75 2.625 8.75H1.875C1.66406 8.75 1.5 8.9375 1.5 9.125V9.875C1.5 10.0859 1.66406 10.25 1.875 10.25H2.625C2.8125 10.25 3 10.0859 3 9.875ZM13.125 6.5H12.375C12.1641 6.5 12 6.6875 12 6.875V7.625C12 7.83594 12.1641 8 12.375 8H13.125C13.3125 8 13.5 7.83594 13.5 7.625V6.875C13.5 6.6875 13.3125 6.5 13.125 6.5ZM6 4.625C6 4.4375 5.8125 4.25 5.625 4.25H4.875C4.66406 4.25 4.5 4.4375 4.5 4.625V5.375C4.5 5.58594 4.66406 5.75 4.875 5.75H5.625C5.8125 5.75 6 5.58594 6 5.375V4.625ZM2.625 4.25H1.875C1.66406 4.25 1.5 4.4375 1.5 4.625V5.375C1.5 5.58594 1.66406 5.75 1.875 5.75H2.625C2.8125 5.75 3 5.58594 3 5.375V4.625C3 4.4375 2.8125 4.25 2.625 4.25ZM6 7.625V6.875C6 6.6875 5.8125 6.5 5.625 6.5H4.875C4.66406 6.5 4.5 6.6875 4.5 6.875V7.625C4.5 7.83594 4.66406 8 4.875 8H5.625C5.8125 8 6 7.83594 6 7.625ZM2.625 8C2.8125 8 3 7.83594 3 7.625V6.875C3 6.6875 2.8125 6.5 2.625 6.5H1.875C1.66406 6.5 1.5 6.6875 1.5 6.875V7.625C1.5 7.83594 1.66406 8 1.875 8H2.625ZM9.75 6.875C9.75 6.6875 9.5625 6.5 9.375 6.5H8.625C8.41406 6.5 8.25 6.6875 8.25 6.875V7.625C8.25 7.83594 8.41406 8 8.625 8H9.375C9.5625 8 9.75 7.83594 9.75 7.625V6.875ZM9.375 2H8.625C8.41406 2 8.25 2.1875 8.25 2.375V3.125C8.25 3.33594 8.41406 3.5 8.625 3.5H9.375C9.5625 3.5 9.75 3.33594 9.75 3.125V2.375C9.75 2.1875 9.5625 2 9.375 2ZM9.75 4.625C9.75 4.4375 9.5625 4.25 9.375 4.25H8.625C8.41406 4.25 8.25 4.4375 8.25 4.625V5.375C8.25 5.58594 8.41406 5.75 8.625 5.75H9.375C9.5625 5.75 9.75 5.58594 9.75 5.375V4.625Z" fill="#008296"/>
</svg>
