<svg xmlns="http://www.w3.org/2000/svg" viewBox="0 0 32 32">
	<path fill="#008296" fill-rule="evenodd" d="M10.23 8.654c-.489-.077-.743-.494-.672-.94a5.709 5.709 0 0 1 5.627-4.754 5.7 5.7 0 0 1 5.378 3.803c.153.378-.071.89-.494 1.04a.812.812 0 0 1-1.039-.497 4.079 4.079 0 0 0-7.863.678.817.817 0 0 1-.937.67Zm11.474 7.75a1.22 1.22 0 0 1 1.222-1.222 1.22 1.22 0 0 1 1.222 1.222 1.22 1.22 0 0 1-1.222 1.223 1.22 1.22 0 0 1-1.222-1.223Zm4.507-7.038-.433 1.696c1.074.886 2.016 2.007 2.582 3.305h.677c.901 0 1.63.729 1.63 1.63v4.889c0 .901-.729 1.63-1.63 1.63h-1.63c-.84 1.074-1.96 2.016-3.259 2.582v1.492a2.445 2.445 0 0 1-2.444 2.444h-1.63a2.445 2.445 0 0 1-2.444-2.444v-.815h-3.26v.815a2.445 2.445 0 0 1-2.444 2.444h-1.63a2.445 2.445 0 0 1-2.444-2.444v-2.445a8.139 8.139 0 0 1-3.26-6.518 3.335 3.335 0 0 1-1.416-6.315l.237-.117a.812.812 0 0 1 1.094.361.816.816 0 0 1-.365 1.095l-.237.117c-.577.29-.988.881-.988 1.528 0 .937.808 1.701 1.749 1.701h.09a8.095 8.095 0 0 1 7.939-6.518h7.807a4.893 4.893 0 0 1 3.646-1.63h.881a1.22 1.22 0 0 1 1.182 1.517Zm-13.47 1.742A6.518 6.518 0 0 0 8.83 22.841l.651.49v3.259c0 .448.367.814.815.814h1.63a.817.817 0 0 0 .815-.814v-2.445h6.518v2.445c0 .448.367.814.815.814h1.63a.817.817 0 0 0 .815-.814v-2.562l.977-.423a6.527 6.527 0 0 0 2.608-2.067l.489-.652h2.444v-4.889H27.29l-.422-.978a6.527 6.527 0 0 0-2.068-2.607l-.866-.652.57-2.281h-.356c-.967 0-1.828.417-2.429 1.084l-.489.545h-8.49Z"/>
</svg>