<?xml version="1.0" encoding="UTF-8"?>
<svg width="24px" height="24px" viewBox="0 0 24 24" version="1.1"
    xmlns="http://www.w3.org/2000/svg"
    xmlns:xlink="http://www.w3.org/1999/xlink">
    <g id="UI-Kit" stroke="none" stroke-width="1" fill-rule="evenodd">
        <g id="Icons" transform="translate(-88.000000, -400.000000)">
            <g id="Row-7" transform="translate(40.000000, 400.000000)">
                <g id="Icon/bicycle-solid" transform="translate(49.000000, 4.300000)">
                    <path d="M10.725,-8.8817842e-16 C10.2678125,-8.8817842e-16 9.9,0.3678125 9.9,0.825 C9.9,1.2821875 10.2678125,1.65 10.725,1.65 L11.6084375,1.65 L12.7978125,3.85 L7.6621875,3.85 L6.7203125,2.54375 C6.565625,2.3271875 6.3146875,2.2 6.05,2.2 L4.125,2.2 C3.6678125,2.2 3.3,2.5678125 3.3,3.025 C3.3,3.4821875 3.6678125,3.85 4.125,3.85 L5.6271875,3.85 L6.386875,4.9053125 L5.4725,6.730625 C5.12875,6.6446875 4.7678125,6.6 4.4,6.6 C1.9696875,6.6 0,8.5696875 0,11 C0,13.4303125 1.9696875,15.4 4.4,15.4 C6.6446875,15.4 8.4940625,13.7190625 8.765625,11.55 L10.45,11.55 C10.7421875,11.55 11.0103125,11.3953125 11.1615625,11.144375 L14.0765625,6.2115625 L14.8225,7.59 C13.8325,8.3978125 13.2,9.625 13.2,11 C13.2,13.4303125 15.1696875,15.4 17.6,15.4 C20.0303125,15.4 22,13.4303125 22,11 C22,8.5696875 20.0303125,6.6 17.6,6.6 C17.1359375,6.6 16.6890625,6.6721875 16.2696875,6.80625 L12.904375,0.5775 C12.711875,0.22 12.340625,-8.8817842e-16 11.935,-8.8817842e-16 L10.725,-8.8817842e-16 Z M15.764375,9.3396875 L16.8746875,11.391875 C17.09125,11.7940625 17.593125,11.941875 17.991875,11.7253125 C18.390625,11.50875 18.541875,11.006875 18.3253125,10.608125 L17.215,8.5559375 C17.33875,8.5353125 17.469375,8.525 17.6,8.525 C18.968125,8.525 20.075,9.631875 20.075,11 C20.075,12.368125 18.968125,13.475 17.6,13.475 C16.231875,13.475 15.125,12.368125 15.125,11 C15.125,10.360625 15.365625,9.7796875 15.764375,9.3396875 L15.764375,9.3396875 Z M4.57875,11.55 L6.813125,11.55 C6.5621875,12.6534375 5.575625,13.475 4.4,13.475 C3.031875,13.475 1.925,12.368125 1.925,11 C1.925,9.631875 3.031875,8.525 4.4,8.525 C4.4584375,8.525 4.516875,8.5284375 4.5753125,8.531875 L3.7434375,10.1990625 C3.4340625,10.82125 3.884375,11.5534375 4.57875,11.5534375 L4.57875,11.55 Z M5.7371875,9.9 L7.48,6.4178125 L9.9859375,9.8965625 L9.9825,9.9 L5.73375,9.9 L5.7371875,9.9 Z M8.8515625,5.5 L12.5778125,5.5 L10.896875,8.34625 L8.848125,5.5 L8.8515625,5.5 Z" id="🎨-Icon-Сolor"></path>
                </g>
            </g>
        </g>
    </g>
</svg>