<svg width="12" height="12" viewBox="0 0 12 12" fill="none" xmlns="http://www.w3.org/2000/svg">
<path d="M4.3125 1.625C4.19531 1.625 4.125 1.71875 4.125 1.8125V2.75H7.875V1.8125C7.875 1.71875 7.78125 1.625 7.6875 1.625H4.3125ZM3 1.8125C3 1.10938 3.58594 0.5 4.3125 0.5H7.6875C8.39062 0.5 9 1.10938 9 1.8125V2.75V3.5V11.75H3V3.5V2.75V1.8125ZM2.25 2.75V11.75H1.5C0.65625 11.75 0 11.0938 0 10.25V4.25C0 3.42969 0.65625 2.75 1.5 2.75H2.25ZM9.75 11.75V2.75H10.5C11.3203 2.75 12 3.42969 12 4.25V10.25C12 11.0938 11.3203 11.75 10.5 11.75H9.75ZM5.25 5.375V6.5H4.125C3.91406 6.5 3.75 6.6875 3.75 6.875V7.625C3.75 7.83594 3.91406 8 4.125 8H5.25V9.125C5.25 9.33594 5.41406 9.5 5.625 9.5H6.375C6.5625 9.5 6.75 9.33594 6.75 9.125V8H7.875C8.0625 8 8.25 7.83594 8.25 7.625V6.875C8.25 6.6875 8.0625 6.5 7.875 6.5H6.75V5.375C6.75 5.1875 6.5625 5 6.375 5H5.625C5.41406 5 5.25 5.1875 5.25 5.375Z" fill="#008296"/>
</svg>
