<?xml version="1.0" encoding="UTF-8"?>
<svg width="24px" height="24px" viewBox="0 0 24 24" version="1.1"
    xmlns="http://www.w3.org/2000/svg"
    xmlns:xlink="http://www.w3.org/1999/xlink">
    <g id="UI-Kit" stroke="none" stroke-width="1" fill-rule="evenodd">
        <g id="Icons" transform="translate(-280, -256)">
            <g id="Row-4" transform="translate(40, 256)">
                <g id="Icon/globe" transform="translate(242, 2)">
                    <path d="M10,0 C15.5234375,0 20,4.4765625 20,10 C20,15.5234375 15.5234375,20 10,20 C4.4765625,20 0,15.5234375 0,10 C0,4.4765625 4.4765625,0 10,0 Z M10,18.125 C10.2890625,18.125 11.0195312,17.84375 11.859375,16.234375 C12.203125,15.5429688 12.4648438,14.703125 12.71875,13.75 L7.28125,13.75 C7.5,14.703125 7.796875,15.5429688 8.140625,16.234375 C8.9453125,17.84375 9.7109375,18.125 10,18.125 Z M6.97265625,11.875 L13.0273438,11.875 C13.0898438,11.2773438 13.125,10.6484375 13.125,10 C13.125,9.3515625 13.0898438,8.72265625 13.0273438,8.125 L6.97265625,8.125 C6.91015625,8.72265625 6.875,9.3515625 6.875,10 C6.875,10.6484375 6.91015625,11.2773438 6.97265625,11.875 L6.97265625,11.875 Z M12.71875,6.25 C12.4648438,5.296875 12.203125,4.45703125 11.859375,3.76757812 C11.0195312,2.15703125 10.2890625,1.875 10,1.875 C9.7109375,1.875 8.9453125,2.15703125 8.140625,3.76757812 C7.796875,4.45703125 7.5,5.296875 7.28125,6.25 L12.71875,6.25 Z M14.9140625,8.125 C14.96875,8.73046875 15,9.359375 15,10 C15,10.640625 14.96875,11.2695312 14.9140625,11.875 L17.90625,11.875 C18.0507812,11.2734375 18.125,10.6445312 18.125,10 C18.125,9.35546875 18.0507812,8.7265625 17.90625,8.125 L14.9140625,8.125 L14.9140625,8.125 Z M13.3632812,2.60195312 C13.9140625,3.60390625 14.3515625,4.84765625 14.6367188,6.25 L17.2109375,6.25 C16.375,4.64453125 15.015625,3.3546875 13.3632812,2.60195312 Z M6.63671875,2.60191406 C4.984375,3.35464844 3.6265625,4.64449219 2.79023438,6.24996094 L5.36328125,6.24996094 C5.6484375,4.84761719 6.0859375,3.60386719 6.63671875,2.60191406 L6.63671875,2.60191406 Z M1.875,9.99996094 C1.875,10.6444922 1.95039063,11.2733984 2.09257813,11.8749609 L5.0859375,11.8749609 C5.03125,11.2694922 5,10.6405859 5,9.99996094 C5,9.35933594 5.03125,8.73042969 5.0859375,8.12496094 L2.09257813,8.12496094 C1.95039063,8.72652344 1.875,9.35542969 1.875,9.99996094 L1.875,9.99996094 Z M17.2109375,13.7499609 L14.6367188,13.7499609 C14.3515625,15.1523047 13.9140625,16.3944922 13.3632812,17.3983984 C15.015625,16.6444922 16.375,15.3554297 17.2109375,13.7499609 Z M5.36328125,13.7499609 L2.79023438,13.7499609 C3.6265625,15.3554297 4.984375,16.6444922 6.63671875,17.3983984 C6.0859375,16.3944922 5.6484375,15.1523047 5.36328125,13.7499609 L5.36328125,13.7499609 Z" id="🎨-Icon-Сolor"></path>
                </g>
            </g>
        </g>
    </g>
</svg>