<svg width="12" height="12" viewBox="0 0 12 12" fill="none"
	xmlns="http://www.w3.org/2000/svg">
	<path d="M3.75 4.25C3.75 4.57812 3.49219 4.8125 3.1875 4.8125C2.85938 4.8125 2.625 4.57812 2.625 4.25C2.625 2.60938 3.96094 1.25 5.625 1.25H6.35156C8.01562 1.25 9.35156 2.60938 9.35156 4.25V4.36719C9.35156 5.30469 8.88281 6.19531 8.10938 6.71094L6.89062 7.53125C6.67969 7.67188 6.5625 7.90625 6.5625 8.14062V8.1875C6.5625 8.51562 6.30469 8.75 6 8.75C5.67188 8.75 5.4375 8.51562 5.4375 8.1875V8.14062C5.4375 7.53125 5.74219 6.94531 6.25781 6.59375L7.47656 5.77344C7.96875 5.46875 8.25 4.92969 8.25 4.36719V4.25C8.25 3.21875 7.40625 2.375 6.375 2.375H5.625C4.57031 2.375 3.75 3.21875 3.75 4.25ZM6 11.75C5.57812 11.75 5.25 11.4219 5.25 11C5.25 10.6016 5.57812 10.25 6 10.25C6.39844 10.25 6.75 10.6016 6.75 11C6.75 11.4219 6.39844 11.75 6 11.75Z" fill="#008296"/>
</svg>
