<?xml version="1.0" encoding="UTF-8"?>
<svg width="24px" height="24px" viewBox="0 0 24 24" version="1.1"
    xmlns="http://www.w3.org/2000/svg"
    xmlns:xlink="http://www.w3.org/1999/xlink">
    <g id="UI-Kit" stroke="none" stroke-width="1" fill-rule="evenodd" fill="#8E8E93">
        <g id="Icons" transform="translate(-328.000000, -208.000000)">
            <g id="Row-3" transform="translate(40.000000, 208.000000)">
                <g id="Icon/play" transform="translate(292.000000, 2.375000)">
                    <path d="M1.05363672,0.263440753 C1.70418359,-0.101363935 2.50125391,-0.0863248721 3.13805078,0.302542315 L15.5117617,7.86332357 C16.1262148,8.24144857 16.500043,8.90746419 16.500043,9.62504232 C16.500043,10.3426204 16.1262148,11.0086361 15.5117617,11.3480892 L3.13805078,18.9105892 C2.50125391,19.3359798 1.70418359,19.3531673 1.05363672,18.9879329 C0.402960938,18.6226986 0,17.9351986 0,17.1875423 L0,2.06254232 C0,1.31660482 0.402917969,0.628675128 1.05359375,0.263440753 L1.05359375,0.263440753 L1.05363672,0.263440753 Z M2.06254297,17.1875423 L14.437543,9.62504232 L2.06254297,2.06254232 L2.06254297,17.1875423 Z" id="🎨-Icon-Сolor"></path>
                </g>
            </g>
        </g>
    </g>
</svg>