<svg width="18" height="14" viewBox="0 0 18 14" fill="none" xmlns="http://www.w3.org/2000/svg">
<path d="M8.25001 1.0835C8.25001 0.677246 8.56251 0.333496 9.00001 0.333496H10.2813C11.0313 0.333496 11.6875 0.833496 11.9375 1.521C12.3588 2.73234 12.5773 3.24356 13.4583 5.73975C13.5833 5.73975 13.7083 5.7085 13.8333 5.7085C15.1771 5.7085 16.4271 6.271 17.3333 7.146C17.6146 7.4585 17.6146 7.92725 17.3333 8.2085C17.0521 8.521 16.5521 8.521 16.2708 8.2085C15.6458 7.61475 14.7708 7.2085 13.8333 7.2085C12.0833 7.2085 10.6771 8.4585 10.3646 10.1147C10.3021 10.4585 9.98959 10.7397 9.64584 10.7397C8.37113 10.7397 8.95728 10.7085 7.66668 10.7085C7.66668 12.3647 6.32293 13.7085 4.66668 13.7085C3.01043 13.7085 1.66668 12.3647 1.66668 10.7085H1.33334C0.770844 10.7085 0.333344 10.271 0.333344 9.7085V8.7085C0.333344 8.2085 0.333493 7.7085 1.33334 7.7085H2.66668C3.16668 7.7085 3.66668 8.2085 4.66668 9.2085C6.96876 9.2085 7.60418 9.2085 9.23959 9.2085C9.33334 8.2085 10.7396 6.55225 11.9583 6.0835L10.5 2.021C10.4688 1.92725 10.375 1.8335 10.2813 1.8335H9.00001C8.56251 1.8335 8.25001 1.521 8.25001 1.0835ZM4.66668 12.2085C5.47918 12.2085 6.16668 11.5522 6.16668 10.7085H3.16668C3.16668 11.5522 3.82293 12.2085 4.66668 12.2085ZM13.8333 12.2085C14.3646 12.2085 14.8333 11.9272 15.1146 11.4585C15.3958 11.021 15.3958 10.4272 15.1146 9.9585C14.8333 9.521 14.3646 9.2085 13.8333 9.2085C13.2708 9.2085 12.8021 9.521 12.5208 9.9585C12.2396 10.4272 12.2396 11.021 12.5208 11.4585C12.8021 11.9272 13.2708 12.2085 13.8333 12.2085ZM13.8333 7.7085C14.8958 7.7085 15.8646 8.30225 16.4271 9.2085C16.9583 10.146 16.9583 11.3022 16.4271 12.2085C15.8646 13.146 14.8958 13.7085 13.8333 13.7085C12.7396 13.7085 11.7708 13.146 11.2083 12.2085C10.6771 11.3022 10.6771 10.146 11.2083 9.2085C11.7708 8.30225 12.7396 7.7085 13.8333 7.7085Z" fill="#8E8E93"/>
</svg>
