<?xml version="1.0" encoding="UTF-8"?>
<svg width="14px" height="14px" viewBox="0 0 14 14" version="1.1"
    xmlns="http://www.w3.org/2000/svg"
    xmlns:xlink="http://www.w3.org/1999/xlink">
    <g id="UI-Kit" stroke="none" stroke-width="1" fill-rule="evenodd">
        <g id="Map-markers" transform="translate(-153.000000, -257.000000)">
            <g id="Map/Blip/Starting-point" transform="translate(152.000000, 256.000000)">
                <circle id="Base" cx="8" cy="8" r="8"></circle>
                <path d="M8,1 C11.8659932,1 15,4.13400675 15,8 C15,11.8659932 11.8659932,15 8,15 C4.13400675,15 1,11.8659932 1,8 C1,4.13400675 4.13400675,1 8,1 Z M8,3 C5.23857625,3 3,5.23857625 3,8 C3,10.7614237 5.23857625,13 8,13 C10.7614237,13 13,10.7614237 13,8 C13,5.23857625 10.7614237,3 8,3 Z" id="Color" fill="#D1D1D6"></path>
            </g>
        </g>
    </g>
</svg>