<svg width="15" height="12" viewBox="0 0 15 12" fill="none" xmlns="http://www.w3.org/2000/svg">
<path d="M2.25 2.75C2.25 1.92969 2.90625 1.25 3.75 1.25H13.5C14.3203 1.25 15 1.92969 15 2.75V8C15 8.84375 14.3203 9.5 13.5 9.5H3.75C2.90625 9.5 2.25 8.84375 2.25 8V2.75ZM6.75 5.375C6.75 6.05469 7.10156 6.66406 7.6875 7.01562C8.25 7.34375 8.97656 7.34375 9.5625 7.01562C10.125 6.66406 10.5 6.05469 10.5 5.375C10.5 4.71875 10.125 4.10938 9.5625 3.75781C8.97656 3.42969 8.25 3.42969 7.6875 3.75781C7.10156 4.10938 6.75 4.71875 6.75 5.375ZM1.125 3.3125V8.9375C1.125 9.875 1.875 10.625 2.8125 10.625H12.1875C12.4922 10.625 12.75 10.8828 12.75 11.1875C12.75 11.5156 12.4922 11.75 12.1875 11.75H2.8125C1.24219 11.75 0 10.5078 0 8.9375V3.3125C0 3.00781 0.234375 2.75 0.5625 2.75C0.867188 2.75 1.125 3.00781 1.125 3.3125Z" fill="#008296"/>
</svg>
