<?xml version="1.0" encoding="UTF-8"?>
<svg width="24px" height="24px" viewBox="0 0 24 24" version="1.1"
    xmlns="http://www.w3.org/2000/svg"
    xmlns:xlink="http://www.w3.org/1999/xlink">
    <g id="UI-Kit" stroke="none" stroke-width="1" fill-rule="evenodd">
        <g id="Icons" transform="translate(-328.000000, -224.000000)">
            <g id="Row-3" transform="translate(40.000000, 224.000000)">
                <g id="Icon/car-solid" transform="translate(290.000000, 4.000000)">
                    <path d="M5.28125,3.43125 L4.26171875,6.42857143 L15.7382812,6.42857143 L14.71875,3.43125 C14.5429687,2.91696429 14.0703125,2.57142857 13.5390625,2.57142857 L6.4609375,2.57142857 C5.9296875,2.57142857 5.45703125,2.91696429 5.28125,3.43125 Z M1.546875,6.62142857 L2.921875,2.58348214 C3.44921875,1.03660714 4.8671875,0 6.4609375,0 L13.5390625,0 C15.1328125,0 16.5507812,1.03660714 17.078125,2.58348214 L18.453125,6.62142857 C19.359375,7.00714286 20,7.92723214 20,9 L20,14.7857143 L20,16.7142857 C20,17.4254464 19.4414062,18 18.75,18 L17.5,18 C16.8085938,18 16.25,17.4254464 16.25,16.7142857 L16.25,14.7857143 L3.75,14.7857143 L3.75,16.7142857 C3.75,17.4254464 3.19140625,18 2.5,18 L1.25,18 C0.55859375,18 0,17.4254464 0,16.7142857 L0,14.7857143 L0,9 C0,7.92723214 0.640625,7.00714286 1.546875,6.62142857 Z M5,10.2857143 C5,9.57455357 4.44140625,9 3.75,9 C3.05859375,9 2.5,9.57455357 2.5,10.2857143 C2.5,10.996875 3.05859375,11.5714286 3.75,11.5714286 C4.44140625,11.5714286 5,10.996875 5,10.2857143 Z M16.25,11.5714286 C16.9414062,11.5714286 17.5,10.996875 17.5,10.2857143 C17.5,9.57455357 16.9414062,9 16.25,9 C15.5585938,9 15,9.57455357 15,10.2857143 C15,10.996875 15.5585938,11.5714286 16.25,11.5714286 Z" id="🎨-Icon-Сolor"></path>
                </g>
            </g>
        </g>
    </g>
</svg>