<?xml version="1.0" encoding="UTF-8"?>
<svg width="40px" height="40px" viewBox="0 0 40 40" version="1.1"
    xmlns="http://www.w3.org/2000/svg"
    xmlns:xlink="http://www.w3.org/1999/xlink">
    <defs>
        <linearGradient x1="9.02056208e-15%" y1="77.39612%" x2="100%" y2="22.60388%" id="linearGradient-1">
            <stop stop-color="#005276" offset="0%"></stop>
            <stop stop-color="#007FAA" offset="49.6546329%"></stop>
            <stop stop-color="#007FAA" offset="100%"></stop>
        </linearGradient>
        <linearGradient x1="100%" y1="22.60388%" x2="9.02056208e-15%" y2="77.39612%" id="linearGradient-2">
            <stop stop-color="#7CE8F4" stop-opacity="0.367105551" offset="0%"></stop>
            <stop stop-color="#7CE8F4" stop-opacity="0" offset="100%"></stop>
        </linearGradient>
        <linearGradient x1="100%" y1="22.60388%" x2="9.02056208e-15%" y2="77.39612%" id="linearGradient-3">
            <stop stop-color="#38EF7D" stop-opacity="0.549524694" offset="0%"></stop>
            <stop stop-color="#38EF7D" stop-opacity="0" offset="100%"></stop>
        </linearGradient>
        <path d="M23.3166726,20.5853125 C23.1311257,20.7708594 23.1311257,21.071475 23.3166726,21.2568438 L25.9077976,23.8479687 C25.9968601,23.9370313 26.1174507,23.9871438 26.2436226,23.9871438 C26.342007,23.9760109 26.4969163,23.9332906 26.5869288,23.8405469 L32.0280538,18.1405469 C32.2098601,17.9503688 32.2024976,17.6497531 32.0132101,17.4690156 C31.823032,17.28905 31.5233663,17.2955219 31.3416788,17.4838594 L26.2366163,22.8323594 L23.9886788,20.5856094 C23.8035476,20.40125 23.5007351,20.40125 23.3166726,20.5853125 L23.3166726,20.5853125 Z" id="path-4"></path>
    </defs>
    <g id="UI-kit" stroke="none" stroke-width="1" fill="none" fill-rule="evenodd">
        <g id="Icons" transform="translate(-104.000000, -176.000000)">
            <g id="Icon/Help" transform="translate(105.000000, 180.800000)">
                <path d="M13.5791726,4.75 L10.8835476,4.75 C9.46448508,4.75 8.31261008,5.9006875 8.31261008,7.315 C8.31261008,7.57755625 8.52505383,7.79 8.78761008,7.79 C9.05016633,7.79 9.26261008,7.57755625 9.26261008,7.315 C9.26261008,6.424375 9.99292258,5.7 10.8835476,5.7 L13.5815476,5.7 C14.5529226,5.7 15.4376101,6.4778125 15.4376101,7.5525 C15.4376101,8.257875 15.0442507,8.89140625 14.4056726,9.20965625 L12.1304226,10.3846875 C11.9760476,10.4678125 11.8751101,10.628125 11.8751101,10.80625 L11.8751101,12.35 C11.8751101,12.6125562 12.0875538,12.825 12.3501101,12.825 C12.6126663,12.825 12.8251101,12.61125 12.8251101,12.35 L12.8251101,11.0971875 L14.8355476,10.0563437 C15.7404226,9.5771875 16.3876101,8.6153125 16.3876101,7.5525 C16.3876101,6.00875 15.1288601,4.75 13.5791726,4.75 Z M12.3501101,14.523125 C11.9760476,14.523125 11.6732351,14.8259375 11.6732351,15.2 C11.6732351,15.5740031 11.9764632,15.8774688 12.3507038,15.8774688 C12.7249445,15.8774688 13.0269851,15.5740625 13.0269851,15.2 C13.0269851,14.8259375 12.7241726,14.523125 12.3501101,14.523125 L12.3501101,14.523125 Z M24.7001101,10.45 C24.7001101,4.67875 19.1722976,0 12.3501101,0 C5.52792258,0 0,4.67875 0,10.45 C0,12.7994687 0.927547579,14.960125 2.47426633,16.708125 C1.50111008,18.65325 0.144985079,20.1115 0.123610079,20.132875 C-0.00107742051,20.2637969 -0.0349211705,20.4579531 0.0380507045,20.6288937 C0.112922579,20.7990625 0.273353829,20.9 0.454922579,20.9 C2.73195383,20.9 4.65629758,20.23975 6.13948508,19.472625 C7.96823508,20.3715625 10.0819851,20.9 12.3501101,20.9 C19.1722976,20.9 24.7001101,16.22125 24.7001101,10.45 Z M12.3501101,19.95 C10.3230476,19.95 8.32092258,19.4903188 6.56045383,18.6205938 L6.12761008,18.40625 L5.70307883,18.6259375 C4.35882883,19.3212187 2.97004758,19.7445625 1.56167258,19.8900312 C2.07425695,19.23275 2.75629758,18.2631563 3.32451633,17.1279063 L3.61177258,16.5535125 L3.18557883,16.0728125 C1.72317258,14.3746875 0.950110079,12.480625 0.950110079,10.45 C0.950110079,5.2119375 6.06407883,0.95 12.3501101,0.95 C18.6361413,0.95 23.7501101,5.2119375 23.7501101,10.45 C23.7501101,15.6880625 18.6379226,19.95 12.3501101,19.95 Z M35.6013601,26.3446875 C37.0976101,24.5753125 38.0001101,22.360625 38.0001101,19.95 C38.0001101,14.6335625 33.7191726,10.2540625 28.0607351,9.595 C27.7690851,9.56078812 27.5183445,9.8021 27.5364538,10.095175 C27.5504663,10.3227 27.7252663,10.5076531 27.9517226,10.5344312 C33.0779226,11.13875 37.0501101,15.12875 37.0501101,19.95 C37.0501101,22.05425 36.2984226,24.054 34.8757976,25.7325313 L34.4650413,26.2175062 L34.7565726,26.7822813 C35.3057913,27.8462813 35.9529788,28.763625 36.4416351,29.3924063 C35.1181663,29.254775 33.8071663,28.8694906 32.5317913,28.2417188 L32.1058351,28.0321844 L31.682432,28.2471813 C30.1329226,28.9809375 28.3754226,29.45 26.6001101,29.45 C22.2312976,29.45 18.4894851,26.9960313 16.9338601,23.5279375 C16.8426007,23.324875 16.6221413,23.2135469 16.4049476,23.2624719 L16.3835726,23.2673406 C16.0950695,23.3324156 15.9426538,23.6455 16.0636007,23.9151219 C17.7650507,27.71625 21.8381757,30.4 26.6000507,30.4 C28.6003945,30.4 30.4784257,29.924525 32.1130195,29.0949375 C33.5588007,29.80625 35.3934882,30.4 37.5428632,30.4 C37.7244913,30.4 37.8848632,30.2975781 37.9596757,30.1265781 C38.0326476,29.9556375 37.9987445,29.7615406 37.8741163,29.6305594 C37.8575507,29.6103125 36.5691132,28.2209375 35.6013007,26.3446875 L35.6013601,26.3446875 Z" id="Shape" fill="#232F3E"></path>
                <g id="Path">
                    <use fill="url(#linearGradient-1)" xlink:href="#path-4"></use>
                    <use fill="url(#linearGradient-2)" xlink:href="#path-4"></use>
                    <use fill="url(#linearGradient-3)" xlink:href="#path-4"></use>
                </g>
            </g>
        </g>
    </g>
</svg>