<?xml version="1.0" encoding="UTF-8"?>
<svg width="24px" height="24px" viewBox="0 0 24 24" version="1.1"
    xmlns="http://www.w3.org/2000/svg"
    xmlns:xlink="http://www.w3.org/1999/xlink">
    <g id="UI-Kit" stroke="none" stroke-width="1" fill-rule="evenodd">
        <g id="Icons" transform="translate(-328.000000, -160.000000)">
            <g id="Row-2" transform="translate(40.000000, 160.000000)">
                <g id="Icon/trash" transform="translate(291.000000, 2.000000)">
                    <path d="M17.0357143,3.125 C17.5700893,3.125 18,3.54492188 18,4.0625 C18,4.58203125 17.5700893,5 17.0357143,5 L16.5696429,5 L15.6053571,17.6835938 C15.5049107,18.9882812 14.3879464,20 13.0419643,20 L4.95803571,20 C3.61285714,20 2.4946875,18.9882812 2.39504464,17.6835938 L1.42875,5 L0.964285714,5 C0.431919643,5 0,4.58203125 0,4.0625 C0,3.54492188 0.431919643,3.125 0.964285714,3.125 L3.76955357,3.125 L5.24330357,0.97421875 C5.66116071,0.365507813 6.36428571,0 7.115625,0 L10.884375,0 C11.6357143,0 12.3388393,0.365546875 12.7566964,0.97421875 L14.23125,3.125 L17.0357143,3.125 Z M7.115625,1.875 C7.01116071,1.875 6.87455357,1.92734375 6.85044643,2.0140625 L6.08705357,3.125 L11.9129464,3.125 L11.1495536,2.0140625 C11.0892857,1.92734375 10.9888393,1.875 10.884375,1.875 L7.115625,1.875 Z M14.6370536,5 L3.36254464,5 L4.31919643,17.546875 C4.34330357,17.8710938 4.62455357,18.125 4.95803571,18.125 L13.0419643,18.125 C13.3754464,18.125 13.6566964,17.8710938 13.6808036,17.546875 L14.6370536,5 L14.6370536,5 Z" id="🎨-Icon-Сolor"></path>
                </g>
            </g>
        </g>
    </g>
</svg>