<svg width="21" height="21" viewBox="0 0 21 21" fill="none" xmlns="http://www.w3.org/2000/svg">
<path d="M11.4375 1.4375V3.9375C11.4375 4.48438 11.0078 4.875 10.5 4.875C9.95312 4.875 9.5625 4.48438 9.5625 3.9375V1.4375C9.5625 0.929688 9.95312 0.5 10.5 0.5C11.0078 0.5 11.4375 0.929688 11.4375 1.4375ZM17.5703 4.75781L15.7734 6.55469C15.4219 6.90625 14.8359 6.90625 14.4453 6.55469C14.0938 6.16406 14.0938 5.57812 14.4453 5.22656L16.2422 3.42969C16.5938 3.07812 17.1797 3.07812 17.5703 3.42969C17.9219 3.82031 17.9219 4.40625 17.5703 4.75781ZM4.71875 3.42969L6.51562 5.22656C6.86719 5.57812 6.86719 6.16406 6.51562 6.55469C6.125 6.90625 5.53906 6.90625 5.1875 6.55469L3.42969 4.75781C3.03906 4.40625 3.03906 3.82031 3.42969 3.42969C3.78125 3.07812 4.36719 3.07812 4.71875 3.42969ZM1.4375 9.5625H3.9375C4.44531 9.5625 4.875 9.99219 4.875 10.5C4.875 11.0469 4.44531 11.4375 3.9375 11.4375H1.4375C0.890625 11.4375 0.5 11.0469 0.5 10.5C0.5 9.99219 0.890625 9.5625 1.4375 9.5625ZM17.0625 9.5625H19.5625C20.0703 9.5625 20.5 9.99219 20.5 10.5C20.5 11.0469 20.0703 11.4375 19.5625 11.4375H17.0625C16.5156 11.4375 16.125 11.0469 16.125 10.5C16.125 9.99219 16.5156 9.5625 17.0625 9.5625ZM6.51562 15.8125L4.71875 17.5703C4.36719 17.9609 3.78125 17.9609 3.42969 17.5703C3.03906 17.2188 3.03906 16.6328 3.42969 16.2812L5.1875 14.4844C5.53906 14.1328 6.125 14.1328 6.51562 14.4844C6.86719 14.875 6.86719 15.4609 6.51562 15.8125ZM15.7734 14.4844L17.5703 16.2812C17.9219 16.6328 17.9219 17.2188 17.5703 17.5703C17.1797 17.9609 16.5938 17.9609 16.2422 17.5703L14.4453 15.8125C14.0938 15.4609 14.0938 14.875 14.4453 14.4844C14.8359 14.1328 15.4219 14.1328 15.7734 14.4844ZM11.4375 17.0625V19.5625C11.4375 20.1094 11.0078 20.5 10.5 20.5C9.95312 20.5 9.5625 20.1094 9.5625 19.5625V17.0625C9.5625 16.5547 9.95312 16.125 10.5 16.125C11.0078 16.125 11.4375 16.5547 11.4375 17.0625ZM13 10.5C13 9.64062 12.4922 8.82031 11.75 8.35156C10.9688 7.92188 9.99219 7.92188 9.25 8.35156C8.46875 8.82031 8 9.64062 8 10.5C8 11.3984 8.46875 12.2188 9.25 12.6875C9.99219 13.1172 10.9688 13.1172 11.75 12.6875C12.4922 12.2188 13 11.3984 13 10.5ZM6.125 10.5C6.125 8.9375 6.94531 7.53125 8.3125 6.75C9.64062 5.92969 11.3203 5.92969 12.6875 6.75C14.0156 7.53125 14.875 8.9375 14.875 10.5C14.875 12.1016 14.0156 13.5078 12.6875 14.2891C11.3203 15.1094 9.64062 15.1094 8.3125 14.2891C6.94531 13.5078 6.125 12.1016 6.125 10.5Z" fill="#008296"/>
</svg>
