<?xml version="1.0" encoding="UTF-8"?>
<svg width="24px" height="24px" viewBox="0 0 24 24" version="1.1"
    xmlns="http://www.w3.org/2000/svg"
    xmlns:xlink="http://www.w3.org/1999/xlink">
    <g id="UI-Kit" stroke="none" stroke-width="1" fill-rule="evenodd">
        <g id="Icons" transform="translate(-184.000000, -272.000000)">
            <g id="Row-4" transform="translate(40.000000, 272.000000)">
                <g id="Icon/truck-solid" transform="translate(145.000000, 4.000000)">
                    <path d="M1.65,0 C0.7390625,0 0,0.7390625 0,1.65 L0,12.65 C0,13.5609375 0.7390625,14.3 1.65,14.3 L2.2,14.3 C2.2,16.121875 3.678125,17.6 5.5,17.6 C7.321875,17.6 8.8,16.121875 8.8,14.3 L13.2,14.3 C13.2,16.121875 14.678125,17.6 16.5,17.6 C18.321875,17.6 19.8,16.121875 19.8,14.3 L20.9,14.3 C21.5084375,14.3 22,13.8084375 22,13.2 C22,12.5915625 21.5084375,12.1 20.9,12.1 L20.9,9.9 L20.9,8.8 L20.9,8.1571875 C20.9,7.5728125 20.6696875,7.0125 20.2571875,6.6 L17.6,3.9428125 C17.1875,3.5303125 16.6271875,3.3 16.0428125,3.3 L14.3,3.3 L14.3,1.65 C14.3,0.7390625 13.5609375,0 12.65,0 L1.65,0 Z M14.3,5.5 L16.0428125,5.5 L18.7,8.1571875 L18.7,8.8 L14.3,8.8 L14.3,5.5 Z M7.15,14.3 C7.15,15.2109375 6.4109375,15.95 5.5,15.95 C4.5890625,15.95 3.85,15.2109375 3.85,14.3 C3.85,13.3890625 4.5890625,12.65 5.5,12.65 C6.4109375,12.65 7.15,13.3890625 7.15,14.3 Z M16.5,15.95 C15.5890625,15.95 14.85,15.2109375 14.85,14.3 C14.85,13.3890625 15.5890625,12.65 16.5,12.65 C17.4109375,12.65 18.15,13.3890625 18.15,14.3 C18.15,15.2109375 17.4109375,15.95 16.5,15.95 Z" id="🎨-Icon-Сolor"></path>
                </g>
            </g>
        </g>
    </g>
</svg>