<svg xmlns="http://www.w3.org/2000/svg" viewBox="0 0 32 32">
	<path fill="#008296" fill-rule="evenodd" d="M27.333 2.667h-6.666c-.92 0-1.667.746-1.667 1.666v1.25c0 .92.746 1.667 1.667 1.667h.833a.833.833 0 1 1 0 1.667h-.833c-.92 0-1.667.746-1.667 1.666v1.25c0 .92.746 1.667 1.667 1.667h1.666a2.5 2.5 0 0 0 5 0H29c.92 0 1.667-.746 1.667-1.667V6a3.335 3.335 0 0 0-3.334-3.333ZM29 11.833h-2.5a.836.836 0 0 0-.833.834v.833a.836.836 0 0 1-.834.833A.836.836 0 0 1 24 13.5v-.833a.833.833 0 0 0-.833-.834h-2.5v-1.25h.833a2.5 2.5 0 1 0 0-5h-.833v-1.25h6.666C28.253 4.333 29 5.08 29 6v5.833Zm-3.333 5h-3.334a.833.833 0 0 0-.833.834v1.666a.833.833 0 0 1-1.667 0v-1.666a.833.833 0 0 0-.833-.834h-2.5V7.667c0-.92-.746-1.667-1.667-1.667h-7.5A3.333 3.333 0 0 0 4 9.333V26a3.333 3.333 0 0 0 3.333 3.333H24A3.333 3.333 0 0 0 27.333 26v-7.5c0-.922-.744-1.667-1.666-1.667Zm-20-7.5c0-.92.746-1.666 1.666-1.666h7.5v9.166h-1.666V16a2.5 2.5 0 1 0-5 0v.833h-2.5v-7.5Zm9.166 18.334h-7.5c-.92 0-1.666-.747-1.666-1.667v-7.5H9c.46 0 .833-.373.833-.833V16a.833.833 0 1 1 1.667 0v1.667c0 .46.373.833.833.833h2.5v1.667H14a2.5 2.5 0 1 0 0 5h.833v2.5ZM25.667 26c0 .92-.747 1.667-1.667 1.667h-7.5v-3.334a.833.833 0 0 0-.833-.833H14a.833.833 0 0 1 0-1.667h1.667c.46 0 .833-.373.833-.833v-2.5h1.667v.833a2.5 2.5 0 1 0 5 0V18.5h2.5V26Z"/>
</svg>