<svg width="15" height="13" viewBox="0 0 15 13" fill="none" xmlns="http://www.w3.org/2000/svg">
<path d="M0.84375 5C0.375 5 0 4.625 0 4.15625C0 3.96875 0.046875 3.80469 0.140625 3.66406L1.89844 1.01562C2.10938 0.6875 2.46094 0.5 2.83594 0.5H12.1406C12.5156 0.5 12.8672 0.6875 13.0781 1.01562L14.8359 3.66406C14.9297 3.80469 15 3.96875 15 4.15625C15 4.625 14.6016 5 14.1328 5H0.84375ZM1.5 5.75H3V9.5H7.5V5.75H9V9.5V11.375C9 12.0078 8.48438 12.5 7.875 12.5H2.625C1.99219 12.5 1.5 12.0078 1.5 11.375V9.5V5.75ZM12 5.75H13.5V11.75C13.5 12.1719 13.1484 12.5 12.75 12.5C12.3281 12.5 12 12.1719 12 11.75V5.75Z" fill="#008296"/>
</svg>
