<?xml version="1.0" encoding="UTF-8"?>
<svg width="24px" height="24px" viewBox="0 0 24 24" version="1.1"
    xmlns="http://www.w3.org/2000/svg"
    xmlns:xlink="http://www.w3.org/1999/xlink">
    <g id="UI-Kit" stroke="none" stroke-width="1" fill-rule="evenodd">
        <g id="Icons" transform="translate(-376.000000, -320.000000)">
            <g id="Row-5" transform="translate(40.000000, 320.000000)">
                <g id="Icon/lock-solid" transform="translate(339.000000, 2.000000)">
                    <path d="M9,2.5 C10.7758929,2.5 12.2142857,3.8984375 12.2142857,5.625 L12.2142857,7.5 L5.78571429,7.5 L5.78571429,5.625 C5.78571429,3.8984375 7.22410714,2.5 9,2.5 Z M3.21428571,5.625 L3.21428571,7.5 L2.57142857,7.5 C1.153125,7.5 0,8.62109375 0,10 L0,17.5 C0,18.8789062 1.153125,20 2.57142857,20 L15.4285714,20 C16.846875,20 18,18.8789062 18,17.5 L18,10 C18,8.62109375 16.846875,7.5 15.4285714,7.5 L14.7857143,7.5 L14.7857143,5.625 C14.7857143,2.51953125 12.1941964,0 9,0 C5.80580357,0 3.21428571,2.51953125 3.21428571,5.625 Z M10.2857143,12.5 L10.2857143,15 C10.2857143,15.6914062 9.71116071,16.25 9,16.25 C8.28883929,16.25 7.71428571,15.6914062 7.71428571,15 L7.71428571,12.5 C7.71428571,11.8085938 8.28883929,11.25 9,11.25 C9.71116071,11.25 10.2857143,11.8085938 10.2857143,12.5 Z" id="🎨-Icon-Сolor"></path>
                </g>
            </g>
        </g>
    </g>
</svg>