<?xml version="1.0" encoding="UTF-8"?>
<svg width="24px" height="24px" viewBox="0 0 24 24" version="1.1"
    xmlns="http://www.w3.org/2000/svg"
    xmlns:xlink="http://www.w3.org/1999/xlink">
    <g id="UI-Kit" stroke="none" stroke-width="1" fill-rule="evenodd">
        <g id="Icons" transform="translate(-88.000000, -320.000000)" fill-rule="nonzero">
            <g id="Row-5" transform="translate(40.000000, 320.000000)">
                <g id="Icon" transform="translate(50.000000, 0.000000)">
                    <polyline id="Path" fill="#B7CA9D" points="1.28835938 16.5983295 1.45835938 16.7885484 10.0454688 19.1880016 10.084375 17.7006748 4.0703125 16.212963 3.77601563 16.1083041 1.28835938 16.5983295"></polyline>
                    <polyline id="Path" fill="#B7CA9D" points="18.7113281 16.5983295 9.94140625 19.4839575 9.9153125 17.7006748 15.9292969 16.212963 16.1914062 15.9221669 18.7113281 16.5983295"></polyline>
                    <polyline id="Path" fill="#3C4929" points="9.9153125 6.40467718 15.9292969 7.7863439 18.5742188 7.66266313 18.7113281 7.40136247 10.3320313 4.42817216 9.9153125 6.40467718"></polyline>
                    <polyline id="Path" fill="#759C3E" points="4.0703125 16.212963 1.28835938 16.5983295 1.2109375 16.3136173 1.2109375 7.70116897 1.28835938 7.40136247 3.80210938 7.58565144 4.0703125 7.78665195 4.0703125 16.212963"></polyline>
                    <polyline id="Path" fill="#3C4929" points="10.084375 6.40467718 4.0703125 7.7863439 1.28835938 7.40136247 1.39320313 7.23909883 10.0454688 4.81169037 10.084375 6.40467718"></polyline>
                    <path d="M9.98796875,0 L0,4.96964135 L0.004765625,19.032977 L9.98796875,24 L10.1367188,23.7773592 L10.1367188,0.288793836 L9.98796875,0 Z M7.06734375,18.307989 L1.28835938,16.5983295 L1.28835938,7.40136247 L7.06734375,5.69231905 L7.06734375,18.307989 Z M15.9292969,16.212963 L18.7113281,16.5983295 L18.8671875,16.3264782 L18.8671875,7.66266313 L18.7113281,7.40136247 L15.9292969,7.78665195 L15.9292969,16.212963" id="Shape" fill="#4B612C"></path>
                    <path d="M9.98796875,24 L19.9952344,19.0332851 L20,4.97002641 L9.98796875,0 L9.98796875,24 Z M12.9322656,5.69231905 L18.7113281,7.40136247 L18.7113281,16.5983295 L12.9322656,18.307989 L12.9322656,5.69231905 Z" id="Shape" fill="#759C3E"></path>
                </g>
            </g>
        </g>
    </g>
</svg>