<svg width="12" height="12" viewBox="0 0 12 12" fill="none" xmlns="http://www.w3.org/2000/svg">
<path d="M0 2.75C0 1.92969 0.65625 1.25 1.5 1.25H10.5C11.3203 1.25 12 1.92969 12 2.75V10.25C12 11.0938 11.3203 11.75 10.5 11.75H1.5C0.65625 11.75 0 11.0938 0 10.25V2.75ZM9.75 4.25C10.1484 4.25 10.5 3.92188 10.5 3.5C10.5 3.10156 10.1484 2.75 9.75 2.75C9.32812 2.75 9 3.10156 9 3.5C9 3.92188 9.32812 4.25 9.75 4.25ZM6.75 3.5C6.75 3.92188 7.07812 4.25 7.5 4.25C7.89844 4.25 8.25 3.92188 8.25 3.5C8.25 3.10156 7.89844 2.75 7.5 2.75C7.07812 2.75 6.75 3.10156 6.75 3.5ZM5.25 4.25C5.64844 4.25 6 3.92188 6 3.5C6 3.10156 5.64844 2.75 5.25 2.75C4.82812 2.75 4.5 3.10156 4.5 3.5C4.5 3.92188 4.82812 4.25 5.25 4.25Z" fill="#008296"/>
</svg>
