<?xml version="1.0" encoding="UTF-8"?>
<svg width="24px" height="24px" viewBox="0 0 24 24" version="1.1" xmlns="http://www.w3.org/2000/svg" xmlns:xlink="http://www.w3.org/1999/xlink">
    <title>icon-copy@1x</title>
    <g id="UI-Kit" stroke="none" stroke-width="1" fill-rule="evenodd">
        <g id="Icons" transform="translate(-472.000000, -160.000000)">
            <g id="Row-2" transform="translate(40.000000, 160.000000)">
                <g id="Icon/copy" transform="translate(435.000000, 3.000000)">
                    <path d="M17.6695722,2.48308594 L15.5162898,0.329765625 C15.3071137,0.118511719 15.0188376,0 14.7200147,0 L8.96855329,0 C7.72580169,0 6.71859284,1.00757812 6.71859284,2.25 L6.71926079,11.25 C6.75019775,12.4945312 7.75918197,13.5 9.0001582,13.5 L15.7500396,13.5 C16.9875178,13.5 18,12.4875 18,11.25 L18,3.27832031 C18,2.98019531 17.8804709,2.69402344 17.6695371,2.48308594 L17.6695722,2.48308594 Z M16.3125648,11.25 C16.3125648,11.5606406 16.0607099,11.8125 15.7500747,11.8125 L8.96855329,11.8125 C8.65784781,11.8125 8.40606317,11.5606406 8.40606317,11.25 L8.40606317,2.25457031 C8.40606317,1.94392969 8.65791812,1.69207031 8.96855329,1.69207031 L13.4684742,1.69207031 L13.5001143,3.375 C13.5001143,3.99621094 14.0038945,4.5 14.6250945,4.5 L16.2809247,4.5 L16.2809247,11.25 L16.3125648,11.25 Z M9.56268347,15.75 C9.56268347,16.0606406 9.31082852,16.3125 9.00019336,16.3125 L2.21867194,16.3125 C1.90796646,16.3125 1.65618182,16.0606406 1.65618182,15.75 L1.68711878,6.75351562 C1.68711878,6.442875 1.93897373,6.19101563 2.24960889,6.19101563 L5.62525268,6.19101563 L5.62525268,4.5 L2.24996045,4.5 C1.00720886,4.5 0,5.50722656 0,6.75 L0.000344525194,15.75 C0.000414836458,16.9910156 1.00791197,18 2.25030498,18 L9.00018632,18 C10.2376646,18 11.2501468,16.9875 11.2501468,15.75 L11.2501468,14.625 L9.59431651,14.625 L9.56267644,15.75 L9.56268347,15.75 Z" id="🎨-Icon-Сolor"></path>
                </g>
            </g>
        </g>
    </g>
</svg>