<svg width="12" height="13" viewBox="0 0 12 13" fill="none" xmlns="http://www.w3.org/2000/svg">
<path d="M2.625 3.875C2.625 2.67969 3.25781 1.57812 4.3125 0.96875C5.34375 0.359375 6.63281 0.359375 7.6875 0.96875C8.71875 1.57812 9.375 2.67969 9.375 3.875C9.375 5.09375 8.71875 6.19531 7.6875 6.80469C6.63281 7.41406 5.34375 7.41406 4.3125 6.80469C3.25781 6.19531 2.625 5.09375 2.625 3.875ZM6 2.375C6.1875 2.375 6.375 2.21094 6.375 2C6.375 1.8125 6.1875 1.625 6 1.625C4.75781 1.625 3.75 2.63281 3.75 3.875C3.75 4.08594 3.91406 4.25 4.125 4.25C4.3125 4.25 4.5 4.08594 4.5 3.875C4.5 3.05469 5.15625 2.375 6 2.375ZM5.25 11.75V7.95312C5.48438 7.97656 5.74219 8 6 8C6.23438 8 6.49219 7.97656 6.75 7.95312V11.75C6.75 12.1719 6.39844 12.5 6 12.5C5.57812 12.5 5.25 12.1719 5.25 11.75Z" fill="#008296"/>
</svg>
