<?xml version="1.0" encoding="UTF-8"?>
<svg width="24px" height="24px" viewBox="0 0 24 24" version="1.1" xmlns="http://www.w3.org/2000/svg" xmlns:xlink="http://www.w3.org/1999/xlink">
    <defs>
        <path d="M17,7.50044879 C17,8.01805559 16.5908745,8.43839137 16.0870722,8.43839137 L3.19011407,8.43839137 L8.23574144,13.3839778 C8.60171103,13.7414195 8.61444867,14.3375463 8.26653992,14.7098325 C7.91825095,15.0844627 7.34106464,15.0977446 6.97604563,14.7414749 L0.284030418,8.17861135 C0.102281369,8.00399231 0,7.75788492 0,7.50005814 C0,7.24223136 0.101901141,7.00003044 0.282509506,6.82033299 L6.97452471,0.25746944 C7.33764259,-0.0976283556 7.91558935,-0.0843463698 8.26539924,0.290674404 C8.61330798,0.661788712 8.60038023,1.25752484 8.23422053,1.6165291 L3.18859316,6.56211556 L16.1201521,6.56211556 C16.6224335,6.56250621 16.9988593,6.98440458 16.9988593,7.50005814 L17,7.50044879 Z" id="path-1"></path>
    </defs>
    <g id="UI-Kit" stroke="none" stroke-width="1" fill-rule="evenodd">
        <g id="Icons" transform="translate(-40.000000, -256.000000)">
            <g id="Row-4" transform="translate(40.000000, 256.000000)">
                <g id="Icon/arrow-left" transform="translate(3.500000, 4.500000)">
                    <mask id="mask-2">
                        <use xlink:href="#path-1"></use>
                    </mask>
                    <use id="🎨-Icon-Сolor" xlink:href="#path-1"></use>
                </g>
            </g>
        </g>
    </g>
</svg>