<svg width="12" height="12" viewBox="0 0 12 12" fill="none" xmlns="http://www.w3.org/2000/svg">
<path d="M9.1094 4.25398C9.79338 5.02381 10.2083 6.03636 10.2083 7.14583C10.2083 9.55057 8.25891 11.5 5.85417 11.5C3.44943 11.5 1.5 9.55057 1.5 7.14583C1.5 6.03636 1.91496 5.02381 2.59814 4.25491C2.63853 4.36615 2.68369 4.48443 2.73464 4.60876C2.81548 4.80591 2.90713 5.00964 3.00791 5.21809C2.63457 5.76803 2.41667 6.43148 2.41667 7.14583C2.41667 9.04431 3.95569 10.5833 5.85417 10.5833C7.75265 10.5833 9.29167 9.04431 9.29167 7.14583C9.29167 6.43109 9.07353 5.76729 8.70019 5.21739L8.8378 4.92363L8.9737 4.60876C9.0246 4.48443 9.06973 4.36615 9.1094 4.25398ZM3.52181 6.18769C3.59993 6.32652 3.68125 6.46533 3.76478 6.60445C4.26542 7.44369 5.50057 9.01411 5.85417 9.01411C6.20777 9.01411 7.25517 7.7584 7.94355 6.60445C8.02689 6.46533 8.10808 6.32652 8.18667 6.18848C8.30801 6.48309 8.375 6.80664 8.375 7.14583C8.375 8.53805 7.24638 9.66667 5.85417 9.66667C4.46195 9.66667 3.33333 8.53805 3.33333 7.14583C3.33333 6.80664 3.40033 6.48309 3.52181 6.18769ZM5.85417 0.5C7.33669 0.5 8.53365 1.73343 8.53365 3.24716C8.53365 3.52822 8.44115 3.89602 8.26327 4.33052C8.09875 4.73094 7.86565 5.17996 7.57739 5.66113C7.20533 6.28483 6.82846 6.82694 6.2229 7.64722L5.85252 8.14892L5.48428 7.64565L5.1454 7.18251C4.74667 6.6304 4.41907 6.14411 4.13162 5.66227C3.84324 5.182 3.6097 4.73199 3.4449 4.33013C3.26717 3.89641 3.17468 3.52845 3.17468 3.24716C3.17468 1.73343 4.37164 0.5 5.85417 0.5Z" fill="#008296"/>
</svg>
