<?xml version="1.0" encoding="UTF-8"?>
<svg width="24px" height="24px" viewBox="0 0 24 24" version="1.1"
    xmlns="http://www.w3.org/2000/svg"
    xmlns:xlink="http://www.w3.org/1999/xlink">
    <defs>
        <path d="M16.4570692,7.15961596 C16.3359538,7.25412541 14.1976416,8.46594659 14.1976416,11.1605161 C14.1976416,14.2772277 16.9185604,15.379838 17,15.4071407 C16.9874708,15.4743474 16.5677435,16.9171917 15.5654097,18.3873387 C14.671662,19.6810681 13.7382385,20.9726973 12.3182656,20.9726973 C10.8982926,20.9726973 10.5328584,20.1431143 8.89362486,20.1431143 C7.29615526,20.1431143 6.72816607,21 5.42930844,21 C4.1304508,21 3.22417393,19.8028803 2.18216435,18.3327333 C0.975187323,16.6063606 0,13.9243924 0,11.3789379 C0,7.29612961 2.63947918,5.13081308 5.23719445,5.13081308 C6.61749171,5.13081308 7.76808746,6.04230423 8.63468861,6.04230423 C9.45952586,6.04230423 10.7458543,5.07620762 12.3161774,5.07620762 C12.9113131,5.07620762 15.0496254,5.13081308 16.4570692,7.15961596 Z M11.5706916,3.34773477 C12.2201204,2.57275728 12.6795234,1.49744974 12.6795234,0.422142214 C12.6795234,0.273027303 12.6669942,0.121812181 12.6398477,0 C11.5832207,0.0399039904 10.326127,0.707770777 9.56811203,1.5919592 C8.97297629,2.27242724 8.41751628,3.34773477 8.41751628,4.43774377 C8.41751628,4.60156016 8.44466282,4.76537654 8.45719199,4.81788179 C8.52401425,4.83048305 8.63260042,4.84518452 8.74118659,4.84518452 C9.68922737,4.84518452 10.881587,4.20672067 11.5706916,3.34773477 Z" id="path-apple"></path>
    </defs>
    <g id="UI-kit" stroke="none" stroke-width="1" fill="none" fill-rule="evenodd">
        <g id="Icons" transform="translate(-280, -521)">
            <g id="Group-4" transform="translate(40, 377)">
                <g id="4" transform="translate(0, 144)">
                    <g id="Icon/brand/apple" transform="translate(243.5, 1)">
                        <mask id="mask-2" fill="white">
                            <use xlink:href="#path-apple"></use>
                        </mask>
                        <use id="🎨-Icon-Сolor" fill="#008296" xlink:href="#path-apple"></use>
                    </g>
                </g>
            </g>
        </g>
    </g>
</svg>