<?xml version="1.0" encoding="UTF-8"?>
<svg width="24px" height="24px" viewBox="0 0 24 24" version="1.1"
    xmlns="http://www.w3.org/2000/svg"
    xmlns:xlink="http://www.w3.org/1999/xlink">
    <g id="UI-Kit" stroke="none" stroke-width="1" fill-rule="evenodd">
        <g id="Icons" transform="translate(-184.000000, -160.000000)">
            <g id="Row-2" transform="translate(40.000000, 160.000000)">
                <g id="Icon/geofence" transform="translate(145.000000, 2.000000)">
                    <path d="M2.71863281,16.8191406 C2.58199219,16.8878906 2.46941406,16.9523437 2.37746094,17.0125 C2.22148438,17.115625 2.22234375,17.321875 2.37789063,17.425 C2.75644531,17.6742187 3.3721875,17.9320312 4.22511719,18.1683594 C5.91679688,18.5980469 8.31445313,18.9375 11,18.9375 C13.6855469,18.9375 16.0832031,18.5980469 17.7761719,18.1683594 C18.6269531,17.9320312 19.2457031,17.6742187 19.6238281,17.425 C19.7785156,17.321875 19.7785156,17.115625 19.6238281,17.0125 C19.5292969,16.9523437 19.4175781,16.8878906 19.2800781,16.8191406 C18.6226563,16.4496094 17.6128906,16.1789062 16.3152344,15.9382812 C15.7523438,15.8351562 15.3828125,15.2980469 15.4859375,14.7394531 C15.5890625,14.1808594 16.1261719,13.8070312 16.6847656,13.9101562 C18.08125,14.1636719 19.3015625,14.5203125 20.2082031,14.9757812 C20.659375,15.2035156 21.0804688,15.4785156 21.3984375,15.8179687 C21.725,16.1660156 22,16.6386719 22,17.21875 C22,18.1382812 21.3339844,18.7699219 20.7496094,19.1523437 C20.1179687,19.5648437 19.2757812,19.8957031 18.321875,20.1578125 C16.4054688,20.6863281 13.81875,21 11,21 C8.18125,21 5.59453125,20.6863281 3.67683594,20.1578125 C2.7259375,19.8957031 1.88160156,19.5648437 1.25125,19.1523437 C0.664296875,18.7699219 0,18.1382812 0,17.21875 C0,16.6386719 0.27396875,16.1660156 0.59984375,15.8179687 C0.92125,15.4785156 1.34234375,15.2035156 1.79265625,14.9757812 C2.69628906,14.5203125 3.92046875,14.1636719 5.31523438,13.9101562 C5.87382813,13.8070312 6.4109375,14.1808594 6.5140625,14.7394531 C6.57851563,15.2980469 6.24765625,15.8351562 5.68476563,15.9382812 C4.38710938,16.1789062 3.37605469,16.4496094 2.71863281,16.8191406 L2.71863281,16.8191406 L2.71863281,16.8191406 Z M11,0 C7.39739949,0 4.5,2.98567795 4.5,6.63710676 C4.5,7.36912294 4.71917185,8.24102341 5.12747856,9.2374272 C5.48416525,10.1072123 5.98144522,11.0654533 6.59162518,12.0816118 C7.36527082,13.3785097 8.14452408,14.4994701 9.39096566,16.1878588 C10.190376,17.2707137 11.809624,17.2707137 12.6090343,16.1878588 L13.3505317,15.1732688 C14.1893207,14.0107515 14.8011479,13.0995378 15.4113499,12.0766411 C16.019858,11.0609029 16.515936,10.1053113 16.8718142,9.23915071 C17.280861,8.24002078 17.5,7.3686914 17.5,6.63710676 C17.5,2.98567795 14.6026005,0 11,0 Z M11,2 C13.484375,2 15.5,4.0770374 15.5,6.63710676 C15.5,7.03641318 15.359375,7.65469408 15.021875,8.47906862 C14.69375,9.27768145 14.228125,10.1600198 13.69375,11.0520188 C12.80625,12.5397572 11.775,13.9502106 11,15 L10.3168435,14.0663511 C9.67319215,13.1751239 8.95170455,12.1340104 8.30625,11.0520188 C7.770625,10.1600198 7.305625,9.27768145 6.978125,8.47906862 C6.6403125,7.65469408 6.5,7.03641318 6.5,6.63710676 C6.5,4.0770374 8.515625,2 11,2 Z" id="🎨-Icon-Сolor"></path>
                </g>
            </g>
        </g>
    </g>
</svg>