<?xml version="1.0" encoding="UTF-8"?>
<svg width="24px" height="24px" viewBox="0 0 24 24" version="1.1"
    xmlns="http://www.w3.org/2000/svg"
    xmlns:xlink="http://www.w3.org/1999/xlink">
    <g id="UI-kit" stroke="none" stroke-width="1" fill-rule="evenodd">
        <g id="Icons" transform="translate(-280.000000, -313.000000)">
            <g id="Icon/copy-solid" transform="translate(283.000000, 316.000000)">
                <path d="M7.875,0 C6.63398437,0 5.625,1.00898437 5.625,2.25 L5.625,10.125 C5.625,11.3660156 6.63398437,12.375 7.875,12.375 L15.75,12.375 C16.9910156,12.375 18,11.3660156 18,10.125 L18,2.25 C18,1.00898438 16.9910156,0 15.75,0 L7.875,0 Z M2.25,5.625 C1.00898438,5.625 0,6.63398437 0,7.875 L0,15.75 C0,16.9910156 1.00898437,18 2.25,18 L10.125,18 C11.3660156,18 12.375,16.9910156 12.375,15.75 L12.375,13.5 L10.125,13.5 L10.125,15.75 L2.25,15.75 L2.25,7.875 L4.5,7.875 L4.5,5.625 L2.25,5.625 Z" id="🎨-Icon-Сolor"></path>
            </g>
        </g>
    </g>
</svg>