<?xml version="1.0" encoding="UTF-8"?>
<svg width="40px" height="40px" viewBox="0 0 40 40" version="1.1"
    xmlns="http://www.w3.org/2000/svg"
    xmlns:xlink="http://www.w3.org/1999/xlink">
    <defs>
        <linearGradient x1="21.2202666%" y1="100%" x2="78.7797334%" y2="7.2858386e-15%" id="linearGradient-1">
            <stop stop-color="#005276" offset="0%"></stop>
            <stop stop-color="#007FAA" offset="49.6546329%"></stop>
            <stop stop-color="#007FAA" offset="100%"></stop>
        </linearGradient>
        <linearGradient x1="78.7797334%" y1="7.2858386e-15%" x2="21.2202666%" y2="100%" id="linearGradient-2">
            <stop stop-color="#7CE8F4" stop-opacity="0.367105551" offset="0%"></stop>
            <stop stop-color="#7CE8F4" stop-opacity="0" offset="100%"></stop>
        </linearGradient>
        <linearGradient x1="78.7797334%" y1="7.2858386e-15%" x2="21.2202666%" y2="100%" id="linearGradient-3">
            <stop stop-color="#38EF7D" stop-opacity="0.549524694" offset="0%"></stop>
            <stop stop-color="#38EF7D" stop-opacity="0" offset="100%"></stop>
        </linearGradient>
        <path d="M19,-1.42108547e-14 C12.0576724,-1.42108547e-14 6.425,5.52274699 6.425,12.3408119 C6.425,13.655592 6.85986014,15.3018627 7.68694147,17.2212061 C8.43068801,18.9510422 9.47789372,20.8731561 10.7761101,22.9355268 C12.8468883,26.1790549 15.4580668,29.7111899 17.7907059,32.5723272 C18.4249413,33.3417578 19.5750587,33.3417578 20.2073271,32.5747266 C22.5406568,29.7127555 25.1529398,26.1796175 27.223206,22.9387558 C28.5100021,20.8957109 29.5608377,18.9646992 30.3141709,17.2217882 C31.1408053,15.2950738 31.575,13.6520014 31.575,12.3408119 C31.575,5.52274699 25.9423276,-1.42108547e-14 19,-1.42108547e-14 Z M19,1.15 C25.3122179,1.15 30.425,6.16300274 30.425,12.3408119 C30.425,13.4696361 30.0279027,14.9723249 29.2579444,16.7669442 C28.5310069,18.4487807 27.5075925,20.3294035 26.2520977,22.3227728 C24.2101345,25.5193061 21.6233239,29.0179925 19.3179786,31.8456521 C19.1476686,32.0522491 18.8523314,32.0522491 18.6800544,31.8432527 C16.375453,29.0164922 13.7897947,25.5188783 11.7473767,22.3197934 C10.4806169,20.3073731 9.46095039,18.4358065 8.74324396,16.766536 C7.97249238,14.9779123 7.575,13.4731064 7.575,12.3408119 C7.575,6.16300274 12.6877821,1.15 19,1.15 Z" id="path-4"></path>
    </defs>
    <g id="UI-kit" stroke="none" stroke-width="1" fill="none" fill-rule="evenodd">
        <g id="Icons" transform="translate(-40.000000, -112.000000)">
            <g id="Icon/Geofence" transform="translate(41.000000, 114.425000)">
                <path d="M3.15132813,27.8691406 C1.74710938,28.678125 1.1875,29.4796875 1.1875,30.1550781 C1.1875,30.6820312 1.52816406,31.2980469 2.39578125,31.94375 C3.25300781,32.5894531 4.53105469,33.190625 6.16386719,33.7101562 C9.35898437,34.7417969 13.9605469,35.3875 19,35.3875 C24.0394531,35.3875 28.5742188,34.7417969 31.8324219,33.7101562 C33.4652344,33.190625 34.7492187,32.5894531 35.6027344,31.94375 C36.4710937,31.2980469 36.8125,30.6820312 36.8125,30.1550781 C36.8125,29.4796875 36.2558594,28.678125 34.8457031,27.8691406 C33.4800781,27.0824219 31.4910156,26.3921875 29.034375,25.8726562 C28.7152344,25.8058594 28.5074219,25.4941406 28.5074219,25.175 C28.6410156,24.8484375 28.9527344,24.6480469 29.2792969,24.7148437 C31.7953125,25.2417969 33.9253906,25.9617187 35.4394531,26.8375 C36.9164062,27.6910156 38,28.796875 38,30.1550781 C38,31.23125 37.3097656,32.1515625 36.3152344,32.9011719 C35.3132812,33.6507812 33.8957031,34.3039062 32.1960937,34.8382812 C28.7894531,35.9144531 24.1285156,36.575 19,36.575 C13.8714844,36.575 9.21054687,35.9144531 5.80539063,34.8382812 C4.10726563,34.3039062 2.6896875,33.6507812 1.68476562,32.9011719 C0.68934375,32.1515625 0,31.23125 0,30.1550781 C0,28.796875 1.07988281,27.6910156 2.55832031,26.8375 C4.07460938,25.9617187 6.2046875,25.2417969 8.72070312,24.7148437 C9.04726562,24.6480469 9.35898437,24.8484375 9.42578125,25.175 C9.49257812,25.4941406 9.28476562,25.8058594 8.965625,25.8726562 C6.51269531,26.3921875 4.51695312,27.0824219 3.15132812,27.8691406 L3.15132812,27.8691406 L3.15132813,27.8691406 Z" id="Shape" fill="#232F3E"></path>
                <g id="Path">
                    <use fill="url(#linearGradient-1)" xlink:href="#path-4"></use>
                    <use fill="url(#linearGradient-2)" xlink:href="#path-4"></use>
                    <use fill="url(#linearGradient-3)" xlink:href="#path-4"></use>
                </g>
            </g>
        </g>
    </g>
</svg>