<?xml version="1.0" encoding="UTF-8"?>
<svg width="24px" height="24px" viewBox="0 0 24 24" version="1.1"
    xmlns="http://www.w3.org/2000/svg"
    xmlns:xlink="http://www.w3.org/1999/xlink">
    <g id="UI-kit" stroke="none" stroke-width="1" fill="none" fill-rule="evenodd">
        <g id="Icons" transform="translate(-184, -521)" fill="#008296">
            <g id="Group-4" transform="translate(40, 377)">
                <g id="4" transform="translate(0, 144)">
                    <g id="Icon/browser" transform="translate(146, 3.25)">
                        <path d="M0.30171875,1.30820312 C0.521875,0.902734375 0.851171875,0.565234375 1.25,0.334375 C1.54804688,0.162109375 1.88476562,0.04921875 2.24453125,0.012890625 C2.32851563,0.004296875 2.41367187,0 2.5,0 L17.5,0 C18.8789062,0 20,1.11914062 20,2.5 L20,15 C20,16.3789062 18.8789062,17.5 17.5,17.5 L2.5,17.5 C1.11914062,17.5 0,16.3789062 0,15 L0,2.5 C0,2.41367188 0.004375,2.32851562 0.012890625,2.24453125 C0.0470078125,1.90820312 0.147773437,1.59179688 0.301695312,1.30820312 L0.301695312,1.30820312 L0.30171875,1.30820312 Z M1.875,15 C1.875,15.34375 2.1546875,15.625 2.5,15.625 L17.5,15.625 C17.84375,15.625 18.125,15.34375 18.125,15 L18.125,5 L1.875,5 L1.875,15 Z" id="🎨-Icon-Сolor"></path>
                    </g>
                </g>
            </g>
        </g>
    </g>
</svg>