<?xml version="1.0" encoding="UTF-8"?>
<svg width="24px" height="24px" viewBox="0 0 24 24" version="1.1"
    xmlns="http://www.w3.org/2000/svg"
    xmlns:xlink="http://www.w3.org/1999/xlink">
    <g id="UI-Kit" stroke="none" stroke-width="1" fill-rule="evenodd">
        <g id="Icons" transform="translate(-280.000000, -320.000000)">
            <g id="Row-5" transform="translate(40.000000, 320.000000)">
                <g id="Icon/mobile-button-solid" transform="translate(245.000000, 2.000000)">
                    <path d="M2.54545455,0 C1.14147727,0 0,1.12109375 0,2.5 L0,17.5 C0,18.8789062 1.14147727,20 2.54545455,20 L11.4545455,20 C12.8585227,20 14,18.8789062 14,17.5 L14,2.5 C14,1.12109375 12.8585227,0 11.4545455,0 L2.54545455,0 Z M7,18.125 C6.29602273,18.125 5.72727273,17.5664062 5.72727273,16.875 C5.72727273,16.1835938 6.29602273,15.625 7,15.625 C7.70397727,15.625 8.27272727,16.1835938 8.27272727,16.875 C8.27272727,17.5664062 7.70397727,18.125 7,18.125 Z" id="🎨-Icon-Сolor"></path>
                </g>
            </g>
        </g>
    </g>
</svg>