<?xml version="1.0" encoding="UTF-8"?>
<svg width="24px" height="24px" viewBox="0 0 24 24" version="1.1"
    xmlns="http://www.w3.org/2000/svg"
    xmlns:xlink="http://www.w3.org/1999/xlink">
    <g id="UI-Kit" stroke="none" stroke-width="1" fill-rule="evenodd">
        <g id="Icons" transform="translate(-424.000000, -112.000000)">
            <g id="Row-1" transform="translate(40.000000, 112.000000)">
                <g id="Icon/route" transform="translate(385.000000, 1.000000)">
                    <path d="M17.875,11 L14.09375,11 C13.1441406,11 12.375,11.7691406 12.375,12.71875 C12.375,13.6683594 13.1441406,14.4375 14.09375,14.4375 L18.21875,14.4375 C20.3070313,14.4375 22,16.1304687 22,18.21875 C22,20.3070313 20.3070313,22 18.21875,22 L5.9984375,22 C6.37226562,21.5746094 6.82773438,21.0289062 7.2875,20.41875 C7.40351562,20.2640625 7.51953125,20.1007813 7.63984375,19.9375 L18.21875,19.9375 C19.1683594,19.9375 19.9375,19.1683594 19.9375,18.21875 C19.9375,17.2691406 19.1683594,16.5 18.21875,16.5 L14.09375,16.5 C12.0054687,16.5 10.3125,14.8070313 10.3125,12.71875 C10.3125,10.6304687 12.0054687,8.9375 14.09375,8.9375 L16.0746094,8.9375 C14.9660156,7.51523438 13.75,5.61601562 13.75,4.125 C13.75,1.84679687 15.5589844,0 17.875,0 C20.1523438,0 22,1.84679687 22,4.125 C22,5.809375 20.453125,8.009375 19.2542969,9.46171875 C18.49375,10.38125 17.875,11 17.875,11 Z M19.5121094,5.43554688 C19.8386719,4.78242187 19.9375,4.34414062 19.9375,4.125 C19.9375,2.98589844 19.0136719,2.0625 17.875,2.0625 C16.7363281,2.0625 15.8125,2.98589844 15.8125,4.125 C15.8125,4.34414062 15.9113281,4.78242187 16.2378906,5.43554688 C16.5515625,6.05859375 16.9898437,6.72460938 17.4625,7.35625 C17.6,7.54101562 17.7375,7.7171875 17.875,7.8890625 C18.0125,7.7171875 18.15,7.54101562 18.2875,7.35625 C18.7601563,6.72460938 19.1984375,6.05859375 19.5121094,5.43554687 L19.5121094,5.43554688 Z M5.50429688,20.4617187 C5.3625,20.6335937 5.225,20.7582031 5.09609375,20.9429687 C5.08320313,20.9601562 5.03164063,20.9730469 5.05742188,20.9859375 C4.8984375,21.1707031 4.75234375,21.3296875 4.62773438,21.4671875 C4.6234375,21.4757812 4.61484375,21.4800781 4.61054688,21.4886719 C4.3140625,21.8109375 4.125,22 4.125,22 C4.125,22 3.50496094,21.38125 2.74570312,20.4617187 C1.54644531,19.009375 0,16.809375 0,15.125 C0,12.8089844 1.84679687,11 4.125,11 C6.40234375,11 8.25,12.8089844 8.25,15.125 C8.25,16.6160156 7.03398437,18.5152344 5.92539063,19.9375 C5.78359375,20.1222656 5.64179688,20.2941406 5.50429687,20.4617187 L5.50429687,20.4617187 L5.50429688,20.4617187 Z M5.76210938,16.4355469 C6.08867188,15.7824219 6.1875,15.3441406 6.1875,15.125 C6.1875,13.9863281 5.26367188,13.0625 4.125,13.0625 C2.98589844,13.0625 2.0625,13.9863281 2.0625,15.125 C2.0625,15.3441406 2.16089844,15.7824219 2.48917969,16.4355469 C2.80070313,17.0585938 3.23898438,17.7246094 3.7125,18.35625 C3.85042969,18.5410156 3.98921875,18.7171875 4.125,18.8890625 C4.26078125,18.7171875 4.4,18.5410156 4.5375,18.35625 C5.01015625,17.7246094 5.4484375,17.0585938 5.76210938,16.4355469 L5.76210938,16.4355469 Z" id="🎨-Icon-Сolor"></path>
                </g>
            </g>
        </g>
    </g>
</svg>