<svg width="15" height="13" viewBox="0 0 15 13" fill="none" xmlns="http://www.w3.org/2000/svg">
<path d="M1.125 0.5H6.375C6.98438 0.5 7.5 1.01562 7.5 1.625V3.71094C6.79688 3.99219 6.23438 4.55469 6 5.30469L5.97656 5.32812C5.95312 5.16406 5.8125 5 5.625 5H4.875C4.66406 5 4.5 5.1875 4.5 5.375V6.125C4.5 6.33594 4.66406 6.5 4.875 6.5H5.60156L5.46094 6.89844C4.875 7.32031 4.5 8 4.5 8.75V11V11.75H1.125C0.492188 11.75 0 11.2578 0 10.625V1.625C0 1.01562 0.492188 0.5 1.125 0.5ZM1.875 5C1.66406 5 1.5 5.1875 1.5 5.375V6.125C1.5 6.33594 1.66406 6.5 1.875 6.5H2.625C2.8125 6.5 3 6.33594 3 6.125V5.375C3 5.1875 2.8125 5 2.625 5H1.875ZM1.875 2.75C1.66406 2.75 1.5 2.9375 1.5 3.125V3.875C1.5 4.08594 1.66406 4.25 1.875 4.25H2.625C2.8125 4.25 3 4.08594 3 3.875V3.125C3 2.9375 2.8125 2.75 2.625 2.75H1.875ZM4.5 3.125V3.875C4.5 4.08594 4.66406 4.25 4.875 4.25H5.625C5.8125 4.25 6 4.08594 6 3.875V3.125C6 2.9375 5.8125 2.75 5.625 2.75H4.875C4.66406 2.75 4.5 2.9375 4.5 3.125ZM1.875 7.25C1.66406 7.25 1.5 7.4375 1.5 7.625V8.375C1.5 8.58594 1.66406 8.75 1.875 8.75H2.625C2.8125 8.75 3 8.58594 3 8.375V7.625C3 7.4375 2.8125 7.25 2.625 7.25H1.875ZM8.48438 5.75C8.32031 5.75 8.17969 5.86719 8.13281 6.00781L7.71094 7.25H12.5156L12.0938 6.00781C12.0469 5.86719 11.9062 5.75 11.7422 5.75H8.48438ZM6.70312 5.53906C6.96094 4.76562 7.6875 4.25 8.48438 4.25H11.7422C12.5391 4.25 13.2656 4.76562 13.5234 5.53906L14.1328 7.41406C14.6484 7.64844 15 8.16406 15 8.75V11V11.75C15 12.1719 14.6484 12.5 14.25 12.5H13.875C13.4531 12.5 13.125 12.1719 13.125 11.75V11H7.125V11.75C7.125 12.1719 6.77344 12.5 6.375 12.5H6C5.57812 12.5 5.25 12.1719 5.25 11.75V11V8.75C5.25 8.16406 5.57812 7.64844 6.09375 7.41406L6.70312 5.53906ZM7.125 8.5625C6.79688 8.5625 6.5625 8.82031 6.5625 9.125C6.5625 9.45312 6.79688 9.6875 7.125 9.6875C7.42969 9.6875 7.6875 9.45312 7.6875 9.125C7.6875 8.82031 7.42969 8.5625 7.125 8.5625ZM12.5625 9.125C12.5625 9.45312 12.7969 9.6875 13.125 9.6875C13.4297 9.6875 13.6875 9.45312 13.6875 9.125C13.6875 8.82031 13.4297 8.5625 13.125 8.5625C12.7969 8.5625 12.5625 8.82031 12.5625 9.125Z" fill="#008296"/>
</svg>
