<svg width="12" height="12" viewBox="0 0 12 12" fill="none" xmlns="http://www.w3.org/2000/svg">
<path d="M1.25 2.75C1.25 1.92969 1.90625 1.25 2.75 1.25H10.25C11.0703 1.25 11.75 1.92969 11.75 2.75V10.25C11.75 11.0938 11.0703 11.75 10.25 11.75H2.75C1.90625 11.75 1.25 11.0938 1.25 10.25V2.75ZM2.89062 4.0625C2.67969 4.29688 2.70312 4.64844 2.91406 4.85938L4.71875 6.5L2.91406 8.16406C2.70312 8.375 2.67969 8.72656 2.89062 8.96094C3.10156 9.17188 3.45312 9.19531 3.6875 8.98438L5.9375 6.92188C6.05469 6.82812 6.125 6.66406 6.125 6.5C6.125 6.35938 6.05469 6.19531 5.9375 6.10156L3.6875 4.03906C3.45312 3.82812 3.10156 3.82812 2.89062 4.0625ZM6.3125 8.375C5.98438 8.375 5.75 8.63281 5.75 8.9375C5.75 9.26562 5.98438 9.5 6.3125 9.5H9.6875C9.99219 9.5 10.25 9.26562 10.25 8.9375C10.25 8.63281 9.99219 8.375 9.6875 8.375H6.3125Z" fill="#008296"/>
</svg>
