<svg fill="none" height="24" viewBox="0 0 24 24" width="24" xmlns="http://www.w3.org/2000/svg"><path d="m11.0739 2.63302c.3209-.84403 1.5313-.84403 1.8522.00001l2.0701 5.73395c.1448.38076.5138.63302.9261.63302h5.0867c.9393 0 1.3496 1.1703.6111 1.7427l-3.6201 3.2573c-.3333.2583-.4627.6975-.3216 1.0918l1.3216 5.6033c.3218.8992-.7209 1.6728-1.5075 1.1185l-4.9176-3.119c-.3439-.2423-.8059-.2423-1.1498 0l-4.91755 3.119c-.78667.5543-1.8293-.2193-1.50755-1.1185l1.32161-5.6033c.14109-.3943.01173-.8335-.32161-1.0918l-3.62006-3.2573c-.73858-.5724-.32822-1.7427.61106-1.7427h5.08667c.41229 0 .78132-.25226.92609-.63302z" stroke="#000" stroke-linecap="round" stroke-linejoin="round" stroke-width="2"/></svg>