<?xml version="1.0" encoding="UTF-8"?>
<svg width="24px" height="24px" viewBox="0 0 24 24" version="1.1"
    xmlns="http://www.w3.org/2000/svg"
    xmlns:xlink="http://www.w3.org/1999/xlink">
    <g id="UI-Kit" stroke="none" stroke-width="1" fill="none" fill-rule="evenodd">
        <g id="Icons" transform="translate(-232.000000, -160.000000)" fill="#8E8E93">
            <g id="Row-2" transform="translate(40.000000, 160.000000)">
                <g id="Icon/gear" transform="translate(194.365000, 2.000000)">
                    <path d="M5.88616292,10.0000391 C5.88616292,7.89457031 7.53069417,6.25003906 9.63616292,6.25003906 C11.7064754,6.25003906 13.3861629,7.89457031 13.3861629,10.0000391 C13.3861629,12.0703516 11.7064754,13.7500391 9.63616292,13.7500391 C7.53069417,13.7500391 5.88616292,12.0703516 5.88616292,10.0000391 Z M9.63616292,8.12503906 C8.60100667,8.12503906 7.76116292,8.96488281 7.76116292,10.0000391 C7.76116292,11.0351953 8.60100667,11.8750391 9.63616292,11.8750391 C10.6713192,11.8750391 11.5111629,11.0351953 11.5111629,10.0000391 C11.5111629,8.96488281 10.6713192,8.12503906 9.63616292,8.12503906 Z M11.0853817,0 C11.9525692,0 12.7064754,0.593359375 12.9096004,1.43515625 L13.2142879,2.70351562 C13.5463192,2.865625 13.8627254,3.04960937 14.1635067,3.253125 L15.4174129,2.88398437 C16.2494442,2.6390625 17.1400692,2.99492187 17.5736629,3.74492187 L19.0228817,6.25390625 C19.4525692,7.00390625 19.3158504,7.953125 18.6908504,8.55078125 L17.7416317,9.41796875 C17.7533504,9.6328125 17.7611629,9.81640625 17.7611629,10 C17.7611629,10.1835938 17.7533504,10.3671875 17.7416317,10.546875 L18.6908504,11.4492188 C19.3158504,12.046875 19.4525692,12.9960938 19.0228817,13.7460938 L17.5736629,16.2539062 C17.1400692,17.0039062 16.2494442,17.359375 15.4174129,17.1171875 L14.1635067,16.7460938 C13.8627254,16.9492188 13.5463192,17.1328125 13.2142879,17.296875 L12.9096004,18.5664063 C12.7064754,19.40625 11.9525692,20 11.0853817,20 L8.18694417,20 C7.31975667,20 6.56585042,19.40625 6.36272542,18.5664063 L6.05803792,17.296875 C5.72600667,17.1328125 5.40960042,16.9492188 5.10881917,16.7460938 L3.81975667,17.1171875 C3.02405355,17.359375 2.13381917,17.0039063 1.70061605,16.2539062 L0.251397299,13.7460938 C-0.181805826,12.9960938 -0.0447745764,12.046875 0.582647299,11.4492188 L1.5295223,10.546875 C1.51741292,10.3671875 1.51116292,10.1835938 1.51116292,9.96484375 C1.51116292,9.81640625 1.51741292,9.6328125 1.5295223,9.41796875 L0.582647299,8.55078125 C-0.0448136389,7.953125 -0.181805826,7.00390625 0.251397299,6.25390625 L1.70061605,3.74492188 C2.13381917,2.99492188 3.02405355,2.6390625 3.81975667,2.88398438 L5.10881917,3.253125 C5.40960042,3.04960938 5.72600667,2.865625 6.05803792,2.70351563 L6.36272542,1.43515625 C6.56585042,0.59296875 7.31975667,0 8.18694417,0 L11.0853817,0 L11.0853817,0 Z M7.66350667,4.046875 L7.22600667,4.23046875 C6.72991292,4.4375 6.26897542,4.70703125 5.85100667,5.02734375 L5.47210042,5.31640625 L3.32444417,4.68359375 L1.8748348,7.19140625 L3.49592855,8.734375 L3.43616292,9.203125 C3.40335042,9.46484375 3.38616292,9.73046875 3.38616292,10 C3.38616292,10.2695312 3.40335042,10.5351562 3.43616292,10.796875 L3.49592855,11.265625 L1.87522542,12.8085938 L3.32444417,15.3164062 L5.47210042,14.6835937 L5.85100667,14.9726562 C6.26897542,15.2929687 6.72991292,15.5625 7.22600667,15.7695312 L7.66350667,15.953125 L8.18694417,18.125 L11.0853817,18.125 L11.6088192,15.953125 L12.0463192,15.7695312 C12.5424129,15.5625 13.0033504,15.2929687 13.4213192,14.9726562 L13.8002254,14.6835937 L15.9486629,15.3164062 L17.3978817,12.8085938 L15.7767879,11.265625 L15.8353817,10.796875 C15.8705379,10.5351562 15.8861629,10.2695312 15.8861629,10 C15.8861629,9.73046875 15.8705379,9.46484375 15.8353817,9.203125 L15.7767879,8.734375 L17.3978817,7.19140625 L15.9486629,4.68359375 L13.8002254,5.31640625 L13.4213192,5.02734375 C13.0033504,4.70703125 12.5424129,4.4375 12.0463192,4.23046875 L11.6088192,4.046875 L11.0853817,1.875 L8.18694417,1.875 L7.66350667,4.046875 Z" id="🎨-Icon-Сolor"></path>
                </g>
            </g>
        </g>
    </g>
</svg>
