<?xml version="1.0" encoding="UTF-8"?>
<svg width="24px" height="24px" viewBox="0 0 24 24" version="1.1"
    xmlns="http://www.w3.org/2000/svg"
    xmlns:xlink="http://www.w3.org/1999/xlink">
    <g id="UI-kit" stroke="none" stroke-width="1" fill="none" fill-rule="evenodd">
        <g id="Icons" transform="translate(-232.000000, -265.000000)" fill="#1D1D1F">
            <g id="Group" transform="translate(40.000000, 265.000000)">
                <g id="Icon/fire" transform="translate(196.006972, 3.007598)">
                    <path d="M3.48812772,6.50890243 C1.45612772,8.70790243 1.49912772,12.1939024 3.61712772,14.3529024 C4.65112772,15.4099024 6.02512772,15.9929024 7.48912772,15.9939024 L7.49412772,15.9939024 C8.96112772,15.9939024 10.3401277,15.4109024 11.3791277,14.3529024 C13.5351277,12.1549024 13.5311277,8.57990243 11.3701277,6.38490243 L8.38412772,3.33390243 C8.08212772,5.81590243 7.15112772,7.99390243 5.49312772,7.99390243 C4.98512772,7.99390243 4.15712772,7.76790243 3.48812772,6.50890243 L3.48812772,6.50890243 Z M7.49412772,17.9939024 L7.48712772,17.9939024 C5.48112772,17.9919024 3.59912772,17.1969024 2.18812772,15.7519024 C-0.725872279,12.7819024 -0.729872279,7.94890243 2.17912772,4.98390243 L3.16212772,3.98990243 C3.41612772,3.73590243 3.78512772,3.63790243 4.13412772,3.72890243 C4.48112772,3.82290243 4.75112772,4.09590243 4.84112772,4.44390243 C5.07112772,5.33290243 5.34512772,5.76990243 5.49612772,5.93590243 C5.85112772,5.56190243 6.49312772,4.05090243 6.49312772,1.49390243 C6.49312772,1.34690243 6.49312772,1.20790243 6.48512772,1.06890243 C6.46612772,0.773902432 6.57912772,0.484902432 6.79312772,0.280902432 C7.19012772,-0.0960975682 7.82612772,-0.0960975682 8.20712772,0.295902432 L12.7971277,4.98490243 C15.7171277,7.94890243 15.7221277,12.7819024 12.8071277,15.7529024 C11.3881277,17.1989024 9.50212772,17.9939024 7.49412772,17.9939024 L7.49412772,17.9939024 Z" id="🎨-Icon-Сolor"></path>
                </g>
            </g>
        </g>
    </g>
</svg>