<?xml version="1.0" encoding="UTF-8"?>
<svg width="40px" height="40px" viewBox="0 0 40 40" version="1.1"
    xmlns="http://www.w3.org/2000/svg"
    xmlns:xlink="http://www.w3.org/1999/xlink">
    <defs>
        <linearGradient x1="9.02056208e-15%" y1="89.2676533%" x2="100%" y2="10.7323467%" id="linearGradient-1">
            <stop stop-color="#005276" offset="0%"></stop>
            <stop stop-color="#007FAA" offset="49.6546329%"></stop>
            <stop stop-color="#007FAA" offset="100%"></stop>
        </linearGradient>
        <linearGradient x1="100%" y1="10.7323467%" x2="9.02056208e-15%" y2="89.2676533%" id="linearGradient-2">
            <stop stop-color="#7CE8F4" stop-opacity="0.367105551" offset="0%"></stop>
            <stop stop-color="#7CE8F4" stop-opacity="0" offset="100%"></stop>
        </linearGradient>
        <linearGradient x1="100%" y1="10.7323467%" x2="9.02056208e-15%" y2="89.2676533%" id="linearGradient-3">
            <stop stop-color="#38EF7D" stop-opacity="0.549524694" offset="0%"></stop>
            <stop stop-color="#38EF7D" stop-opacity="0" offset="100%"></stop>
        </linearGradient>
        <path d="M9.5,4.34297613 C9.5,3.6740178 9.92222222,3.07696919 10.5489583,2.85200391 L18.1159722,0.153542102 C18.6899306,-0.0511697039 19.3100694,-0.0511697039 19.8840278,0.153476129 L27.4510417,2.85193794 C28.0777778,3.07690321 28.5,3.67395182 28.5,4.34291016 L28.5,14.4148893 L36.9246528,17.2516949 C37.5645833,17.4694032 38,18.0169727 38,18.7558615 L38,28.6648893 C38,29.5357227 37.465625,30.3141949 36.6607639,30.6308615 L29.2520833,33.5270421 C28.7704861,33.7183615 28.2361111,33.7249588 27.7545139,33.5468338 L19,30.3075977 L10.2454861,33.5468338 C9.70451389,33.7249588 9.22951389,33.7183615 8.74791667,33.5270421 L1.341875,30.6308615 C0.532461806,30.3141949 0,29.5357227 0,28.6648893 L0,18.7558615 C0,18.0169727 0.433701389,17.4694032 1.07798611,17.2516949 L9.5,14.4148893 L9.5,4.34291016 L9.5,4.34297613 Z M11.1361111,3.76374002 L19,6.77537196 L26.8638889,3.76374002 L19.534375,1.14794141 C19.1847222,1.02457335 18.8152778,1.02457335 18.465625,1.14794141 L11.1361111,3.76374002 Z M10.5555556,14.4413442 L18.4722222,17.7333581 L18.4722222,7.7055803 L10.5555556,4.67085807 L10.5555556,14.4413442 Z M19.5277778,19.2507192 L19.5277778,29.3774553 L27.9722222,32.4979414 L27.9722222,22.5361359 L19.5277778,19.2507192 Z M1.63545139,18.1819692 L9.51319444,21.6059275 L17.5354167,18.4854414 L10.0079861,15.3583581 L1.63545139,18.1819692 L1.63545139,18.1819692 Z M1.72649306,29.6479414 L8.97222222,32.484747 L8.97222222,22.5229414 L1.05555556,19.0791914 L1.05555556,28.6649553 C1.05555556,29.100372 1.32208333,29.4896081 1.72649306,29.6479414 L1.72649306,29.6479414 Z M18.4722222,29.3774553 L18.4722222,19.2507192 L10.0277778,22.5361359 L10.0277778,32.4979414 L18.4722222,29.3774553 Z M19.5277778,7.7055803 L19.5277778,17.7333581 L27.4444444,14.4413442 L27.4444444,4.67085807 L19.5277778,7.7055803 Z M28.4868056,21.6059275 L36.3638889,18.1819692 L27.9920139,15.3583581 L20.4645833,18.4854414 L28.4868056,21.6059275 L28.4868056,21.6059275 Z M36.9444444,28.6649553 L36.9444444,19.0791914 L29.0277778,22.5229414 L29.0277778,32.484747 L36.2715278,29.6479414 C36.6211806,29.4896081 36.9444444,29.100372 36.9444444,28.6649553 Z" id="path-4"></path>
    </defs>
    <g id="UI-kit" stroke="none" stroke-width="1" fill="none" fill-rule="evenodd">
        <g id="Icons" transform="translate(-360.000000, -112.000000)">
            <g id="Shape" transform="translate(361.000000, 115.000000)">
                <use fill="url(#linearGradient-1)" xlink:href="#path-4"></use>
                <use fill="url(#linearGradient-2)" xlink:href="#path-4"></use>
                <use fill="url(#linearGradient-3)" xlink:href="#path-4"></use>
            </g>
        </g>
    </g>
</svg>