<svg width="20" height="20" viewBox="0 0 20 20" fill="none"
	xmlns="http://www.w3.org/2000/svg">
	<path d="M8.625 4.36719C6.39844 5.5 4.875 7.84375 4.875 10.5C4.875 14.3281 7.92188 17.375 11.7109 17.375C12.2188 17.375 12.7266 17.3359 13.2344 17.2188C9.79688 16.0469 7.33594 12.7656 7.33594 8.9375C7.33594 7.25781 7.80469 5.69531 8.625 4.36719ZM11.0469 1.78906C11.1641 1.78906 11.2422 1.78906 11.3203 1.78906C11.4766 1.78906 11.5938 1.78906 11.7109 1.78906C11.8281 1.78906 11.9453 1.78906 12.0234 1.78906C12.1797 1.78906 12.2969 1.78906 12.4531 1.78906C12.7266 1.82812 12.9609 2.02344 13 2.29688C13.0781 2.57031 12.9609 2.84375 12.7266 2.96094C12.5703 3.03906 12.4531 3.11719 12.3359 3.19531C12.1797 3.3125 12.0234 3.42969 11.8672 3.54688C11.7891 3.58594 11.75 3.625 11.7109 3.66406C10.1875 4.91406 9.21094 6.82812 9.21094 8.97656C9.21094 12.7656 12.2969 15.8125 16.0469 15.8516C16.0859 15.8516 16.0859 15.8516 16.0859 15.8516C16.125 15.8516 16.1641 15.8516 16.2031 15.8516C16.4375 15.8125 16.6328 15.8125 16.8281 15.8125C16.9453 15.7734 17.1016 15.7734 17.2578 15.7344C17.5312 15.6953 17.8047 15.8125 17.9219 16.0469C18.0391 16.3203 18 16.5938 17.8047 16.7891C17.6875 16.9062 17.6094 16.9844 17.4922 17.0625C17.2969 17.2188 17.1406 17.375 16.9453 17.5312C16.8672 17.5703 16.7891 17.6484 16.7109 17.6875C15.3047 18.6641 13.5859 19.25 11.7109 19.25C6.90625 19.25 3 15.3438 3 10.5C3 5.89062 6.55469 2.14062 11.0469 1.78906Z"/>
</svg>
