<?xml version="1.0" encoding="UTF-8"?>
<svg width="24px" height="24px" viewBox="0 0 24 24" version="1.1"
    xmlns="http://www.w3.org/2000/svg"
    xmlns:xlink="http://www.w3.org/1999/xlink">
    <g id="UI-kit" stroke="none" stroke-width="1">
        <g id="Icons" transform="translate(-328.000000, -313.000000)">
            <g id="Icon/github-solid" transform="translate(330.000000, 315.000000)">
                <path d="M10,0 C4.47818182,0 0,4.36101164 0,9.74170379 C0,14.0439051 2.86545455,17.6955738 6.83909091,18.9830675 C7.34,19.0726401 7.52181818,18.7722551 7.52181818,18.5134896 C7.52181818,18.2827722 7.51363636,17.6693353 7.50909091,16.8577529 C4.72727273,17.4458561 4.14090909,15.5512589 4.14090909,15.5512589 C3.68545455,14.4257198 3.03,14.1262396 3.03,14.1262396 C2.12181818,13.5218504 3.09909091,13.5345172 3.09909091,13.5345172 C4.10272727,13.6032801 4.63,14.5379118 4.63,14.5379118 C5.52181818,16.0271702 6.97,15.5964976 7.54090909,15.3476847 C7.63181818,14.7188667 7.88909091,14.2890989 8.17545455,14.0448099 C5.95454545,13.7996161 3.62,12.9636047 3.62,9.23141115 C3.62,8.16830146 4.01,7.29881346 4.65,6.61751849 C4.54636364,6.37141991 4.20363636,5.38069216 4.74727273,4.0398168 C4.74727273,4.0398168 5.58727273,3.77833705 7.49818182,5.03778274 C8.29545455,4.8215417 9.15090909,4.71477835 10.0009091,4.71025448 C10.85,4.71477835 11.7054545,4.8215417 12.5045455,5.03778274 C14.4136364,3.77833705 15.2518182,4.0398168 15.2518182,4.0398168 C15.7972727,5.38069216 15.4545455,6.37141991 15.3509091,6.61751849 C15.9918182,7.29881346 16.3790909,8.16830146 16.3790909,9.23141115 C16.3790909,12.9735572 14.0409091,13.7969018 11.8136364,14.0384765 C12.1727273,14.3388615 12.4918182,14.9332981 12.4918182,15.8416914 C12.4918182,17.1436615 12.48,18.1941044 12.48,18.5134896 C12.48,18.7740646 12.66,19.077164 13.1672727,18.9821627 C17.1372727,17.6919547 20,14.0430003 20,9.74170379 C20,4.36101164 15.5227273,0 10,0" id="🎨-Icon-Сolor"></path>
            </g>
        </g>
    </g>
</svg>