<svg width="17" height="18" viewBox="0 0 17 18" fill="none" xmlns="http://www.w3.org/2000/svg">
<path d="M11.7188 9.625L15.2188 11.125C15.7812 11.3438 16.0938 11.9375 15.9688 12.5312L15.2188 16.0312C15.0938 16.5938 14.5625 17.0312 14 17.0312C13.7812 17.0312 13.5938 17 13.4062 17C13.0938 17 12.7812 16.9688 12.5 16.9375C5.46875 16.1875 0 10.25 0 3C0 2.4375 0.40625 1.90625 0.96875 1.78125L4.46875 1.03125C5.0625 0.90625 5.65625 1.21875 5.875 1.78125L7.375 5.28125C7.59375 5.78125 7.46875 6.375 7.03125 6.71875L5.75 7.78125C6.59375 9.21875 7.78125 10.4062 9.21875 11.25L10.2812 9.96875C10.625 9.53125 11.2188 9.40625 11.7188 9.625ZM13.7812 15.5L14.4375 12.4062L11.3125 11.0625L10.4062 12.1875C9.9375 12.75 9.125 12.9062 8.46875 12.5312C6.8125 11.5625 5.4375 10.1875 4.46875 8.53125C4.09375 7.875 4.25 7.0625 4.8125 6.59375L5.9375 5.6875L4.59375 2.5625L1.5 3.21875C1.59375 9.96875 7.03125 15.4062 13.7812 15.5Z" fill="#8E8E93"/>
</svg>
