<?xml version="1.0" encoding="UTF-8"?>
<svg width="24px" height="24px" viewBox="0 0 24 24" version="1.1"
    xmlns="http://www.w3.org/2000/svg"
    xmlns:xlink="http://www.w3.org/1999/xlink">
    <g id="UI-kit" stroke="none" stroke-width="1" fill="none" fill-rule="evenodd">
        <g id="Icons" transform="translate(-376, -521)" fill="#8e8e93">
            <g id="Group-4" transform="translate(40, 377)">
                <g id="4" transform="translate(0, 144)">
                    <g id="Icon/swap" transform="translate(338, 2)">
                        <path d="M19.0625,13.4375391 L3.0953125,13.4375391 L5.99726563,10.3269922 C6.3515625,9.94925781 6.33203125,9.35550781 5.953125,9.00394531 C5.57421875,8.64847656 4.98046875,8.66800781 4.62890625,9.04691406 L0.25390625,13.7344141 C-0.0830078125,14.0945313 -0.0830078125,14.6535547 0.25390625,15.0137109 L4.62890625,19.7012109 C4.8125,19.8984766 5.0625,20.0000391 5.3125,20.0000391 C5.54199219,20.0000391 5.77148438,19.9170313 5.95234375,19.7473438 C6.33078125,19.3945703 6.3515625,18.80125 5.9975,18.4227344 L3.0953125,15.3125391 L19.0625,15.3125391 C19.5800781,15.3125391 20,14.8926172 20,14.3750391 C20,13.8574609 19.5820312,13.4375391 19.0625,13.4375391 Z M0.9375,6.56253906 L16.90625,6.56253906 L14.0042969,9.67308594 C13.6503125,10.0515234 13.6710547,10.6449609 14.0494531,10.9976953 C14.4266406,11.3529297 15.0213281,11.3321484 15.3740625,10.9525391 L19.7490625,6.26503906 C20.0859766,5.90492187 20.0859766,5.34589844 19.7490625,4.98574219 L15.3740625,0.298242187 C15.1875,0.100117188 14.9375,4.4408921e-16 14.6875,4.4408921e-16 C14.4580078,4.4408921e-16 14.2285156,0.0830078125 14.0476562,0.252695313 C13.6692187,0.60546875 13.6484375,1.19878906 14.0025,1.57730469 L16.90625,4.68753906 L0.9375,4.68753906 C0.419921875,4.68753906 0,5.10941406 0,5.62503906 C0,6.14066406 0.419921875,6.56253906 0.9375,6.56253906 Z" id="🎨-Icon-Сolor"></path>
                    </g>
                </g>
            </g>
        </g>
    </g>
</svg>