<?xml version="1.0" encoding="UTF-8"?>
<svg width="16px" height="16px" viewBox="0 0 16 16" version="1.1"
    xmlns="http://www.w3.org/2000/svg"
    xmlns:xlink="http://www.w3.org/1999/xlink">
    <g id="UI-Kit" stroke="none" stroke-width="1" fill-rule="evenodd">
        <g id="Map-markers" transform="translate(-72.000000, -256.000000)">
            <g id="Map/Blip/My-location" transform="translate(72.000000, 256.000000)">
                <circle id="Oval" fill="#FFFFFF" cx="8" cy="8" r="8"></circle>
                <path d="M8,0 C12.418278,0 16,3.581722 16,8 C16,12.418278 12.418278,16 8,16 C3.581722,16 0,12.418278 0,8 C0,3.581722 3.581722,0 8,0 Z M8,1.5 C4.41014913,1.5 1.5,4.41014913 1.5,8 C1.5,11.5898509 4.41014913,14.5 8,14.5 C11.5898509,14.5 14.5,11.5898509 14.5,8 C14.5,4.41014913 11.5898509,1.5 8,1.5 Z" id="Oval" fill="#008296" opacity="0.5"></path>
                <circle id="Oval" fill="#008296" cx="8" cy="8" r="5"></circle>
            </g>
        </g>
    </g>
</svg>