<?xml version="1.0" encoding="UTF-8"?>
<svg width="24px" height="24px" viewBox="0 0 24 24" version="1.1"
    xmlns="http://www.w3.org/2000/svg"
    xmlns:xlink="http://www.w3.org/1999/xlink">
    <g id="UI-kit" stroke="none" stroke-width="1" fill="none" fill-rule="evenodd">
        <g id="Icons" transform="translate(-40.000000, -313.000000)" fill="#8E8E93">
            <g id="Group-2" transform="translate(40.000000, 313.000000)">
                <g id="Icon/cube" transform="translate(3.000317, 2.998399)">
                    <path d="M15.6900828,12.9645006 L10.0000828,15.6085006 L10.0000828,8.89250056 L16.0000828,6.10550056 L16.0000828,12.5405006 C16.0000828,12.7145006 15.8820828,12.8765006 15.6900828,12.9645006 L15.6900828,12.9645006 Z M2.30308284,12.9655006 C2.11408284,12.8775006 1.99808284,12.7155006 2.00005739,12.5335006 L2.00005739,6.10550056 L8.00008284,8.89250056 L8.00008284,15.6105006 L2.30308284,12.9655006 Z M8.70708284,2.06550056 C8.79808284,2.02250056 8.89908284,2.00150056 9.00008284,2.00150056 C9.10008284,2.00150056 9.20108284,2.02250056 9.29208284,2.06550056 L14.6210828,4.53950056 L9.00008284,7.15150056 L3.37808284,4.53950056 L8.70708284,2.06550056 Z M17.6560828,4.26050056 C17.6530828,4.25250056 17.6540828,4.24350056 17.6500828,4.23550056 C17.6470828,4.22750056 17.6390828,4.22250056 17.6340828,4.21450056 C17.5880828,4.13850056 17.5320828,4.07150056 17.4790828,4.00150056 C17.4480828,3.96750056 17.4230828,3.92950056 17.3890828,3.90050056 C17.1540828,3.62450056 16.8770828,3.38150056 16.5330828,3.22250056 L10.1330828,0.249500565 C10.1320828,0.249500565 10.1310828,0.249500565 10.1310828,0.248500565 C9.41208284,-0.0834994352 8.58708284,-0.0824994352 7.86608284,0.249500565 L1.46908284,3.22150056 C1.12508284,3.38050056 0.847082843,3.62250056 0.612082843,3.89850056 C0.575082843,3.92950056 0.548082843,3.97150056 0.515082843,4.00850056 C0.463082843,4.07550056 0.410082843,4.14050056 0.366082843,4.21250056 C0.361082843,4.22150056 0.353082843,4.22750056 0.349082843,4.23550056 C0.345082843,4.24450056 0.346082843,4.25350056 0.342082843,4.26250056 C0.131082843,4.62450056 -2.22044605e-15,5.03150056 -2.22044605e-15,5.45950056 L-2.22044605e-15,12.5265006 C-0.00791715656,13.4765006 0.564082843,14.3605006 1.45808284,14.7785006 L7.85708284,17.7505006 C8.21908284,17.9195006 8.60708284,18.0035006 8.99608284,18.0035006 C9.38408284,18.0035006 9.77208284,17.9195006 10.1330828,17.7515006 L16.5300828,14.7795006 C17.4220828,14.3675006 17.9990828,13.4895006 18.0000828,12.5415006 L18.0000828,5.45850056 C17.9990828,5.03050056 17.8680828,4.62350056 17.6560828,4.26050056 L17.6560828,4.26050056 Z" id="🎨-Icon-Сolor"></path>
                </g>
            </g>
        </g>
    </g>
</svg>