<?xml version="1.0" encoding="UTF-8"?>
<svg width="24px" height="24px" viewBox="0 0 24 24" version="1.1"
    xmlns="http://www.w3.org/2000/svg"
    xmlns:xlink="http://www.w3.org/1999/xlink">
    <g id="UI-Kit" stroke="none" stroke-width="1" fill-rule="evenodd">
        <g id="Icons" transform="translate(-232.000000, -208.000000)">
            <g id="Row-3" transform="translate(40.000000, 208.000000)">
                <g id="Icon/cloud" transform="translate(192.000000, 3.600000)">
                    <path d="M19.2,16.7925 L19.2,16.8 L5.4,16.8 C2.417625,16.8 0,14.38125 0,11.4 C0,9.04875 1.502625,7.01625 3.6,6.3075 L3.6,6.3 C3.6,2.82 6.42,4.4408921e-16 9.9,4.4408921e-16 C11.80875,4.4408921e-16 13.515,0.8475 14.67375,2.186625 C15.2325,1.938 15.8475,1.8 16.5,1.8 C18.98625,1.8 21,3.81375 21,6.3 C21,6.5475 20.98125,6.7875 20.94375,7.02375 C22.74375,7.81125 24,9.61125 24,11.7 C24,14.415 21.8775,16.635 19.2,16.7925 Z M14.1825,4.37625 L13.30875,3.36375 C12.48,2.403 11.26125,1.8 9.9,1.8 C7.41375,1.8 5.4,3.81375 5.4,6.26625 L5.4,7.57875 L4.16625,8.0025 C2.799,8.50125 1.8,9.83625 1.8,11.4 C1.8,13.3875 3.41175,15 5.4,15 L18.9975,15 L19.095,14.9925 C20.8275,14.895 22.2,13.455 22.2,11.7 C22.2,10.35 21.39,9.18375 20.22,8.67375 L18.94125,8.115 L19.16625,6.73875 C19.18875,6.59625 19.2,6.45 19.2,6.3 C19.2,4.8075 17.9925,3.6 16.5,3.6 C16.10625,3.6 15.735,3.6825 15.405,3.8325 L14.1825,4.37625 Z" id="🎨-Icon-Сolor"></path>
                </g>
            </g>
        </g>
    </g>
</svg>