<svg xmlns="http://www.w3.org/2000/svg" viewBox="0 0 33 33">
	<path fill="#232F3E" d="M17.749 5.482a.577.577 0 0 0-.04.331l.482 2.758h-4.385l.46-2.762a.57.57 0 0 0-.041-.327l-1.927-4.34h7.378l-1.927 4.34ZM21.033.26a.572.572 0 0 0-.479-.26H11.42a.572.572 0 0 0-.522.803l2.215 4.987-.543 3.26a.57.57 0 0 0 .563.664h2.284v5.715h1.142V9.714h2.313a.569.569 0 0 0 .563-.67l-.57-3.257L21.075.803a.572.572 0 0 0-.043-.543Zm4.574 20.757-1.393.669-8.227 3.965-8.227-3.965-1.394-.669-4.39-2.114 4.362-1.777 9.403 4.531c.074.04.16.057.246.057a.518.518 0 0 0 .245-.057l9.404-4.531 4.362 1.777-4.391 2.114Zm4.39 3.029-14.01 6.748-14.011-6.748 4.362-1.777L15.74 26.8c.074.04.16.057.246.057a.518.518 0 0 0 .245-.057l9.404-4.531 4.362 1.777Zm1.976-5.206a.576.576 0 0 0-.354-.514l-4.59-1.875 4.619-2.222a.574.574 0 0 0-.029-1.046l-11.093-4.52.034.183c.057.348.006.697-.137 1.005l9.575 3.909-4.391 2.114-1.393.669-8.227 3.966-8.227-3.966-1.394-.669-4.39-2.114 9.603-3.914a1.71 1.71 0 0 1-.137-.983l.034-.212L.355 13.183a.574.574 0 0 0-.029 1.046l4.619 2.222-4.59 1.875a.574.574 0 0 0-.029 1.046l4.619 2.222-4.59 1.875a.574.574 0 0 0-.029 1.046l15.415 7.428c.074.04.16.057.246.057a.518.518 0 0 0 .245-.057l15.416-7.429a.574.574 0 0 0-.029-1.045l-4.59-1.875 4.619-2.223a.574.574 0 0 0 .325-.531Z"/>
</svg>