<svg xmlns="http://www.w3.org/2000/svg" width="198" height="34" viewBox="0 0 198 34"><g fill="none"><path fill="#FFF" d="M49.5904644,23.7160494 L48.2966653,20.0087901 L42.5352163,20.0087901 L41.2818484,23.7160494 L39.1592093,23.7160494 L44.3344056,9.75338272 L46.5581228,9.75338272 L51.7333191,23.7160494 L49.5904644,23.7160494 Z M43.0608222,18.4573827 L47.7710594,18.4573827 L45.405833,11.6070123 L43.0608222,18.4573827 Z M66.531146,23.7160494 L66.531146,16.7850864 C66.531146,16.1134815 66.4031138,15.6164938 66.1470494,15.2941235 C65.890985,14.9717531 65.4866728,14.8105679 64.9341128,14.8105679 C63.9502864,14.8105679 62.9597215,15.1127901 61.962418,15.7172346 C61.9758951,15.8112593 61.9826336,15.912 61.9826336,16.0194568 C61.9826336,16.1269136 61.9826336,16.2343704 61.9826336,16.3418272 L61.9826336,23.7160494 L59.9812882,23.7160494 L59.9812882,16.7850864 C59.9812882,16.1134815 59.853256,15.6164938 59.5971916,15.2941235 C59.3411272,14.9717531 58.936815,14.8105679 58.384255,14.8105679 C57.3599974,14.8105679 56.376171,15.1060741 55.4327758,15.6970864 L55.4327758,23.7160494 L53.4314304,23.7160494 L53.4314304,13.5009383 L55.109326,13.5009383 L55.3114821,14.5284938 C56.6052812,13.6419753 57.8653876,13.198716 59.0918013,13.198716 C60.3451692,13.198716 61.1942248,13.6755556 61.6389683,14.6292346 C62.9731985,13.6755556 64.3074288,13.198716 65.6416591,13.198716 C66.5715772,13.198716 67.2858621,13.460642 67.7845139,13.9844938 C68.2831656,14.5083457 68.5324915,15.2538272 68.5324915,16.2209383 L68.5324915,23.7160494 L66.531146,23.7160494 Z M77.5082225,23.7160494 L77.3464977,22.6683457 C76.861323,23.0847407 76.3256093,23.4071111 75.7393566,23.6354568 C75.1531039,23.8638025 74.5702205,23.9779753 73.9907063,23.9779753 C73.0338341,23.9779753 72.2690101,23.7059753 71.6962345,23.1619753 C71.1234589,22.6179753 70.8370711,21.889284 70.8370711,20.9759012 C70.8370711,19.995358 71.187475,19.2129383 71.8882828,18.628642 C72.5890906,18.0443457 73.5324858,17.7521975 74.7184683,17.7521975 C75.5001386,17.7521975 76.3491942,17.8663704 77.2656352,18.094716 L77.2656352,16.7649383 C77.2656352,16.0396049 77.1005411,15.5291852 76.7703528,15.233679 C76.4401644,14.9381728 75.8774966,14.7904198 75.0823493,14.7904198 C73.936798,14.7904198 72.7508155,14.9986173 71.5244018,15.4150123 L71.5244018,14.004642 C72.0095765,13.7494321 72.6025677,13.5513086 73.3033755,13.4102716 C74.0041834,13.2692346 74.7117297,13.198716 75.4260147,13.198716 C76.7063367,13.198716 77.6497318,13.464 78.2562001,13.9945679 C78.8626684,14.5251358 79.1659026,15.3344198 79.1659026,16.4224198 L79.1659026,23.7160494 L77.5082225,23.7160494 Z M74.475881,22.4668642 C75.392322,22.4668642 76.3222401,22.1243457 77.2656352,21.4393086 L77.2656352,19.3841975 C76.5648274,19.2095802 75.8505425,19.1222716 75.1227805,19.1222716 C73.5998712,19.1222716 72.8384165,19.7065679 72.8384165,20.8751605 C72.8384165,21.3855802 72.9799258,21.7784691 73.2629443,22.0538272 C73.5459629,22.3291852 73.9502751,22.4668642 74.475881,22.4668642 Z M81.3694042,23.7160494 L81.3694042,22.1847901 L87.2521468,15.0724938 L81.5715603,15.0724938 L81.5715603,13.5009383 L89.475864,13.5009383 L89.475864,15.0120494 L83.5122589,22.1444938 L89.5365108,22.1444938 L89.5365108,23.7160494 L81.3694042,23.7160494 Z M95.9246438,24.0182716 C94.3882574,24.0182716 93.1887978,23.5414321 92.3262651,22.5877531 C91.4637324,21.6340741 91.032466,20.3042963 91.032466,18.5984198 C91.032466,16.9059753 91.4637324,15.5829136 92.3262651,14.6292346 C93.1887978,13.6755556 94.3882574,13.198716 95.9246438,13.198716 C97.4610302,13.198716 98.6604897,13.6755556 99.5230224,14.6292346 C100.385555,15.5829136 100.816822,16.9059753 100.816822,18.5984198 C100.816822,20.3042963 100.385555,21.6340741 99.5230224,22.5877531 C98.6604897,23.5414321 97.4610302,24.0182716 95.9246438,24.0182716 Z M95.9246438,22.4064198 C97.8249112,22.4064198 98.7750448,21.1370864 98.7750448,18.5984198 C98.7750448,16.0731852 97.8249112,14.8105679 95.9246438,14.8105679 C94.0243764,14.8105679 93.0742427,16.0731852 93.0742427,18.5984198 C93.0742427,21.1370864 94.0243764,22.4064198 95.9246438,22.4064198 Z M110.21708,23.7160494 L110.21708,16.8858272 C110.21708,16.1739259 110.072202,15.6500741 109.782445,15.3142716 C109.492688,14.9784691 109.037836,14.8105679 108.417891,14.8105679 C107.353202,14.8105679 106.308729,15.1530864 105.284471,15.8381235 L105.284471,23.7160494 L103.283126,23.7160494 L103.283126,13.5009383 L104.961022,13.5009383 L105.163178,14.6292346 C106.4435,13.6755556 107.791207,13.198716 109.2063,13.198716 C110.190126,13.198716 110.938104,13.457284 111.450233,13.9744198 C111.962361,14.4915556 112.218426,15.2403951 112.218426,16.2209383 L112.218426,23.7160494 L110.21708,23.7160494 Z M120.668551,23.7160494 L120.668551,9.75338272 L122.730543,9.75338272 L122.730543,22.0236049 L129.341048,22.0236049 L129.341048,23.7160494 L120.668551,23.7160494 Z M135.425947,24.0182716 C133.88956,24.0182716 132.690101,23.5414321 131.827568,22.5877531 C130.965035,21.6340741 130.533769,20.3042963 130.533769,18.5984198 C130.533769,16.9059753 130.965035,15.5829136 131.827568,14.6292346 C132.690101,13.6755556 133.88956,13.198716 135.425947,13.198716 C136.962333,13.198716 138.161793,13.6755556 139.024325,14.6292346 C139.886858,15.5829136 140.318125,16.9059753 140.318125,18.5984198 C140.318125,20.3042963 139.886858,21.6340741 139.024325,22.5877531 C138.161793,23.5414321 136.962333,24.0182716 135.425947,24.0182716 Z M135.425947,22.4064198 C137.326214,22.4064198 138.276348,21.1370864 138.276348,18.5984198 C138.276348,16.0731852 137.326214,14.8105679 135.425947,14.8105679 C133.525679,14.8105679 132.575546,16.0731852 132.575546,18.5984198 C132.575546,21.1370864 133.525679,22.4064198 135.425947,22.4064198 Z M149.880108,23.3332346 C149.098438,23.7361975 148.195474,23.937679 147.171217,23.937679 C145.580922,23.937679 144.364616,23.4843457 143.522299,22.577679 C142.679982,21.6710123 142.258823,20.3580247 142.258823,18.638716 C142.258823,16.9328395 142.693459,15.6131358 143.56273,14.6796049 C144.432001,13.7460741 145.661784,13.2793086 147.252079,13.2793086 C148.155043,13.2793086 149.004099,13.467358 149.799246,13.8434568 L149.799246,15.2739753 C149.031053,15.0321975 148.276337,14.9113086 147.535098,14.9113086 C146.403023,14.9113086 145.58766,15.1967407 145.089009,15.7676049 C144.590357,16.3384691 144.341031,17.2484938 144.341031,18.497679 L144.341031,18.7596049 C144.341031,19.9819259 144.593726,20.8785185 145.099116,21.4493827 C145.604507,22.0202469 146.403023,22.305679 147.494666,22.305679 C148.222428,22.305679 149.017576,22.171358 149.880108,21.902716 L149.880108,23.3332346 Z M158.128077,23.7160494 L157.966353,22.6683457 C157.481178,23.0847407 156.945464,23.4071111 156.359212,23.6354568 C155.772959,23.8638025 155.190075,23.9779753 154.610561,23.9779753 C153.653689,23.9779753 152.888865,23.7059753 152.316089,23.1619753 C151.743314,22.6179753 151.456926,21.889284 151.456926,20.9759012 C151.456926,19.995358 151.80733,19.2129383 152.508138,18.628642 C153.208946,18.0443457 154.152341,17.7521975 155.338323,17.7521975 C156.119993,17.7521975 156.969049,17.8663704 157.88549,18.094716 L157.88549,16.7649383 C157.88549,16.0396049 157.720396,15.5291852 157.390208,15.233679 C157.060019,14.9381728 156.497352,14.7904198 155.702204,14.7904198 C154.556653,14.7904198 153.37067,14.9986173 152.144257,15.4150123 L152.144257,14.004642 C152.629431,13.7494321 153.222423,13.5513086 153.92323,13.4102716 C154.624038,13.2692346 155.331585,13.198716 156.04587,13.198716 C157.326192,13.198716 158.269587,13.464 158.876055,13.9945679 C159.482523,14.5251358 159.785758,15.3344198 159.785758,16.4224198 L159.785758,23.7160494 L158.128077,23.7160494 Z M155.095736,22.4668642 C156.012177,22.4668642 156.942095,22.1243457 157.88549,21.4393086 L157.88549,19.3841975 C157.184682,19.2095802 156.470397,19.1222716 155.742635,19.1222716 C154.219726,19.1222716 153.458271,19.7065679 153.458271,20.8751605 C153.458271,21.3855802 153.599781,21.7784691 153.882799,22.0538272 C154.165818,22.3291852 154.57013,22.4668642 155.095736,22.4668642 Z M168.518901,23.4742716 C167.858525,23.7294815 167.110547,23.8570864 166.274968,23.8570864 C164.361224,23.8570864 163.404352,22.9034074 163.404352,20.9960494 L163.404352,15.0724938 L161.544516,15.0724938 L161.544516,13.7830123 L163.464999,13.5412346 L163.768233,10.6399012 L165.405697,10.6399012 L165.405697,13.5009383 L168.438039,13.5009383 L168.438039,15.0724938 L165.405697,15.0724938 L165.405697,20.8953086 C165.405697,21.3922963 165.516883,21.7415309 165.739255,21.9430123 C165.961627,22.1444938 166.342354,22.2452346 166.881437,22.2452346 C167.433997,22.2452346 167.979818,22.1780741 168.518901,22.0437531 L168.518901,23.4742716 Z M170.580894,23.7160494 L170.580894,13.5009383 L172.582239,13.5009383 L172.582239,23.7160494 L170.580894,23.7160494 Z M171.591674,11.6876049 C171.200839,11.6876049 170.894236,11.5767901 170.671864,11.3551605 C170.449492,11.1335309 170.338306,10.8413827 170.338306,10.478716 C170.338306,10.1160494 170.449492,9.82390123 170.671864,9.6022716 C170.894236,9.38064198 171.200839,9.26982716 171.591674,9.26982716 C171.982509,9.26982716 172.289113,9.38064198 172.511484,9.6022716 C172.733856,9.82390123 172.845042,10.1160494 172.845042,10.478716 C172.845042,10.8413827 172.733856,11.1335309 172.511484,11.3551605 C172.289113,11.5767901 171.982509,11.6876049 171.591674,11.6876049 Z M180.021584,24.0182716 C178.485197,24.0182716 177.285738,23.5414321 176.423205,22.5877531 C175.560672,21.6340741 175.129406,20.3042963 175.129406,18.5984198 C175.129406,16.9059753 175.560672,15.5829136 176.423205,14.6292346 C177.285738,13.6755556 178.485197,13.198716 180.021584,13.198716 C181.55797,13.198716 182.75743,13.6755556 183.619962,14.6292346 C184.482495,15.5829136 184.913761,16.9059753 184.913761,18.5984198 C184.913761,20.3042963 184.482495,21.6340741 183.619962,22.5877531 C182.75743,23.5414321 181.55797,24.0182716 180.021584,24.0182716 Z M180.021584,22.4064198 C181.921851,22.4064198 182.871985,21.1370864 182.871985,18.5984198 C182.871985,16.0731852 181.921851,14.8105679 180.021584,14.8105679 C178.121316,14.8105679 177.171183,16.0731852 177.171183,18.5984198 C177.171183,21.1370864 178.121316,22.4064198 180.021584,22.4064198 Z M194.31402,23.7160494 L194.31402,16.8858272 C194.31402,16.1739259 194.169142,15.6500741 193.879385,15.3142716 C193.589628,14.9784691 193.134776,14.8105679 192.514831,14.8105679 C191.450142,14.8105679 190.405669,15.1530864 189.381411,15.8381235 L189.381411,23.7160494 L187.380066,23.7160494 L187.380066,13.5009383 L189.057962,13.5009383 L189.260118,14.6292346 C190.54044,13.6755556 191.888147,13.198716 193.30324,13.198716 C194.287066,13.198716 195.035044,13.457284 195.547173,13.9744198 C196.059301,14.4915556 196.315366,15.2403951 196.315366,16.2209383 L196.315366,23.7160494 L194.31402,23.7160494 Z"/><path fill="#232F3E" d="M45.9668162,8.07437037 L47.7317091,8.07437037 L48.138381,9.1715702 L51.7451115,18.902321 L51.7467962,11.8219259 L56.4957188,11.8219259 L56.5294727,11.9965432 L56.9274515,11.8607039 C57.5024083,11.6799954 58.0794674,11.5701804 58.6578133,11.5334827 L59.0918013,11.5197037 C60.1472223,11.5197037 61.0712814,11.7793437 61.8090624,12.2879588 L62.0095878,12.4381235 L62.2838708,12.302079 C63.2440584,11.8496386 64.2230021,11.5899628 65.2154921,11.5321133 L65.6416591,11.5197037 C67.0058848,11.5197037 68.1650592,11.9447692 69.0066548,12.8288961 C69.3058071,13.1431664 69.5474563,13.4964821 69.7338656,13.8846825 L69.8397676,14.1288889 L69.8397676,12.9922785 L70.7380843,12.5197491 C71.3763553,12.184008 72.1201835,11.9354886 72.9699387,11.764476 C73.7804825,11.6013547 74.5997264,11.5197037 75.4260147,11.5197037 C77.0791717,11.5197037 78.408159,11.8934167 79.36753,12.732721 C79.5352458,12.8794469 79.688251,13.0370593 79.8267904,13.2049697 L79.886926,13.2843457 L79.886926,11.8219259 L91.1604982,11.8219259 L91.1604982,13.4153086 L91.3389394,13.2311154 C92.4225909,12.176117 93.8369968,11.6105637 95.5029584,11.5297981 L95.9246438,11.5197037 C97.9165376,11.5197037 99.5750194,12.1790254 100.774324,13.5050644 C101.043225,13.8023805 101.279995,14.1228859 101.485144,14.4656208 L101.598492,14.6712099 L101.598492,11.8219259 L106.371477,11.8219259 L106.409807,12.0351605 L106.594726,11.9655473 C107.297791,11.7191585 108.020709,11.5738041 108.760456,11.5321968 L109.2063,11.5197037 C110.609627,11.5197037 111.79059,11.9279499 112.649209,12.7949637 C113.501845,13.6559353 113.90306,14.8292574 113.90306,16.2209383 L113.90306,25.3950617 L108.532446,25.3950617 L108.532446,16.8858272 C108.532446,16.7128362 108.522353,16.5898453 108.513898,16.5120009 L108.508861,16.4862222 L108.417891,16.4895802 C107.970173,16.4895802 107.520368,16.5820287 107.06124,16.7749171 L106.969106,16.8153086 L106.969106,25.3950617 L101.598492,25.3950617 L101.598492,22.5474568 L101.440991,22.8231587 C101.311167,23.0338269 101.16919,23.2358313 101.014934,23.4289462 L100.774324,23.7119232 C99.5750194,25.0379623 97.9165376,25.697284 95.9246438,25.697284 C94.0750281,25.697284 92.5128952,25.1287872 91.3389394,23.9858723 L91.221145,23.8638025 L91.221145,25.3950617 L76.0629429,25.3950617 L76.0493293,25.3060741 L75.9627015,25.3383735 C75.4416162,25.5072763 74.9156301,25.6098477 74.3873274,25.6441201 L73.9907063,25.6569877 C72.6215606,25.6569877 71.438118,25.2361112 70.5340596,24.3774717 C70.4503124,24.2979319 70.3703736,24.2159415 70.2942429,24.1315852 L70.215441,24.0384198 L70.2171257,25.3950617 L64.8465118,25.3950617 L64.8465118,16.7850864 C64.8465118,16.7123925 64.8447019,16.6488274 64.8420661,16.5941496 L64.8347194,16.4929383 L64.6492066,16.5025907 C64.3622271,16.5286958 64.0688496,16.594337 63.7674701,16.7017848 L63.6655832,16.7414321 L63.6672678,25.3950617 L58.296654,25.3950617 L58.296654,16.7850864 C58.296654,16.7123925 58.2948441,16.6488274 58.2922083,16.5941496 L58.2848615,16.4929383 L58.0858295,16.5020492 C57.7887535,16.5270485 57.495456,16.5898228 57.2035088,16.692029 L57.1157254,16.726321 L57.11741,25.3950617 L51.7467962,25.3950617 L48.3927926,25.3950617 L47.9993327,24.2676396 L47.0972057,21.6861235 L43.7447836,21.6861235 L42.878289,24.2521853 L42.4918999,25.3950617 L36.7409871,25.3950617 L37.5789511,23.1342369 L42.7541474,9.1715702 L43.1608193,8.07437037 L44.8330573,8.07437037 L45.9668162,8.07437037 Z M180.021584,13.198716 C178.485197,13.198716 177.285738,13.6755556 176.423205,14.6292346 C175.560672,15.5829136 175.129406,16.9059753 175.129406,18.5984198 C175.129406,20.3042963 175.560672,21.6340741 176.423205,22.5877531 C177.285738,23.5414321 178.485197,24.0182716 180.021584,24.0182716 C181.55797,24.0182716 182.75743,23.5414321 183.619962,22.5877531 C184.482495,21.6340741 184.913761,20.3042963 184.913761,18.5984198 C184.913761,16.9059753 184.482495,15.5829136 183.619962,14.6292346 C182.75743,13.6755556 181.55797,13.198716 180.021584,13.198716 Z M95.9246438,13.198716 C94.3882574,13.198716 93.1887978,13.6755556 92.3262651,14.6292346 C91.4637324,15.5829136 91.032466,16.9059753 91.032466,18.5984198 C91.032466,20.3042963 91.4637324,21.6340741 92.3262651,22.5877531 C93.1887978,23.5414321 94.3882574,24.0182716 95.9246438,24.0182716 C97.4610302,24.0182716 98.6604897,23.5414321 99.5230224,22.5877531 C100.385555,21.6340741 100.816822,20.3042963 100.816822,18.5984198 C100.816822,16.9059753 100.385555,15.5829136 99.5230224,14.6292346 C98.6604897,13.6755556 97.4610302,13.198716 95.9246438,13.198716 Z M135.425947,13.198716 C133.88956,13.198716 132.690101,13.6755556 131.827568,14.6292346 C130.965035,15.5829136 130.533769,16.9059753 130.533769,18.5984198 C130.533769,20.3042963 130.965035,21.6340741 131.827568,22.5877531 C132.690101,23.5414321 133.88956,24.0182716 135.425947,24.0182716 C136.962333,24.0182716 138.161793,23.5414321 139.024325,22.5877531 C139.886858,21.6340741 140.318125,20.3042963 140.318125,18.5984198 C140.318125,16.9059753 139.886858,15.5829136 139.024325,14.6292346 C138.161793,13.6755556 136.962333,13.198716 135.425947,13.198716 Z M75.4260147,13.198716 C74.7117297,13.198716 74.0041834,13.2692346 73.3033755,13.4102716 C72.6025677,13.5513086 72.0095765,13.7494321 71.5244018,14.004642 L71.5244018,15.4150123 C72.7508155,14.9986173 73.936798,14.7904198 75.0823493,14.7904198 C75.8774966,14.7904198 76.4401644,14.9381728 76.7703528,15.233679 C77.1005411,15.5291852 77.2656352,16.0396049 77.2656352,16.7649383 L77.2656352,18.094716 C76.3491942,17.8663704 75.5001386,17.7521975 74.7184683,17.7521975 C73.5324858,17.7521975 72.5890906,18.0443457 71.8882828,18.628642 C71.187475,19.2129383 70.8370711,19.995358 70.8370711,20.9759012 C70.8370711,21.889284 71.1234589,22.6179753 71.6962345,23.1619753 C72.2690101,23.7059753 73.0338341,23.9779753 73.9907063,23.9779753 C74.5702205,23.9779753 75.1531039,23.8638025 75.7393566,23.6354568 C76.3256093,23.4071111 76.861323,23.0847407 77.3464977,22.6683457 L77.5082225,23.7160494 L79.1659026,23.7160494 L79.1659026,16.4224198 C79.1659026,15.3344198 78.8626684,14.5251358 78.2562001,13.9945679 C77.6497318,13.464 76.7063367,13.198716 75.4260147,13.198716 Z M156.04587,13.198716 C155.331585,13.198716 154.624038,13.2692346 153.92323,13.4102716 C153.222423,13.5513086 152.629431,13.7494321 152.144257,14.004642 L152.144257,15.4150123 C153.37067,14.9986173 154.556653,14.7904198 155.702204,14.7904198 C156.497352,14.7904198 157.060019,14.9381728 157.390208,15.233679 C157.720396,15.5291852 157.88549,16.0396049 157.88549,16.7649383 L157.88549,18.094716 C156.969049,17.8663704 156.119993,17.7521975 155.338323,17.7521975 C154.152341,17.7521975 153.208946,18.0443457 152.508138,18.628642 C151.80733,19.2129383 151.456926,19.995358 151.456926,20.9759012 C151.456926,21.889284 151.743314,22.6179753 152.316089,23.1619753 C152.888865,23.7059753 153.653689,23.9779753 154.610561,23.9779753 C155.190075,23.9779753 155.772959,23.8638025 156.359212,23.6354568 C156.945464,23.4071111 157.481178,23.0847407 157.966353,22.6683457 L158.128077,23.7160494 L159.785758,23.7160494 L159.785758,16.4224198 C159.785758,15.3344198 159.482523,14.5251358 158.876055,13.9945679 C158.269587,13.464 157.326192,13.198716 156.04587,13.198716 Z M147.252079,13.2793086 C145.661784,13.2793086 144.432001,13.7460741 143.56273,14.6796049 C142.693459,15.6131358 142.258823,16.9328395 142.258823,18.638716 C142.258823,20.3580247 142.679982,21.6710123 143.522299,22.577679 C144.364616,23.4843457 145.580922,23.937679 147.171217,23.937679 C148.195474,23.937679 149.098438,23.7361975 149.880108,23.3332346 L149.880108,21.902716 C149.017576,22.171358 148.222428,22.305679 147.494666,22.305679 C146.403023,22.305679 145.604507,22.0202469 145.099116,21.4493827 C144.593726,20.8785185 144.341031,19.9819259 144.341031,18.7596049 L144.341031,18.497679 C144.341031,17.2484938 144.590357,16.3384691 145.089009,15.7676049 C145.58766,15.1967407 146.403023,14.9113086 147.535098,14.9113086 C148.276337,14.9113086 149.031053,15.0321975 149.799246,15.2739753 L149.799246,13.8434568 C149.004099,13.467358 148.155043,13.2793086 147.252079,13.2793086 Z M165.405697,10.6399012 L163.768233,10.6399012 L163.464999,13.5412346 L161.544516,13.7830123 L161.544516,15.0724938 L163.404352,15.0724938 L163.404352,20.9960494 C163.404352,22.9034074 164.361224,23.8570864 166.274968,23.8570864 C167.110547,23.8570864 167.858525,23.7294815 168.518901,23.4742716 L168.518901,22.0437531 C167.979818,22.1780741 167.433997,22.2452346 166.881437,22.2452346 C166.342354,22.2452346 165.961627,22.1444938 165.739255,21.9430123 C165.516883,21.7415309 165.405697,21.3922963 165.405697,20.8953086 L165.405697,15.0724938 L168.438039,15.0724938 L168.438039,13.5009383 L165.405697,13.5009383 L165.405697,10.6399012 Z M65.6416591,13.198716 C64.3074288,13.198716 62.9731985,13.6755556 61.6389683,14.6292346 C61.1942248,13.6755556 60.3451692,13.198716 59.0918013,13.198716 C57.8653876,13.198716 56.6052812,13.6419753 55.3114821,14.5284938 L55.109326,13.5009383 L53.4314304,13.5009383 L53.4314304,23.7160494 L55.4327758,23.7160494 L55.4327758,15.6970864 C56.376171,15.1060741 57.3599974,14.8105679 58.384255,14.8105679 C58.936815,14.8105679 59.3411272,14.9717531 59.5971916,15.2941235 C59.853256,15.6164938 59.9812882,16.1134815 59.9812882,16.7850864 L59.9812882,23.7160494 L61.9826336,23.7160494 L61.9826336,16.0194568 C61.9826336,15.912 61.9758951,15.8112593 61.962418,15.7172346 C62.9597215,15.1127901 63.9502864,14.8105679 64.9341128,14.8105679 C65.4866728,14.8105679 65.890985,14.9717531 66.1470494,15.2941235 C66.4031138,15.6164938 66.531146,16.1134815 66.531146,16.7850864 L66.531146,23.7160494 L68.5324915,23.7160494 L68.5324915,16.2209383 C68.5324915,15.2538272 68.2831656,14.5083457 67.7845139,13.9844938 C67.2858621,13.460642 66.5715772,13.198716 65.6416591,13.198716 Z M109.2063,13.198716 C107.791207,13.198716 106.4435,13.6755556 105.163178,14.6292346 L104.961022,13.5009383 L103.283126,13.5009383 L103.283126,23.7160494 L105.284471,23.7160494 L105.284471,15.8381235 C106.308729,15.1530864 107.353202,14.8105679 108.417891,14.8105679 C109.037836,14.8105679 109.492688,14.9784691 109.782445,15.3142716 C110.072202,15.6500741 110.21708,16.1739259 110.21708,16.8858272 L110.21708,23.7160494 L112.218426,23.7160494 L112.218426,16.2209383 C112.218426,15.2403951 111.962361,14.4915556 111.450233,13.9744198 C110.938104,13.457284 110.190126,13.198716 109.2063,13.198716 Z M89.475864,13.5009383 L81.5715603,13.5009383 L81.5715603,15.0724938 L87.2521468,15.0724938 L81.3694042,22.1847901 L81.3694042,23.7160494 L89.5365108,23.7160494 L89.5365108,22.1444938 L83.5122589,22.1444938 L89.475864,15.0120494 L89.475864,13.5009383 Z M193.30324,13.198716 C191.888147,13.198716 190.54044,13.6755556 189.260118,14.6292346 L189.057962,13.5009383 L187.380066,13.5009383 L187.380066,23.7160494 L189.381411,23.7160494 L189.381411,15.8381235 C190.405669,15.1530864 191.450142,14.8105679 192.514831,14.8105679 C193.134776,14.8105679 193.589628,14.9784691 193.879385,15.3142716 C194.169142,15.6500741 194.31402,16.1739259 194.31402,16.8858272 L194.31402,23.7160494 L196.315366,23.7160494 L196.315366,16.2209383 C196.315366,15.2403951 196.059301,14.4915556 195.547173,13.9744198 C195.035044,13.457284 194.287066,13.198716 193.30324,13.198716 Z M172.582239,13.5009383 L170.580894,13.5009383 L170.580894,23.7160494 L172.582239,23.7160494 L172.582239,13.5009383 Z M122.730543,9.75338272 L120.668551,9.75338272 L120.668551,23.7160494 L129.341048,23.7160494 L129.341048,22.0236049 L122.730543,22.0236049 L122.730543,9.75338272 Z M46.5581228,9.75338272 L44.3344056,9.75338272 L39.1592093,23.7160494 L41.2818484,23.7160494 L42.5352163,20.0087901 L48.2966653,20.0087901 L49.5904644,23.7160494 L51.7333191,23.7160494 L46.5581228,9.75338272 Z M155.742635,19.1222716 C156.470397,19.1222716 157.184682,19.2095802 157.88549,19.3841975 L157.88549,21.4393086 C156.942095,22.1243457 156.012177,22.4668642 155.095736,22.4668642 C154.57013,22.4668642 154.165818,22.3291852 153.882799,22.0538272 C153.599781,21.7784691 153.458271,21.3855802 153.458271,20.8751605 C153.458271,19.7065679 154.219726,19.1222716 155.742635,19.1222716 Z M75.1227805,19.1222716 C75.8505425,19.1222716 76.5648274,19.2095802 77.2656352,19.3841975 L77.2656352,21.4393086 C76.3222401,22.1243457 75.392322,22.4668642 74.475881,22.4668642 C73.9502751,22.4668642 73.5459629,22.3291852 73.2629443,22.0538272 C72.9799258,21.7784691 72.8384165,21.3855802 72.8384165,20.8751605 C72.8384165,19.7065679 73.5998712,19.1222716 75.1227805,19.1222716 Z M180.021584,14.8105679 C181.921851,14.8105679 182.871985,16.0731852 182.871985,18.5984198 C182.871985,21.1370864 181.921851,22.4064198 180.021584,22.4064198 C178.121316,22.4064198 177.171183,21.1370864 177.171183,18.5984198 C177.171183,16.0731852 178.121316,14.8105679 180.021584,14.8105679 Z M135.425947,14.8105679 C137.326214,14.8105679 138.276348,16.0731852 138.276348,18.5984198 C138.276348,21.1370864 137.326214,22.4064198 135.425947,22.4064198 C133.525679,22.4064198 132.575546,21.1370864 132.575546,18.5984198 C132.575546,16.0731852 133.525679,14.8105679 135.425947,14.8105679 Z M95.9246438,14.8105679 C97.8249112,14.8105679 98.7750448,16.0731852 98.7750448,18.5984198 C98.7750448,21.1370864 97.8249112,22.4064198 95.9246438,22.4064198 C94.0243764,22.4064198 93.0742427,21.1370864 93.0742427,18.5984198 C93.0742427,16.0731852 94.0243764,14.8105679 95.9246438,14.8105679 Z M95.9246438,16.4895802 C95.0772727,16.4895802 94.7588769,16.9126914 94.7588769,18.5984198 C94.7588769,20.2987589 95.079733,20.7274074 95.9246438,20.7274074 C96.7695545,20.7274074 97.0904106,20.2987589 97.0904106,18.5984198 C97.0904106,16.9126914 96.7720148,16.4895802 95.9246438,16.4895802 Z M180.021584,16.4895802 C179.174213,16.4895802 178.855817,16.9126914 178.855817,18.5984198 C178.855817,20.2987589 179.176673,20.7274074 180.021584,20.7274074 C180.866494,20.7274074 181.187351,20.2987589 181.187351,18.5984198 C181.187351,16.9126914 180.868955,16.4895802 180.021584,16.4895802 Z M135.425947,16.4895802 C134.578576,16.4895802 134.26018,16.9126914 134.26018,18.5984198 C134.26018,20.2987589 134.581036,20.7274074 135.425947,20.7274074 C136.270858,20.7274074 136.591714,20.2987589 136.591714,18.5984198 C136.591714,16.9126914 136.273318,16.4895802 135.425947,16.4895802 Z M147.535098,16.590321 C146.848754,16.590321 146.496141,16.7137592 146.359599,16.8700746 C146.171131,17.0858357 146.025665,17.6167773 146.025665,18.497679 L146.025665,18.7596049 C146.025665,19.6094033 146.1699,20.1211644 146.362319,20.3385118 C146.510674,20.5060859 146.848007,20.6266667 147.494666,20.6266667 C148.041763,20.6266667 148.669901,20.5205579 149.377624,20.3001324 L149.836308,20.1565432 L149.877326,19.9168291 C150.063579,19.0142787 150.496271,18.2203753 151.165282,17.5755596 L151.25477,17.4919506 L150.457938,17.2417778 L149.29195,16.8750524 C148.806026,16.7221149 148.335019,16.6316493 147.876594,16.6015806 L147.535098,16.590321 Z M168.896259,16.7498272 L167.090331,16.7498272 L167.090331,20.5561481 L167.29417,20.5494439 C167.431154,20.538252 167.567584,20.5214545 167.703571,20.4990322 L168.110317,20.4148719 L168.896259,20.2186667 L168.896259,16.7498272 Z M89.3815245,17.7471605 L87.1089529,20.4654815 L89.5179798,20.4654815 L89.4862767,20.3024176 C89.4167997,19.8995899 89.3736629,19.479045 89.3564369,19.0415442 L89.3478318,18.5984198 C89.3478318,18.4383295 89.3511566,18.2803538 89.3578251,18.1245282 L89.3815245,17.7471605 Z M83.6790377,16.7515062 L80.8505368,16.7515062 L80.8505368,20.1699753 L83.6790377,16.7515062 Z M45.405833,11.6070123 L47.7710594,18.4573827 L43.0608222,18.4573827 L45.405833,11.6070123 Z M171.591674,9.26982716 C171.200839,9.26982716 170.894236,9.38064198 170.671864,9.6022716 C170.449492,9.82390123 170.338306,10.1160494 170.338306,10.478716 C170.338306,10.8413827 170.449492,11.1335309 170.671864,11.3551605 C170.894236,11.5767901 171.200839,11.6876049 171.591674,11.6876049 C171.982509,11.6876049 172.289113,11.5767901 172.511484,11.3551605 C172.733856,11.1335309 172.845042,10.8413827 172.845042,10.478716 C172.845042,10.1160494 172.733856,9.82390123 172.511484,9.6022716 C172.289113,9.38064198 171.982509,9.26982716 171.591674,9.26982716 Z M159.859881,12.6295309 L159.859881,12.3027439 L161.333397,12.1172367 L161.926928,12.0401975 L162.092665,10.4659453 L162.249966,8.96088889 L167.090331,8.96088889 L167.090331,11.8202469 L168.958591,11.8202469 L168.860119,11.6009048 C168.756821,11.3397253 168.692344,11.0616059 168.666561,10.7719784 L168.653672,10.478716 C168.653672,9.68752657 168.928538,8.96529735 169.480648,8.41503059 C170.04005,7.85749526 170.777904,7.59081481 171.591674,7.59081481 C172.405445,7.59081481 173.143298,7.85749526 173.702701,8.41503059 C174.25481,8.96529735 174.529676,9.68752657 174.529676,10.478716 C174.529676,10.8743108 174.46096,11.2526655 174.323229,11.6009048 L174.221388,11.8219259 L174.266873,11.8219259 L174.266873,14.8122469 L174.461083,14.4656208 C174.597849,14.2371309 174.748669,14.0185207 174.913694,13.8100747 L175.171903,13.5050644 C176.371208,12.1790254 178.02969,11.5197037 180.021584,11.5197037 C182.013477,11.5197037 183.671959,12.1790254 184.871264,13.5050644 C185.140165,13.8023805 185.376935,14.1228859 185.582084,14.4656208 L185.695432,14.6712099 L185.695432,11.8219259 L190.468417,11.8219259 L190.506747,12.0351605 L190.691666,11.9655473 C191.394731,11.7191585 192.117649,11.5738041 192.857396,11.5321968 L193.30324,11.5197037 C194.706567,11.5197037 195.88753,11.9279499 196.746149,12.7949637 C197.598784,13.6559353 198,14.8292574 198,16.2209383 L198,25.3950617 L192.629386,25.3950617 L192.629386,16.8858272 C192.629386,16.7128362 192.619293,16.5898453 192.610838,16.5120009 L192.605801,16.4862222 L192.514831,16.4895802 C192.067113,16.4895802 191.617308,16.5820287 191.15818,16.7749171 L191.066046,16.8153086 L191.066046,25.3950617 L185.695432,25.3950617 L185.695432,22.5474568 L185.537931,22.8231587 C185.408107,23.0338269 185.26613,23.2358313 185.111874,23.4289462 L184.871264,23.7119232 C183.671959,25.0379623 182.013477,25.697284 180.021584,25.697284 C178.02969,25.697284 176.371208,25.0379623 175.171903,23.7119232 C174.838768,23.3435851 174.555006,22.939238 174.319598,22.5006867 L174.266873,22.3980247 L174.266873,25.3950617 L168.896259,25.3950617 L168.896259,25.1197037 L168.688742,25.19235 C168.093214,25.3769631 167.458181,25.4861944 166.786017,25.5225025 L166.274968,25.5360988 C163.430826,25.5360988 161.719718,23.8307003 161.719718,20.9960494 L161.719718,16.7498272 L161.468707,16.7498272 L161.470392,25.3950617 L156.682798,25.3950617 L156.669184,25.3060741 L156.582556,25.3383735 C156.061471,25.5072763 155.535485,25.6098477 155.007182,25.6441201 L154.610561,25.6569877 C153.365883,25.6569877 152.274679,25.3091559 151.407332,24.6008052 L151.288463,24.4951111 L150.654068,24.824563 C149.75193,25.289629 148.744897,25.5473028 147.647178,25.6044546 L147.171217,25.6166914 C145.139986,25.6166914 143.472265,24.9951095 142.28618,23.7184135 C141.954589,23.3614899 141.672724,22.9662105 141.439239,22.5343847 L141.273312,22.2066173 L141.127933,22.5006867 C140.951377,22.8296002 140.747621,23.1392738 140.516237,23.4289462 L140.275628,23.7119232 C139.076322,25.0379623 137.417841,25.697284 135.425947,25.697284 C133.718609,25.697284 132.256227,25.2128844 131.118,24.2394278 L131.025682,24.1559506 L131.025682,25.3950617 L118.983917,25.3950617 L118.983917,8.07437037 L124.415178,8.07437037 L124.415178,20.3429136 L128.995698,20.3429136 L128.98758,20.3024176 C128.918103,19.8995899 128.874966,19.479045 128.85774,19.0415442 L128.849135,18.5984198 C128.849135,16.5172462 129.41103,14.7934342 130.576266,13.5050644 C131.775571,12.1790254 133.434053,11.5197037 135.425947,11.5197037 C137.417841,11.5197037 139.076322,12.1790254 140.275628,13.5050644 C140.634162,13.9014859 140.935575,14.3391327 141.181074,14.8157302 L141.296897,15.0607407 L141.462158,14.7376201 C141.64145,14.4106479 141.848401,14.1035153 142.083468,13.8170307 L142.327925,13.5374588 C143.537646,12.2383105 145.218617,11.6002963 147.252079,11.6002963 C148.403251,11.6002963 149.499143,11.8430152 150.521523,12.3265937 L151.153692,12.6261728 L151.357939,12.5197491 C151.868556,12.2511562 152.446729,12.0383852 153.092649,11.8764621 L153.589794,11.764476 C154.400337,11.6013547 155.219581,11.5197037 156.04587,11.5197037 C157.561263,11.5197037 158.804265,11.8337264 159.739868,12.5325415 L159.859881,12.6295309 Z"/><path fill="#FFF" d="M18.7277903,7.06660317 C18.6844725,7.1648254 18.6709357,7.27330159 18.6893458,7.37907937 L19.1474309,9.98412698 L14.9889278,9.98412698 L15.4248126,7.3747619 C15.4426811,7.27006349 15.4286029,7.16320635 15.3858266,7.06660317 L13.5583594,2.96825397 L20.5552575,2.96825397 L18.7277903,7.06660317 Z M21.8428773,2.13444444 C21.742705,1.98171429 21.5721414,1.88888889 21.3885825,1.88888889 L12.7250344,1.88888889 C12.5414755,1.88888889 12.3709118,1.98171429 12.2707396,2.13444444 C12.1711088,2.28771429 12.1554061,2.48092063 12.2301292,2.64768254 L14.3299567,7.35695238 L13.8155585,10.4353016 C13.7890264,10.5918095 13.8334271,10.7515556 13.9363067,10.8729841 C14.0391863,10.993873 14.190257,11.0634921 14.3494496,11.0634921 L16.5153367,11.0634921 L16.5153367,16.4603175 L17.5982802,16.4603175 L17.5982802,11.0634921 L19.7923238,11.0634921 C19.9525994,11.0634921 20.1042115,10.9927937 20.2065496,10.8708254 C20.3099708,10.7488571 20.3532885,10.5874921 20.3256734,10.4304444 L19.7847431,7.35479365 L21.8834877,2.64768254 C21.9582108,2.48092063 21.9425081,2.28771429 21.8428773,2.13444444 L21.8428773,2.13444444 Z M26.1806075,21.7384127 L24.8594165,22.3698413 L17.0568084,26.1152381 L9.25420041,22.3698413 L7.93300932,21.7384127 L3.76909152,19.7415873 L7.90593574,18.0631746 L16.8239756,22.3428571 C16.8943669,22.3806349 16.9755877,22.3968254 17.0568084,22.3968254 C17.1380292,22.3968254 17.21925,22.3806349 17.2896413,22.3428571 L26.2076811,18.0631746 L30.3445254,19.7415873 L26.1806075,21.7384127 Z M30.3445254,24.5987302 L17.0568084,30.972381 L3.76909152,24.5987302 L7.90593574,22.9203175 L16.8239756,27.2 C16.8943669,27.2377778 16.9755877,27.2539683 17.0568084,27.2539683 C17.1380292,27.2539683 17.21925,27.2377778 17.2896413,27.2 L26.2076811,22.9203175 L30.3445254,24.5987302 Z M32.2183606,19.6822222 C32.2126029,19.4663492 32.077235,19.2774603 31.8823052,19.1965079 L27.5288722,17.4263492 L31.9093787,15.3269841 C32.1043086,15.2352381 32.2234324,15.0355556 32.2183606,14.8250794 C32.2126029,14.6092063 32.077235,14.4203175 31.8823052,14.3393651 L21.3615089,10.0704762 L21.3939972,10.2431746 C21.4481444,10.572381 21.3994119,10.9015873 21.264044,11.1930159 L30.3445254,14.8844444 L26.1806075,16.8812698 L24.8594165,17.5126984 L17.0568084,21.2580952 L9.25420041,17.5126984 L7.93300932,16.8812698 L3.76909152,14.8844444 L12.8766465,11.187619 C12.7466932,10.8961905 12.6925461,10.5777778 12.7466932,10.2593651 L12.7791816,10.0596825 L2.23131173,14.3393651 C2.0363819,14.4203175 1.90101396,14.6092063 1.89525627,14.8250794 C1.89018452,15.0355556 2.00930831,15.2352381 2.20423814,15.3269841 L6.58474465,17.4263492 L2.23131173,19.1965079 C2.0363819,19.2774603 1.90101396,19.4663492 1.89525627,19.6822222 C1.89018452,19.8926984 2.00930831,20.092381 2.20423814,20.184127 L6.58474465,22.2834921 L2.23131173,24.0536508 C2.0363819,24.1346032 1.90101396,24.3234921 1.89525627,24.5393651 C1.89018452,24.7498413 2.00930831,24.9495238 2.20423814,25.0412698 L16.8239756,32.0571429 C16.8943669,32.0949206 16.9755877,32.1111111 17.0568084,32.1111111 C17.1380292,32.1111111 17.21925,32.0949206 17.2896413,32.0571429 L31.9093787,25.0412698 C32.1043086,24.9495238 32.2234324,24.7498413 32.2183606,24.5393651 C32.2126029,24.3234921 32.077235,24.1346032 31.8823052,24.0536508 L27.5288722,22.2834921 L31.9093787,20.184127 C32.1043086,20.092381 32.2234324,19.8926984 32.2183606,19.6822222 L32.2183606,19.6822222 Z"/><path fill="#232F3E" d="M21.3885825,0 C22.21275,0 22.9794826,0.41521042 23.4292278,1.10092555 C23.8815068,1.79667269 23.9508181,2.66617834 23.6153978,3.41473846 L21.7501994,7.59585185 L21.8647545,8.24898765 L21.894644,8.25732125 L22.0761281,8.32101243 L32.6112538,12.5957838 C33.4931142,12.9620115 34.087228,13.8121837 34.1130278,14.7797286 C34.1360376,15.734629 33.5939281,16.6230479 32.7306851,17.0292919 L32.1983007,17.2837531 L32.6112538,17.4529267 C33.4196258,17.7886354 33.9862108,18.5309919 34.0948056,19.3939122 L34.1129048,19.6320284 C34.1360376,20.5917718 33.5939281,21.4801907 32.7306851,21.8864347 L32.1983007,22.1411358 L32.6112538,22.3100695 C33.4196258,22.6457782 33.9862108,23.3881348 34.0949003,24.2547855 L34.1130278,24.4940143 C34.1360376,25.4489147 33.5939281,26.3373336 32.7315739,26.7431513 L18.1881846,33.7202426 C17.8281291,33.913478 17.4408282,34 17.0568084,34 C16.6727887,34 16.2854877,33.913478 16.0017804,33.7590244 L1.39494826,26.7492848 C0.519688805,26.3373336 -0.0224206916,25.4489147 0.00071203729,24.4891712 C0.0263888781,23.5264694 0.620502707,22.6762972 1.51540152,22.3047114 L1.91700076,22.1411358 L1.39494826,21.892142 C0.592627093,21.51452 0.0702444326,20.7365329 0.00657042212,19.8702438 L0.00071203729,19.6320283 C0.0263888781,18.6693265 0.620502707,17.8191543 1.51540152,17.4475686 L1.91700076,17.2837531 L1.39494826,17.0349991 C0.592627093,16.6573772 0.0702444326,15.87939 0.00657042212,15.013101 L0.00071203729,14.7748854 C0.0263888781,13.8121837 0.620502707,12.9620115 1.51672004,12.5898902 L12.0645899,8.31020764 C12.1241491,8.28604212 12.1838641,8.26510601 12.2435893,8.24728374 L12.2606548,8.24059259 L12.3667868,7.60424691 L10.4996402,3.41791787 C10.2002256,2.74970496 10.2217218,1.98844227 10.5478452,1.33887687 L10.6843891,1.10092555 C11.1341342,0.41521042 11.9008669,0 12.7250344,0 L21.3885825,0 Z M12.7791816,10.0596825 L2.23131173,14.3393651 C2.0363819,14.4203175 1.90101396,14.6092063 1.89510052,14.8250794 C1.89018452,15.0355556 2.00930831,15.2352381 2.20423814,15.3269841 L6.58474465,17.4263492 L2.23131173,19.1965079 C2.0363819,19.2774603 1.90101396,19.4663492 1.89510052,19.6822222 C1.89018452,19.8926984 2.00930831,20.092381 2.20423814,20.184127 L6.58474465,22.2834921 L2.23131173,24.0536508 C2.0363819,24.1346032 1.90101396,24.3234921 1.89510052,24.5393651 C1.89018452,24.7498413 2.00930831,24.9495238 2.20423814,25.0412698 L16.8239756,32.0571429 C16.8943669,32.0949206 16.9755877,32.1111111 17.0568084,32.1111111 C17.1380292,32.1111111 17.21925,32.0949206 17.2896413,32.0571429 L31.9093787,25.0412698 C32.1043086,24.9495238 32.2234324,24.7498413 32.2185164,24.5393651 C32.2126029,24.3234921 32.077235,24.1346032 31.8823052,24.0536508 L27.5288722,22.2834921 L31.9093787,20.184127 C32.1043086,20.092381 32.2234324,19.8926984 32.2185164,19.6822222 C32.2126029,19.4663492 32.077235,19.2774603 31.8823052,19.1965079 L27.5288722,17.4263492 L31.9093787,15.3269841 C32.1043086,15.2352381 32.2234324,15.0355556 32.2185164,14.8250794 C32.2126029,14.6092063 32.077235,14.4203175 31.8823052,14.3393651 L21.3615089,10.0704762 L21.3939972,10.2431746 C21.4481444,10.572381 21.3994119,10.9015873 21.264044,11.1930159 L30.3445254,14.8844444 L26.1806075,16.8812698 L24.8594165,17.5126984 L17.0568084,21.2580952 L9.25420041,17.5126984 L7.93300932,16.8812698 L3.76909152,14.8844444 L12.8766465,11.187619 C12.7466932,10.8961905 12.6925461,10.5777778 12.7466932,10.2593651 L12.7791816,10.0596825 Z M26.2076811,22.9203175 L30.3445254,24.5987302 L17.0568084,30.972381 L3.76909152,24.5987302 L7.90593574,22.9203175 L16.8239756,27.2 C16.8943669,27.2377778 16.9755877,27.2539683 17.0568084,27.2539683 C17.1380292,27.2539683 17.21925,27.2377778 17.2896413,27.2 L26.2076811,22.9203175 Z M26.2076811,18.0631746 L30.3445254,19.7415873 L26.1806075,21.7384127 L24.8594165,22.3698413 L17.0568084,26.1152381 L9.25420041,22.3698413 L7.93300932,21.7384127 L3.76909152,19.7415873 L7.90593574,18.0631746 L16.8239756,22.3428571 C16.8943669,22.3806349 16.9755877,22.3968254 17.0568084,22.3968254 C17.1380292,22.3968254 17.21925,22.3806349 17.2896413,22.3428571 L26.2076811,18.0631746 Z M13.7313405,12.8696296 L13.5914927,12.9369906 L8.43990444,15.0271605 L8.75246586,15.1780768 L10.0765737,15.8109024 L17.0551238,19.1608889 L24.0399599,15.8095054 L25.3588798,15.1791641 L25.6753971,15.0254815 L20.5482677,12.9420097 L20.4008073,12.8713086 L20.2656497,12.9061426 C20.1883527,12.921399 20.1100917,12.9329586 20.0311197,12.9407041 L19.7923238,12.952381 L19.4927895,12.9519012 L19.4934937,16.4603175 C19.4934937,17.433975 18.754342,18.2355706 17.8047846,18.3381226 L17.5982802,18.3492063 L16.5153367,18.3492063 C15.4686392,18.3492063 14.6201232,17.503522 14.6201232,16.4603175 L14.6191427,12.9519012 L14.3494496,12.952381 C14.1705398,12.952381 13.9938762,12.9327953 13.8222391,12.894864 L13.7313405,12.8696296 Z M21.3885825,1.88888889 L12.7250344,1.88888889 C12.5414755,1.88888889 12.3709118,1.98171429 12.2707396,2.13444444 C12.1711088,2.28771429 12.1554061,2.48092063 12.2301292,2.64768254 L14.3299567,7.35695238 L13.8155585,10.4353016 C13.7890264,10.5918095 13.8334271,10.7515556 13.9363067,10.8729841 C14.0391863,10.993873 14.190257,11.0634921 14.3494496,11.0634921 L16.5153367,11.0634921 L16.5153367,16.4603175 L17.5982802,16.4603175 L17.5982802,11.0634921 L19.7923238,11.0634921 C19.9525994,11.0634921 20.1042115,10.9927937 20.2065496,10.8708254 C20.3099708,10.7488571 20.3532885,10.5874921 20.3256734,10.4304444 L19.7847431,7.35479365 L21.8834877,2.64768254 C21.9582108,2.48092063 21.9425081,2.28771429 21.8428773,2.13444444 C21.742705,1.98171429 21.5721414,1.88888889 21.3885825,1.88888889 Z M20.5552575,2.96825397 L18.7277903,7.06660317 C18.6844725,7.1648254 18.6709357,7.27330159 18.6893458,7.37907937 L19.1474309,9.98412698 L14.9889278,9.98412698 L15.4248126,7.3747619 C15.4426811,7.27006349 15.4286029,7.16320635 15.3858266,7.06660317 L13.5583594,2.96825397 L20.5552575,2.96825397 Z M17.6380072,4.8557037 L16.473925,4.8557037 L17.0551238,6.1602963 L17.6380072,4.8557037 Z"/></g></svg>